<svg xmlns="http://www.w3.org/2000/svg" viewBox="0 0 294.6 214.7"><style>.st117{fill:#efecd0}</style><g id="Layer_1"><path transform="rotate(-13.952 149.82 108.739)" opacity=".35" fill="#10232d" d="M19.8 31.9h260.1v153.7H19.8z"/><path transform="rotate(-13.952 144.707 105.922)" fill="#161f23" d="M14.7 29.1h260.1v153.7H14.7z"/><g id="owl_1_" opacity=".76"><path class="st117" d="M168.8 67.1c-.4-.7-.9-1.3-1.4-1.9-.9-1.2-2-2.2-2.7-3.5-1.8-3.4-3.3-6.8-5-10.2-.8-1.6-2.5-1.8-3.6-.5-.8 1-1.3 2.2-1.9 3.3-1.6 3.3-3.1 6.6-4.7 9.8-.9 1.8-1.7 2-3.8 1.6-.8-.2-1.6-.4-2.4-.4-5.2-.5-10 1.2-14.9 2.3-2.9.6-5.2 2.4-7.3 4.4-.8.8-1.6 1.1-2.7.3-3.9-3-7.9-6-11.8-9-.9-.7-1.9-.7-2.5.3-.6 1.1-1.1 2.4-1.2 3.6-.2 2.3-.2 4.5-.1 6.8.2 3.5.4 6.9.7 10.4h.3c.2.7.4 1.5.7 2.2.2.3.6.6.9.7.3-4.9.5-9.6-.9-14.4-.1-.5-.1-1 0-1.5-.1-.9.1-1.7.2-2.6v-.2c0-.3.1-.5.3-.7v-.1c0-.4.1-.6.4-.8.2-.3.5-.6.9-.5.2 0 .4 0 .5.1 2.2 1.2 4.1 2.7 5.7 4.5 2 1.8 4.2 4.3 6.5 4.6.3 0 .6.1.8.2.2 0 .5-.1.7-.1.1-.1.3-.1.4-.2 1.9-1.2 3.6-3.3 5.6-4.2.4-.2.8-.3 1.2-.3.3-.2.6-.3.8-.5.6-.4 1.2-.6 1.8-.9 2-.8 4.3-1.3 6.4-1.5 4.1-.5 9.1 1 13.2-.2.1-.2.2-.4.4-.5.5-.3 1-.6 1.3-1 .9-2.3 1.8-4.6 2.8-6.8 0-.1.1-.1.1-.2.2-.7.5-1.3.9-1.9.2-.8.4-1.5.7-2.2.4-1 2-.7 1.9.2.1.1.3.2.4.3 1.6 2.3 2.1 5 3.1 7.6.4.6.8 1.1 1.1 1.7 1.3 1.7 2.5 4 4.3 4.7.3-.1.6-.3.8-.5 1.5-.5 1.7-1.4 1.1-2.3zM108.3 118.2c-.8-4.4-1.5-7.7-2.1-11v-.3c0-1.2 0-2.6 1.6-2.6 1.4 0 1.1 1.5 1.2 2.4.3 9.3 2.9 17.9 6.9 26.2 1.7 3.6 3.3 7.2 5.2 10.6 1.4 2.5 3.2 4.6 4.9 6.9.7 1 1.7 1.9.7 3.2-.6.7-1.8 0-2.8-1.5-2.8-4.2-5.8-8.2-8.2-12.5-1.5-2.7-2.2-5.9-3.3-9-1.5-4.5-2.9-9-4.1-12.4zM151.7 83.6c-.1 1.4-.4 2.9-.4 4.3 0 1.8.2 3.5.2 5.3 0 .5-.3.9-.5 1.4-.4-.3-1-.6-1.1-1-.3-1.5-.5-3.1-.6-4.6-.1-3.2.3-6.2 1.4-9.2 1.3-3.8 5.9-4.7 8.4-1.8 2.3 2.7 4.4 5.6 4.7 9.3.1 1.1.6 2.3.7 3.4 0 .5-.4 1-.7 1.5-.4-.3-1-.6-1.2-1.1-.3-.6-.4-1.3-.5-2-.5-3.3-1.6-6.3-3.9-8.7-.7-.7-1.9-1-2.9-1.3-.2-.1-.8.4-1 .7-.1.2.3.7.5.9 2.7 2.4 3.7 8 1.9 11-.3.5-.9.8-1.3 1.1-.3-.5-.9-.9-1-1.5-.6-2.2-1.1-4.5-1.7-6.8-.1-.4-.4-.7-.6-1-.1.1-.3.1-.4.1zM184 106.6c1.5 4.6 2.2 9.2 2.3 14 0 4.6.3 9.3.5 13.9 0 .4 0 .8-.1 1-.2.4-.6.6-.9.9-.3-.3-.6-.5-.8-.8-.2-.3-.1-.7-.1-1-.2-5.9-.1-11.9-.6-17.7-.3-3.3-1.1-6.6-2.1-9.8-1.6-5.4-3.5-10.7-5.4-16-.8-2.3-2.1-4.4-3.2-6.5-.1-.3-.4-.5-.4-.8 0-.5.1-1 .1-1.5.5.2 1.2.2 1.5.6 1 1.5 2 3 2.6 4.6 2.4 6.3 4.7 12.6 7.1 18.9-.3.1-.4.1-.5.2zM120.5 96.9c.6 1.1 1.4 2.7 2 4.3.2.5.1 1.2.2 1.9-.7-.2-1.6-.2-1.9-.6-.9-1.4-1.7-2.9-2.2-4.5-1.2-3.7-2-7.5-.7-11.5.4-1.2 1.1-1.9 2.4-2.2 3.4-.7 6.7-1 9.4 1.7.9.9 1.7 2 2.2 3.2.8 1.9 1.5 3.9 2 5.9.1.4-.3 1-.5 1.5-.5-.3-1.3-.5-1.5-.9-.7-1.7-1.2-3.4-1.9-5.1-1.6-3.8-5.2-5.3-9-3.7-.5.2-1.2 1-1.2 1.5.3 2.5.5 5.2.7 8.5zM161 111c.1-.3.2-.7.3-1 .4.1 1 .1 1.2.4.9 1.3 1.7 2.8 2.6 4.1.4.5 1 1.3 1.4 1.3.5 0 1.1-.8 1.4-1.3.9-1.7 1.6-3.6 2.5-5.3.2-.4.7-.6 1.1-.9.2.4.5.8.6 1.2 0 .5-.2 1.1-.4 1.6-1 2.1-2 4.2-3.1 6.3-.3.5-.7 1-1.1 1.4-1 1-2 .9-2.6-.3-1.4-2.5-2.6-5-3.9-7.5z"/><path class="st117" d="M127.9 94.6c.1 1.1.3 2.1.2 3.2 0 1.6-1.3 2.2-2.6 1.4-.4-.3-.8-.6-1.1-1-1.5-2.3-1.9-4.9-1.2-7.5.2-.6.9-1.1 1.4-1.6.5.5 1.2.9 1.5 1.4.7 1.3 1.2 2.7 1.8 4.1z"/><path d="M145.7 113.9c-.6-.4-1.2-.5-1.4-.9-1.3-2.3-2.6-4.6-3.8-6.9-.1-.3-.3-.6-.3-.8 0-.3.1-.6.2-1 .3.1.8.1.9.3.9 1.3 1.8 2.6 2.7 4 .4.6.9 1 1.3 1.6.5-.5 1.2-.8 1.4-1.4.8-1.8 1.4-3.8 2.1-5.7.1-.4.3-.8.5-1.1.2-.2.7-.3 1-.4.1.4.4.8.3 1-1.1 3.1-2.1 6.1-3.3 9.1-.2.8-.9 1.4-1.6 2.2z" fill="#5ea5a2"/><path class="st117" d="M146.7 128c.7.6 1.4 1 1.9 1.5.5.7.9 1.4 1.3 2.2.8 1.5 1.5 1.5 2.5.2.6-.8 1.1-1.6 1.7-2.3.3-.4.8-.8 1.3-1 .4-.1.9.1 1.3.1-.1.5.1 1.3-.2 1.5-2.1 1.5-3.1 3.8-4.4 5.9-.8 1.4-2 1.4-2.6.1-1.1-2.4-2.1-4.9-3.1-7.4 0-.1.1-.2.3-.8zM123 127.5c.5.4 1 .7 1.4 1.1 1 1.2 1.8 2.4 2.8 3.6.4.5 1 1 1.6 1.4 1.2.8 2.2.2 2.3-1.2.1-1.8.2-3.6.3-5.5 0-.4 0-.8.2-1.2.1-.3.5-.5.8-.5.1 0 .4.4.5.6.1.2.1.5.1.7-.1 2.6-.1 5.2-.4 7.7-.1.9-.7 2-1.4 2.4-1.1.7-1.9-.4-2.6-1.3-1.9-2.3-3.8-4.6-5.6-7-.2-.2-.2-.5-.3-.8 0 .3.2.2.3 0zM172.9 140.5c.1-.4.3-.9.5-1.4.4.4.8.6 1.1 1.1.5.7.7 1.6 1.2 2.3.3.4.8 1 1.1 1 .4 0 .9-.6 1.1-1.1.4-.8.6-1.7 1-2.5.2-.3.7-.5 1-.8.2.4.7.9.6 1.2-.8 2.3-1.7 4.6-2.7 6.7-.4.9-1.4.8-1.9-.1-1-2-1.9-4.1-3-6.4zM147.5 158.3c-.6-.3-1.2-.4-1.6-.8-1.5-1.5-3-3-4.4-4.6-.3-.3-.2-.9-.3-1.3.4.1 1 .1 1.3.4.8.6 1.5 1.4 2.2 2.1 1.5 1.4 2.2 1.2 3-.7.2-.6.5-1.2.9-1.7.2-.2.7-.3.9-.2.2.1.5.6.4.9-.4 1.6-.8 3.3-1.3 4.8 0 .3-.6.6-1.1 1.1z"/></g></g></svg>