<?xml version="1.0" encoding="utf-8"?>
<!-- Generator: Adobe Illustrator 24.1.2, SVG Export Plug-In . SVG Version: 6.00 Build 0)  -->
<svg version="1.1" id="Layer_1" xmlns="http://www.w3.org/2000/svg" xmlns:xlink="http://www.w3.org/1999/xlink" x="0px" y="0px"
	 viewBox="0 0 402.1 500" style="enable-background:new 0 0 402.1 500;" xml:space="preserve">
<style type="text/css">
	.st0{fill:#787878;}
	.st1{clip-path:url(#SVGID_2_);fill:#10232D;}
	.st2{clip-path:url(#SVGID_4_);}
	.st3{opacity:0.6;}
	.st4{fill:#FBF7D6;}
	.st5{clip-path:url(#SVGID_6_);fill:#E7E2C8;}
	.st6{clip-path:url(#SVGID_8_);fill:#E7E2C8;}
	.st7{clip-path:url(#SVGID_10_);fill:#E7E2C8;}
	.st8{fill:#E7E2C8;}
	.st9{opacity:0.6;clip-path:url(#SVGID_12_);}
	.st10{opacity:0.58;fill:#ECE9CE;enable-background:new    ;}
	.st11{fill:#ECE9CE;}
	.st12{opacity:0.8;fill:#ECE9CE;enable-background:new    ;}
	.st13{opacity:0.95;fill:#ECE9CE;enable-background:new    ;}
	.st14{opacity:0.55;fill:#ECE9CE;enable-background:new    ;}
	.st15{opacity:0.7;fill:#ECE9CE;enable-background:new    ;}
	.st16{opacity:0.85;clip-path:url(#SVGID_14_);fill:#FBF7D6;enable-background:new    ;}
	.st17{clip-path:url(#SVGID_16_);}
	.st18{opacity:0.24;fill:#F9F6E8;enable-background:new    ;}
	.st19{fill:#354548;}
	.st20{fill:#4E5726;}
	.st21{fill:#728638;}
	.st22{fill:#4D5F2B;}
	.st23{fill:#637D37;}
	.st24{fill:#627C37;}
	.st25{fill:#8E5825;}
	.st26{fill:#5A4A42;}
	.st27{fill:#63361D;}
	.st28{clip-path:url(#SVGID_18_);fill:#493C37;}
</style>
<g id="Layer_1_1_">
	<g id="window_and_cactus_1_">
		<g id="window_1_">
			<path id="shadow_5_" class="st0" d="M0,493.8h402.1v6.2H0V493.8z"/>
			<g id="clipped_sky_1_">
				<g>
					<defs>
						<rect id="SVGID_1_" x="31.1" y="9.9" width="340.8" height="444.8"/>
					</defs>
					<clipPath id="SVGID_2_">
						<use xlink:href="#SVGID_1_"  style="overflow:visible;"/>
					</clipPath>
					<path class="st1" d="M30.2,9.1h341.9v446.5H30.2V9.1z"/>
				</g>
				<g>
					<defs>
						<rect id="SVGID_3_" x="31.1" y="9.9" width="340.8" height="444.8"/>
					</defs>
					<clipPath id="SVGID_4_">
						<use xlink:href="#SVGID_3_"  style="overflow:visible;"/>
					</clipPath>
					<g id="clouds_1_" class="st2">
						<g class="st3">
							<path class="st4" d="M225.8,290c0,0-6.2-1.4-6.4-9.1c0,0-0.6-7.5,4.6-9.8c0,0,2.7-0.2,4.6-3c0,0,6.5-10,20.9-9.2
								c0,0,17,1.7,21.6,16.6c0,0,0,17.7-14.8,15.8c0,0-3.2-0.6-5-2.1c0,0-6.2-4.6-10.9-0.2c0,0-1.3,1.5-5.6,1.4L225.8,290
								L225.8,290z"/>
							<g>
								<defs>
									<path id="SVGID_5_" d="M225.8,290c0,0-6.2-1.4-6.4-9.1c0,0-0.6-7.5,4.6-9.8c0,0,2.7-0.2,4.6-3c0,0,6.5-10,20.9-9.2
										c0,0,17,1.7,21.6,16.6c0,0,0,17.7-14.8,15.8c0,0-3.2-0.6-5-2.1c0,0-6.2-4.6-10.9-0.2c0,0-1.3,1.5-5.6,1.4L225.8,290
										L225.8,290z"/>
								</defs>
								<clipPath id="SVGID_6_">
									<use xlink:href="#SVGID_5_"  style="overflow:visible;"/>
								</clipPath>
								<path class="st5" d="M222.9,288.5c0,0,12.6,0.7,17.6-2.3c0,0,4.6-3.1,11.1,0c0,0,8.9,4.7,16.2,0.5l-4.4,7.7l-39.9-3.1
									L222.9,288.5L222.9,288.5z"/>
							</g>
						</g>
						<g class="st3">
							<path class="st4" d="M221.4,115.6c0,0-11.8,0.5-9.8-14.4c0,0,3.2-7.3,8.2-7.9c0,0,6.8-0.7,10.2,0c0,0,1.8,0.7,3.2,1.8
								c0,0,1.8,1.6,3.7,1.6c0,0,3.9,1.1,4.1,5.6c0,0-1.1,7.2-6.8,8.9c0,0-5.1,0.7-8,2.3C226.2,113.4,223.9,115.9,221.4,115.6
								L221.4,115.6z"/>
							<g>
								<defs>
									<path id="SVGID_7_" d="M221.4,115.6c0,0-11.8,0.5-9.8-14.4c0,0,3.2-7.3,8.2-7.9c0,0,6.8-0.7,10.2,0c0,0,1.8,0.7,3.2,1.8
										c0,0,1.8,1.6,3.7,1.6c0,0,3.9,1.1,4.1,5.6c0,0-1.1,7.2-6.8,8.9c0,0-5.1,0.7-8,2.3C226.2,113.4,223.9,115.9,221.4,115.6
										L221.4,115.6z"/>
								</defs>
								<clipPath id="SVGID_8_">
									<use xlink:href="#SVGID_7_"  style="overflow:visible;"/>
								</clipPath>
								<path class="st6" d="M216.5,114.5c0,0,11.6-2.4,17.9-6.5c0,0,3.9-2.9,6.1-3.7l-0.8,7.7l-20.7,6.3L216.5,114.5z"/>
							</g>
						</g>
						<g class="st3">
							<path class="st4" d="M243.4,85.1c0,0-4.7,0.9-4.3,3.7c0,0,0.5,5.1,3.6,5.6c0,0,4.2-1.2,4.9-3.3c0,0-1-3.8-1.8-4
								c0,0-1.1-0.8-1.2-1.1C244.6,86,244.2,85.4,243.4,85.1z"/>
							<g>
								<defs>
									<path id="SVGID_9_" d="M243.4,85.1c0,0-4.7,0.9-4.3,3.7c0,0,0.5,5.1,3.6,5.6c0,0,4.2-1.2,4.9-3.3c0,0-1-3.8-1.8-4
										c0,0-1.1-0.8-1.2-1.1C244.6,86,244.2,85.4,243.4,85.1z"/>
								</defs>
								<clipPath id="SVGID_10_">
									<use xlink:href="#SVGID_9_"  style="overflow:visible;"/>
								</clipPath>
								<path class="st7" d="M241,93.5c0,0,4.8-0.1,6.2-3.7l1.2,1.9l-5.6,3.7L241,93.5L241,93.5z"/>
							</g>
						</g>
						<g class="st3">
							<path class="st4" d="M25.9,241.5c0,0-4.1-37.5,37.2-38.3c0,0,10-46.5,55.3-35c0,0,10.3,4.4,17.7,16.1c0,0,14-25.5,46.7-17.9
								c0,0,19.7,7.1,24,31c0,0,42.8,23.4,20.2,55.1c0,0-15.4,15.7-42.4,12.6l-158.8,0.4C25.8,265.4,6.1,255.4,25.9,241.5
								L25.9,241.5z"/>
							<path class="st8" d="M39.5,250.6c0,0,1.6,7,5.3,7s1.5,2.9,0.8,3.1c-0.8,0.2-6.6,2.8-8.2,4.6l147.2-0.4c0,0,12.5,2.1,25.3-2.6
								c0,0-15.4-3.7-18.7-14.3c0,0-36.2,5-42.2-22.7c0,0-10.4,22.6-48.2,18.3c0,0-19.1-2.3-29.8-13.7c0,0-1.3,17.5-13.3,22.6
								C57.7,252.5,47,254.9,39.5,250.6L39.5,250.6z"/>
							<path class="st8" d="M138.5,197.7c0,0,10.5,17.1-4.2,30.5C134.3,228.2,155.2,214,138.5,197.7z"/>
						</g>
						<g class="st3">
							<path class="st4" d="M257.9,119.9c0,0,1.1-36,33.7-30.1c0,0-1.8-42.6,52.4-32.9c0,0,24.1,4.5,27.4,41.5
								c0,0,43.3,14.1,15,49.1c0,0-3,20-18,22.1H257.9c0,0-34.3-5.2-26.1-36.4C231.8,133.3,239.2,118.6,257.9,119.9z"/>
							<path class="st8" d="M249.8,167.4c0,0,14.8-2.2,19.4-26c0,0,16.8,18.7,37.7,1.9c0,0,8-7.3,2.6-26.4c0,0,7.1,27.6,37.4,21
								c0,0,14-1.9,21.7-22.2c0,0,1.8,33,17.9,31.9c0,0-3.6,20.6-18,22.1H257.9C257.9,169.7,253,169.1,249.8,167.4L249.8,167.4z"/>
						</g>
					</g>
				</g>
				<g>
					<defs>
						<rect id="SVGID_11_" x="31.1" y="9.9" width="340.8" height="444.8"/>
					</defs>
					<clipPath id="SVGID_12_">
						<use xlink:href="#SVGID_11_"  style="overflow:visible;"/>
					</clipPath>
					<g id="stars_1_" class="st9">
						<ellipse class="st10" cx="183.8" cy="55.2" rx="1.9" ry="2.1"/>
						<ellipse class="st11" cx="258.9" cy="50.6" rx="2.1" ry="2.3"/>
						<ellipse class="st12" cx="284.8" cy="34.8" rx="1.4" ry="1.5"/>
						<ellipse class="st13" cx="90.2" cy="131.7" rx="1.5" ry="1.7"/>
						<ellipse class="st12" cx="185.3" cy="97.2" rx="1.7" ry="1.9"/>
						<ellipse class="st11" cx="125.9" cy="108.4" rx="1.8" ry="2.1"/>
						<ellipse class="st14" cx="141.4" cy="131.7" rx="1.5" ry="1.6"/>
						<ellipse class="st15" cx="130.3" cy="92" rx="1.5" ry="1.6"/>
						<ellipse class="st15" cx="199.2" cy="52.8" rx="1.5" ry="1.6"/>
						<ellipse class="st12" cx="58.3" cy="128.2" rx="1.7" ry="1.9"/>
						<ellipse class="st11" cx="71" cy="167.8" rx="1.8" ry="2"/>
						<ellipse class="st14" cx="82.2" cy="144.5" rx="1.5" ry="1.6"/>
						<ellipse class="st15" cx="57" cy="175.2" rx="1.5" ry="1.6"/>
						<ellipse class="st15" cx="158.4" cy="43.9" rx="1.5" ry="1.6"/>
						<ellipse class="st13" cx="196.6" cy="161.5" rx="1.5" ry="1.7"/>
						<g>
							<ellipse class="st10" cx="171.4" cy="267.8" rx="1.9" ry="2.1"/>
							<ellipse class="st11" cx="246.4" cy="263.1" rx="2.1" ry="2.3"/>
							<ellipse class="st12" cx="272.3" cy="247.3" rx="1.4" ry="1.5"/>
							<ellipse class="st12" cx="172.8" cy="309.8" rx="1.7" ry="1.9"/>
							<ellipse class="st11" cx="113.4" cy="321" rx="1.8" ry="2.1"/>
							<ellipse class="st14" cx="128.9" cy="344.2" rx="1.5" ry="1.6"/>
							<ellipse class="st15" cx="117.8" cy="304.5" rx="1.5" ry="1.6"/>
							<ellipse class="st12" cx="45.9" cy="340.8" rx="1.7" ry="1.9"/>
						</g>
						<g>
							<ellipse class="st10" cx="215.5" cy="285.2" rx="1.9" ry="2.1"/>
							<ellipse class="st11" cx="140.7" cy="276.6" rx="2.1" ry="2.3"/>
							<ellipse class="st12" cx="112.9" cy="287.7" rx="1.4" ry="1.5"/>
							<ellipse class="st13" cx="318.7" cy="226.1" rx="1.5" ry="1.7"/>
							<ellipse class="st11" cx="280.2" cy="242.8" rx="1.8" ry="2.1"/>
							<ellipse class="st14" cx="268.2" cy="217.1" rx="1.5" ry="1.6"/>
							<ellipse class="st15" cx="273.6" cy="258.3" rx="1.5" ry="1.6"/>
							<ellipse class="st15" cx="200" cy="284.9" rx="1.5" ry="1.6"/>
							<ellipse class="st12" cx="349.8" cy="235" rx="1.7" ry="1.9"/>
							<ellipse class="st11" cx="342.8" cy="193.8" rx="1.8" ry="2"/>
							<ellipse class="st14" cx="328.5" cy="214.8" rx="1.5" ry="1.6"/>
							<ellipse class="st15" cx="357.7" cy="188.9" rx="1.5" ry="1.6"/>
							<ellipse class="st15" cx="239" cy="300.8" rx="1.5" ry="1.6"/>
							<ellipse class="st13" cx="217.9" cy="178" rx="1.5" ry="1.7"/>
							<ellipse class="st14" cx="227.7" cy="166.7" rx="1.5" ry="1.6"/>
						</g>
						<g>
							<ellipse class="st13" cx="319.5" cy="363.5" rx="1.5" ry="1.7"/>
							<ellipse class="st12" cx="220.7" cy="380.9" rx="1.7" ry="1.9"/>
							<ellipse class="st14" cx="269" cy="354.6" rx="1.5" ry="1.6"/>
							<ellipse class="st11" cx="343.6" cy="331.3" rx="1.8" ry="2"/>
							<ellipse class="st13" cx="218.7" cy="315.4" rx="1.5" ry="1.7"/>
							<ellipse class="st14" cx="228.5" cy="304.2" rx="1.5" ry="1.6"/>
						</g>
					</g>
				</g>
				<g>
					<defs>
						<rect id="SVGID_13_" x="31.1" y="9.9" width="340.8" height="444.8"/>
					</defs>
					<clipPath id="SVGID_14_">
						<use xlink:href="#SVGID_13_"  style="overflow:visible;"/>
					</clipPath>
					<path id="moon_1_" class="st16" d="M88.8,96c0,0-14-8.6-16-25.3c0,0-5.4-38.9,32.4-42.9c0,0-16.1-11-32.7,0
						c0,0-19.9,11.9-15.9,38.1C56.5,65.8,60.3,94.7,88.8,96z"/>
				</g>
				<g>
					<defs>
						<rect id="SVGID_15_" x="31.1" y="9.9" width="340.8" height="444.8"/>
					</defs>
					<clipPath id="SVGID_16_">
						<use xlink:href="#SVGID_15_"  style="overflow:visible;"/>
					</clipPath>
					<g id="glare_4_" class="st17">
						<path class="st18" d="M321.6,10L31.4,235.1v58.8L371.6,35.2V10H321.6z M249.8,10L31.4,179.6v35.9L295.8,10H249.8z"/>
					</g>
				</g>
			</g>
			<g id="window_frame_1_">
				<path class="st19" d="M0,464.1h402.1v30.2H0V464.1z"/>
				<path class="st19" d="M371.6,10v444.2H31.4V10H371.6 M381.6,0H21.4v465.2h360.2V0z"/>
				<path class="st19" d="M31.1,263.3h341.1v10H31.1V263.3z"/>
				<path class="st19" d="M196.8,9.6h10v445.1h-10V9.6z"/>
			</g>
		</g>
		<g id="cactus_1_">
			<g id="plant_1_">
				<g id="branches_1_">
					<path class="st20" d="M94,433.7l11,0.1v-71.3c0-4-3-7.2-6.7-7.2C97.2,355.2,94,433.8,94,433.7L94,433.7z"/>
					<path class="st21" d="M98.4,355.2c-3.7,0-6.7,3.2-6.7,7.2v71.4H103v-76.6C101.1,355.1,98.4,355.2,98.4,355.2L98.4,355.2z"/>
					<path class="st20" d="M115.1,390.4V373c1.4-1.3,3.3-1.1,3.3-1.1c2.7,0,5,2.4,5,5.4v16.5c0,3-2.2,5.4-5,5.4H105v-8.5
						L115.1,390.4z"/>
					<path class="st21" d="M118.7,396.9H105v-8.8l8.2-0.1v-10.8c0-3,2.2-5.4,5-5.4c0,0,2-0.2,3.5,1.3v20.6
						C121.7,395.5,120.3,396.9,118.7,396.9L118.7,396.9z"/>
					<path class="st20" d="M77.1,414.5h14.6v-8.6l-8.2-0.1V395c0-3-2.5-5.4-5.2-5.4c0,0-1.7-0.1-2.9,1v22
						C75.4,413.6,76.1,414.5,77.1,414.5z"/>
					<path class="st21" d="M81.6,407.6l0.3-16.5c-1.4-1.5-3.6-1.5-3.6-1.5c-2.7,0-5,2.4-5,5.4v16.5c0,3,2.2,5.4,5,5.4h13.4v-9.2
						L81.6,407.6L81.6,407.6z"/>
				</g>
				<g id="spikes_1_">
					<path class="st22" d="M104.6,360.5h1.6v1.5h-1.6V360.5z M105,367.5h1.6v1.5H105V367.5z M105,374.5h1.6v1.5H105V374.5z
						 M105,381.6h1.6v1.5H105V381.6z M105,402.4h1.6v1.5H105V402.4z M105,409.5h1.6v1.5H105V409.5z M105,416.4h1.6v1.5H105V416.4z
						 M105,423.4h1.6v1.5H105V423.4z M105,430.2h1.6v1.5H105V430.2z"/>
					<path class="st23" d="M90.3,360.2H92l-0.1,2h-1.6V360.2z M90.3,367.2h1.6v2h-1.6V367.2z M90.3,374.2h1.6v2h-1.6V374.2z
						 M90.3,381.2h1.6v2h-1.6V381.2z M90.3,388.3h1.6v2h-1.6V388.3z M90.3,395.3h1.6v2h-1.6V395.3z M90.3,402.2h1.6v2h-1.6V402.2z"
						/>
					<path class="st24" d="M72,393.3h1.6v2H72V393.3z M72,400.2h1.6v2H72V400.2z M72,407.2h1.6v2H72V407.2z M90.3,423.2h1.6v2h-1.6
						V423.2z M90.3,430.3h1.6v2h-1.6V430.3z"/>
					<path class="st22" d="M123.1,376.1h1.6v1.5h-1.6V376.1z M123.1,383h1.6v1.5h-1.6V383z M123.1,390.3h1.6v1.5h-1.6V390.3z"/>
					<g>
						<path class="st22" d="M99.8,427.6h-1.5v-2h1.5V427.6z M99.8,421.5h-1.5v-2h1.5V421.5z M99.8,415.4h-1.5v-2h1.5V415.4z
							 M99.8,409.3h-1.5v-2h1.5V409.3z M99.8,403.3h-1.5v-2h1.5V403.3z M99.8,397.2h-1.5v-2h1.5V397.2z M99.8,391.1h-1.5v-2h1.5
							V391.1z M99.8,385h-1.5v-2h1.5V385z M99.8,378.9h-1.5v-2h1.5V378.9z M99.8,372.8h-1.5v-2h1.5V372.8z M99.8,366.8h-1.5v-2h1.5
							V366.8z M99.8,360.7h-1.5v-2h1.5V360.7z"/>
					</g>
					<g>
						<path class="st22" d="M119.2,393.8h-2.3v-1.5h2.3V393.8z M112.9,393.8h-2v-1.5h2V393.8z M106.9,393.8h-2v-1.5h2V393.8z
							 M119.2,388.6h-1.5v-2h1.5V388.6z M119.2,382.6h-1.5v-2h1.5V382.6z M119.2,376.6h-1.5v-2h1.5V376.6z"/>
					</g>
					<g>
						<path class="st22" d="M91.7,412.5h-2V411h2V412.5z M85.7,412.5h-2V411h2V412.5z M79.7,412.5h-1.9v-1.6h1.5v0.1h0.4V412.5z
							 M79.3,406.9h-1.5v-2h1.5V406.9z M79.3,400.9h-1.5v-2h1.5V400.9z M79.3,394.9h-1.5v-2h1.5V394.9z"/>
					</g>
				</g>
			</g>
			<g id="pot_1_">
				<path class="st25" d="M111.8,442.9H85l2.4,21.2h22.2L111.8,442.9z"/>
				<path class="st26" d="M111.3,442.9H85.4c-2.3,0-4.1-1.9-4.1-4.1v-0.9c0-2.3,1.9-4.1,4.1-4.1h25.9c2.3,0,4.1,1.9,4.1,4.1v0.9
					C115.5,441,113.6,442.9,111.3,442.9z"/>
				<path class="st27" d="M106.6,464.1l3.3-21.2h1.9l-2.2,21.2H106.6z"/>
				<g>
					<defs>
						<path id="SVGID_17_" d="M111.3,442.9H85.4c-2.3,0-4.1-1.9-4.1-4.1v-0.9c0-2.3,1.9-4.1,4.1-4.1h25.9c2.3,0,4.1,1.9,4.1,4.1v0.9
							C115.5,441,113.6,442.9,111.3,442.9z"/>
					</defs>
					<clipPath id="SVGID_18_">
						<use xlink:href="#SVGID_17_"  style="overflow:visible;"/>
					</clipPath>
					<path class="st28" d="M109.6,433.7c0,0,6.2,3.8,0,9.2h5.9v-9.2H109.6z"/>
				</g>
			</g>
		</g>
	</g>
</g>
</svg>
