<svg xmlns="http://www.w3.org/2000/svg" viewBox="0 0 567.6 46.3"><style>.st27{fill:#ece9ce}.st79{fill:#5ea3a0}</style><g id="Layer_2"><path class="st27" d="M58.2 5.4c1.9 0 3.8.2 5.6.6 1.8.4 3.8 1.1 5.9 2.2v6c-2.1-1.2-4-2-5.7-2.5-1.8-.5-3.6-.8-5.5-.8-2.4 0-4.5.5-6.5 1.4-1.9 1-3.4 2.3-4.5 4.1S46 20.1 46 22.3s.5 4.2 1.6 5.9 2.6 3.1 4.5 4c1.9.9 4.1 1.4 6.5 1.4 1.8 0 3.6-.3 5.3-.8 1.7-.5 3.8-1.4 6.3-2.8v6c-2.2 1.1-4.2 1.9-6 2.4-1.8.5-4 .7-6.4.7-3.5 0-6.7-.7-9.5-2.1-2.8-1.4-5-3.4-6.6-6-1.6-2.6-2.4-5.4-2.4-8.5 0-3.3.8-6.3 2.5-8.9 1.6-2.6 3.9-4.7 6.8-6.1s6-2.1 9.6-2.1zM93.4 5.8c3.2 0 5.7.9 7.7 2.6s3 3.9 3 6.7c0 1.9-.5 3.5-1.5 4.9-1 1.4-2.5 2.5-4.4 3.3 1.1.6 2 1.3 2.9 2.3s1.9 2.6 3.1 4.9c2.1 4 3.6 6.7 4.6 8.2h-7.2c-.5-.7-1.2-1.9-2-3.5-1.9-3.5-3.2-5.8-4.1-7.1S93.8 26 93 25.5s-1.7-.8-2.8-.8h-2.4v13.9h-6.5V5.8h12.1zm-1.5 14c1.7 0 3-.4 4-1.2 1-.8 1.5-2 1.5-3.4 0-1.5-.5-2.6-1.4-3.4-1-.7-2.3-1.1-4.1-1.1h-4v9.1h4zM124.6 5.8v32.8h-6.5V5.8h6.5zM146.8 5.4c3.3 0 6.4.8 9.5 2.4v5.6c-3.5-2.1-6.6-3.1-9.3-3.1-1.6 0-2.9.3-3.8.9-.9.6-1.4 1.4-1.4 2.5 0 1.2.9 2.4 2.6 3.4.5.3 2.3 1.2 5.6 2.6 2.8 1.3 4.7 2.7 6 4.2 1.2 1.5 1.8 3.4 1.8 5.6 0 2.8-1 5.1-3.1 6.8-2.1 1.7-4.8 2.6-8.1 2.6-2.1 0-4-.2-5.5-.7-1.5-.5-3.3-1.3-5.2-2.4v-6.2c3.6 2.9 7 4.4 10.2 4.4 1.6 0 2.9-.3 3.9-1s1.5-1.6 1.5-2.7c0-1.5-.9-2.8-2.6-3.7-1.4-.8-3.2-1.7-5.5-2.7-2.6-1.2-4.6-2.5-5.9-4.1-1.3-1.6-2-3.4-2-5.4 0-2.8 1.1-5 3.2-6.6 1.9-1.6 4.6-2.4 8.1-2.4zM195.2 5.8v5h-11.9v27.9h-6.5V10.8h-11.9v-5h30.3zM211.7 5.8v32.8h-6.5V5.8h6.5zM229.9 5.8l20 22.9V5.8h6.4v32.8h-5.6l-20.1-23.3v23.3h-6.4V5.8h5.7zM285.6 5.8l14.8 32.8h-6.9l-3.5-8h-14.9l-3.2 8h-6.8L279 5.8h6.6zm-8.5 20.1H288l-5.7-13-5.2 13z"/><path class="st79" d="M312.7 5.8l9.5 21.1 9.3-21.1h6.8L323.5 39h-2.3L305.8 5.8h6.9zM353.8 5.8v32.8h-6.5V5.8h6.5zM372.7 5.8v27.9H389v5h-22.8V5.8h6.5zM404.9 5.8v27.9h16.3v5h-22.8V5.8h6.5zM452.3 5.8v5h-15.2v8.6h14.6v5h-14.6v9.3h15.6v5h-22.1V5.8h21.7zM481.3 5.4c4.1 0 8.2.9 12.3 2.7v5.8c-4.1-2-8.1-3-12-3-2.5 0-4.6.5-6.5 1.4-1.9 1-3.4 2.3-4.4 4.1s-1.6 3.8-1.6 6c0 3.4 1.1 6 3.4 8.1 2.3 2 5.3 3.1 9 3.1 1 0 2-.1 2.9-.3.9-.2 2.1-.5 3.4-1v-5.5h-5.6v-5h12.1v13.5c-1.7 1.1-3.6 2-6 2.6-2.3.6-4.7 1-7.2 1-3.5 0-6.8-.7-9.6-2.1-2.9-1.4-5.1-3.4-6.7-6-1.6-2.6-2.4-5.4-2.4-8.6 0-3.2.8-6.1 2.4-8.7 1.6-2.6 3.9-4.6 6.8-6.1 2.9-1.3 6.1-2 9.7-2zM523.2 5.8L538 38.7h-6.9l-3.5-8h-14.9l-3.2 8h-6.8l13.9-32.8h6.6zm-8.5 20.1h10.9l-5.7-13-5.2 13zM556.7 5.4c3.3 0 6.4.8 9.5 2.4v5.6c-3.5-2.1-6.6-3.1-9.3-3.1-1.6 0-2.9.3-3.8.9-.9.6-1.4 1.4-1.4 2.5 0 1.2.9 2.4 2.6 3.4.5.3 2.3 1.2 5.6 2.6 2.8 1.3 4.7 2.7 6 4.2 1.2 1.5 1.8 3.4 1.8 5.6 0 2.8-1 5.1-3.1 6.8s-4.8 2.6-8.1 2.6c-2.2 0-4-.2-5.5-.7-1.5-.5-3.3-1.3-5.2-2.4v-6.2c3.6 2.9 7 4.4 10.2 4.4 1.6 0 2.9-.3 3.8-1 1-.7 1.5-1.6 1.5-2.7 0-1.5-.9-2.8-2.6-3.7-1.4-.8-3.2-1.7-5.5-2.7-2.6-1.2-4.6-2.5-5.9-4.1-1.3-1.6-2-3.4-2-5.4 0-2.8 1.1-5 3.2-6.6 1.9-1.6 4.7-2.4 8.2-2.4zM14.2 46.3v-.2c.5 0 1.1 0 1.6-.1.3-.1.6-.4.7-.7 0-.2-.2-.7-.4-.8-.5-.3-1.1-.6-1.7-.8-2.6-.8-5.1-1.5-7.7-2.2-.9-.2-1-.8-.4-1.4.7-.7 1.5-1.3 2.3-2C9.7 37 11 36 12.1 34.8c.3-.3.6-1 .4-1.4-.4-1.1-1-2-1.5-3-.2-.4-.5-.7-.6-1.1-1-3.6-.7-7.2 0-10.7.3-1.4.5-2.7 1.4-4 .8-1.2.5-2-.7-2.9-1.6-1.2-3.3-2.3-4.8-3.6-1.1-.9-1.1-1.4.2-2 2-.9 4.1-1.8 6.2-2.6.6-.3 1.2-.5 1.8-.8.8-.4.8-1.1.5-1.8-.3-.7-.9-1-1.6-.8l-1.5.6c-.9.4-1.8 1-2.7 1.2C6.6 2.6 4 3 1.5 3.6.3 3.8-.2 4.9.6 5.9c.5.7 1.2 1.2 1.9 1.8 1.9 1.6 3.9 3.1 5.8 4.8 1.1.9 1.1 1.5.4 2.8-.3.5-.5 1-.7 1.5C6.8 20 7.1 23.6 7 27c-.1 2 .7 3.9 1.7 5.6.4.7.4 1.3-.3 1.8-2.7 2.1-5.3 4.2-7.9 6.4-.6.5-.8 1.2-.2 1.7.6.6 1.4 1.1 2.2 1.4 1.5.5 3 .9 4.5 1.2 2.4.5 4.8.8 7.2 1.2zm7.4-32.1c0-.1 0-.2.1-.4.3-.1.5-.2.8-.2h4.8c.4 0 .8-.3 1.2-.4-.2-.4-.3-.8-.5-1-1.8-1.7-5.7-2-7.7-.6-.2.1-.6.3-.7.2-.2-.2-.4-.6-.3-.8.4-.6.8-1.4 1.4-1.7 2-1.1 4.2-1.4 6.5-1.2.5.1 1 .1 1.4 0 .3-.1.6-.4.9-.6-.3-.2-.6-.6-.9-.7-.8-.1-1.6 0-2.4-.1-2.5-.4-4.8.5-7 1.6-2.3 1.2-2.5 4.4-.2 5.9 1.8 1.2 3.8 2 5.9 2.5 1 .2 2.1.3 3.2.4.3 0 .6-.4.8-.6-.3-.2-.5-.5-.8-.6-1.2-.3-2.4-.4-3.6-.7-1.1-.3-2-.7-2.9-1zm3.7 22.9c-2.2-.4-4.1-.7-5.9-1.1-.3-.1-.7-.6-.8-1-.4-2.8 1.2-4.9 4-5.4 1.2-.2 2.5-.2 3.7-.4.3-.1.6-.6.9-.8-.3-.2-.6-.6-.9-.6-1.4.1-2.8.1-4.2.4-.9.2-1.8.5-2.5 1-2.2 1.4-2.6 3.6-2.7 6 0 .9.3 1.5 1.1 2 2.4 1.5 5.1 1.6 7.7 1.5 1.1-.1 2.3-.3 3.3-.7.3-.1.5-.8.7-1.2-.4-.1-.9-.3-1.3-.2-1.2.1-2.3.3-3.1.5zm-.3-5.3c-1 .2-2.1.3-3.1.5-.4.1-.8.5-1.2.8.3.4.5 1 .9 1.2 1.7.9 3.4 1 5.2.4.3-.1.6-.3.9-.5.8-.8.6-1.7-.5-2-.8-.2-1.5-.2-2.2-.4z"/></g></svg>