<?xml version="1.0" encoding="utf-8"?>
<!-- Generator: Adobe Illustrator 24.1.3, SVG Export Plug-In . SVG Version: 6.00 Build 0)  -->
<svg version="1.1" id="Layer_1" xmlns="http://www.w3.org/2000/svg" xmlns:xlink="http://www.w3.org/1999/xlink" x="0px" y="0px"
	 viewBox="0 0 567.6 46.3" style="enable-background:new 0 0 567.6 46.3;" xml:space="preserve">
<style type="text/css">
	.st0{fill:#FFF9DD;}
	.st1{fill:#5EA3A0;}
</style>
<g id="Layer_2_1_">
	<path class="st0" d="M58.2,5.4c1.9,0,3.8,0.2,5.6,0.6s3.8,1.1,5.9,2.2v6c-2.1-1.2-4-2-5.7-2.5c-1.8-0.5-3.6-0.8-5.5-0.8
		c-2.4,0-4.5,0.5-6.5,1.4c-1.9,1-3.4,2.3-4.5,4.1S46,20.1,46,22.3s0.5,4.2,1.6,5.9s2.6,3.1,4.5,4c1.9,0.9,4.1,1.4,6.5,1.4
		c1.8,0,3.6-0.3,5.3-0.8s3.8-1.4,6.3-2.8v6c-2.2,1.1-4.2,1.9-6,2.4c-1.8,0.5-4,0.7-6.4,0.7c-3.5,0-6.7-0.7-9.5-2.1
		c-2.8-1.4-5-3.4-6.6-6s-2.4-5.4-2.4-8.5c0-3.3,0.8-6.3,2.5-8.9c1.6-2.6,3.9-4.7,6.8-6.1S54.6,5.4,58.2,5.4z M93.4,5.8
		c3.2,0,5.7,0.9,7.7,2.6s3,3.9,3,6.7c0,1.9-0.5,3.5-1.5,4.9c-1,1.4-2.5,2.5-4.4,3.3c1.1,0.6,2,1.3,2.9,2.3s1.9,2.6,3.1,4.9
		c2.1,4,3.6,6.7,4.6,8.2h-7.2c-0.5-0.7-1.2-1.9-2-3.5c-1.9-3.5-3.2-5.8-4.1-7.1S93.8,26,93,25.5s-1.7-0.8-2.8-0.8h-2.4v13.9h-6.5
		V5.8C81.3,5.8,93.4,5.8,93.4,5.8z M91.9,19.8c1.7,0,3-0.4,4-1.2c1-0.8,1.5-2,1.5-3.4c0-1.5-0.5-2.6-1.4-3.4c-1-0.7-2.3-1.1-4.1-1.1
		h-4v9.1H91.9z M124.6,5.8v32.8h-6.5V5.8H124.6z M146.8,5.4c3.3,0,6.4,0.8,9.5,2.4v5.6c-3.5-2.1-6.6-3.1-9.3-3.1
		c-1.6,0-2.9,0.3-3.8,0.9c-0.9,0.6-1.4,1.4-1.4,2.5c0,1.2,0.9,2.4,2.6,3.4c0.5,0.3,2.3,1.2,5.6,2.6c2.8,1.3,4.7,2.7,6,4.2
		c1.2,1.5,1.8,3.4,1.8,5.6c0,2.8-1,5.1-3.1,6.8s-4.8,2.6-8.1,2.6c-2.1,0-4-0.2-5.5-0.7s-3.3-1.3-5.2-2.4v-6.2
		c3.6,2.9,7,4.4,10.2,4.4c1.6,0,2.9-0.3,3.9-1s1.5-1.6,1.5-2.7c0-1.5-0.9-2.8-2.6-3.7c-1.4-0.8-3.2-1.7-5.5-2.7
		c-2.6-1.2-4.6-2.5-5.9-4.1c-1.3-1.6-2-3.4-2-5.4c0-2.8,1.1-5,3.2-6.6C140.6,6.2,143.3,5.4,146.8,5.4z M195.2,5.8v5h-11.9v27.9h-6.5
		V10.8h-11.9v-5H195.2L195.2,5.8z M211.7,5.8v32.8h-6.5V5.8H211.7z M229.9,5.8l20,22.9V5.8h6.4v32.8h-5.6l-20.1-23.3v23.3h-6.4V5.8
		H229.9L229.9,5.8z M285.6,5.8l14.8,32.8h-6.9l-3.5-8h-14.9l-3.2,8h-6.8L279,5.8H285.6z M277.1,25.9H288l-5.7-13L277.1,25.9
		L277.1,25.9z"/>
	<path class="st1" d="M312.7,5.8l9.5,21.1l9.3-21.1h6.8L323.5,39h-2.3L305.8,5.8H312.7L312.7,5.8z M353.8,5.8v32.8h-6.5V5.8H353.8z
		 M372.7,5.8v27.9H389v5h-22.8V5.8H372.7z M404.9,5.8v27.9h16.3v5h-22.8V5.8H404.9z M452.3,5.8v5h-15.2v8.6h14.6v5h-14.6v9.3h15.6v5
		h-22.1V5.8H452.3z M481.3,5.4c4.1,0,8.2,0.9,12.3,2.7v5.8c-4.1-2-8.1-3-12-3c-2.5,0-4.6,0.5-6.5,1.4c-1.9,1-3.4,2.3-4.4,4.1
		s-1.6,3.8-1.6,6c0,3.4,1.1,6,3.4,8.1c2.3,2,5.3,3.1,9,3.1c1,0,2-0.1,2.9-0.3s2.1-0.5,3.4-1v-5.5h-5.6v-5h12.1v13.5
		c-1.7,1.1-3.6,2-6,2.6c-2.3,0.6-4.7,1-7.2,1c-3.5,0-6.8-0.7-9.6-2.1c-2.9-1.4-5.1-3.4-6.7-6s-2.4-5.4-2.4-8.6s0.8-6.1,2.4-8.7
		s3.9-4.6,6.8-6.1C474.5,6.1,477.7,5.4,481.3,5.4L481.3,5.4z M523.2,5.8L538,38.7h-6.9l-3.5-8h-14.9l-3.2,8h-6.8l13.9-32.8h6.6
		L523.2,5.8z M514.7,25.9h10.9l-5.7-13L514.7,25.9z M556.7,5.4c3.3,0,6.4,0.8,9.5,2.4v5.6c-3.5-2.1-6.6-3.1-9.3-3.1
		c-1.6,0-2.9,0.3-3.8,0.9c-0.9,0.6-1.4,1.4-1.4,2.5c0,1.2,0.9,2.4,2.6,3.4c0.5,0.3,2.3,1.2,5.6,2.6c2.8,1.3,4.7,2.7,6,4.2
		c1.2,1.5,1.8,3.4,1.8,5.6c0,2.8-1,5.1-3.1,6.8s-4.8,2.6-8.1,2.6c-2.2,0-4-0.2-5.5-0.7s-3.3-1.3-5.2-2.4v-6.2
		c3.6,2.9,7,4.4,10.2,4.4c1.6,0,2.9-0.3,3.8-1c1-0.7,1.5-1.6,1.5-2.7c0-1.5-0.9-2.8-2.6-3.7c-1.4-0.8-3.2-1.7-5.5-2.7
		c-2.6-1.2-4.6-2.5-5.9-4.1c-1.3-1.6-2-3.4-2-5.4c0-2.8,1.1-5,3.2-6.6C550.4,6.2,553.2,5.4,556.7,5.4z M14.2,46.3v-0.2
		c0.5,0,1.1,0,1.6-0.1c0.3-0.1,0.6-0.4,0.7-0.7c0-0.2-0.2-0.7-0.4-0.8c-0.5-0.3-1.1-0.6-1.7-0.8c-2.6-0.8-5.1-1.5-7.7-2.2
		c-0.9-0.2-1-0.8-0.4-1.4c0.7-0.7,1.5-1.3,2.3-2C9.7,37,11,36,12.1,34.8c0.3-0.3,0.6-1,0.4-1.4c-0.4-1.1-1-2-1.5-3
		c-0.2-0.4-0.5-0.7-0.6-1.1c-1-3.6-0.7-7.2,0-10.7c0.3-1.4,0.5-2.7,1.4-4c0.8-1.2,0.5-2-0.7-2.9c-1.6-1.2-3.3-2.3-4.8-3.6
		c-1.1-0.9-1.1-1.4,0.2-2c2-0.9,4.1-1.8,6.2-2.6c0.6-0.3,1.2-0.5,1.8-0.8c0.8-0.4,0.8-1.1,0.5-1.8s-0.9-1-1.6-0.8l-1.5,0.6
		c-0.9,0.4-1.8,1-2.7,1.2C6.6,2.6,4,3,1.5,3.6C0.3,3.8-0.2,4.9,0.6,5.9c0.5,0.7,1.2,1.2,1.9,1.8c1.9,1.6,3.9,3.1,5.8,4.8
		c1.1,0.9,1.1,1.5,0.4,2.8c-0.3,0.5-0.5,1-0.7,1.5C6.8,20,7.1,23.6,7,27c-0.1,2,0.7,3.9,1.7,5.6c0.4,0.7,0.4,1.3-0.3,1.8
		c-2.7,2.1-5.3,4.2-7.9,6.4c-0.6,0.5-0.8,1.2-0.2,1.7c0.6,0.6,1.4,1.1,2.2,1.4c1.5,0.5,3,0.9,4.5,1.2C9.4,45.6,11.8,45.9,14.2,46.3z
		 M21.6,14.2c0-0.1,0-0.2,0.1-0.4c0.3-0.1,0.5-0.2,0.8-0.2h4.8c0.4,0,0.8-0.3,1.2-0.4c-0.2-0.4-0.3-0.8-0.5-1
		c-1.8-1.7-5.7-2-7.7-0.6c-0.2,0.1-0.6,0.3-0.7,0.2c-0.2-0.2-0.4-0.6-0.3-0.8c0.4-0.6,0.8-1.4,1.4-1.7c2-1.1,4.2-1.4,6.5-1.2
		c0.5,0.1,1,0.1,1.4,0c0.3-0.1,0.6-0.4,0.9-0.6c-0.3-0.2-0.6-0.6-0.9-0.7c-0.8-0.1-1.6,0-2.4-0.1c-2.5-0.4-4.8,0.5-7,1.6
		c-2.3,1.2-2.5,4.4-0.2,5.9c1.8,1.2,3.8,2,5.9,2.5c1,0.2,2.1,0.3,3.2,0.4c0.3,0,0.6-0.4,0.8-0.6c-0.3-0.2-0.5-0.5-0.8-0.6
		c-1.2-0.3-2.4-0.4-3.6-0.7C23.4,14.9,22.5,14.5,21.6,14.2z M25.3,37.1c-2.2-0.4-4.1-0.7-5.9-1.1c-0.3-0.1-0.7-0.6-0.8-1
		c-0.4-2.8,1.2-4.9,4-5.4c1.2-0.2,2.5-0.2,3.7-0.4c0.3-0.1,0.6-0.6,0.9-0.8c-0.3-0.2-0.6-0.6-0.9-0.6c-1.4,0.1-2.8,0.1-4.2,0.4
		c-0.9,0.2-1.8,0.5-2.5,1c-2.2,1.4-2.6,3.6-2.7,6c0,0.9,0.3,1.5,1.1,2c2.4,1.5,5.1,1.6,7.7,1.5c1.1-0.1,2.3-0.3,3.3-0.7
		c0.3-0.1,0.5-0.8,0.7-1.2c-0.4-0.1-0.9-0.3-1.3-0.2C27.2,36.7,26.1,36.9,25.3,37.1z M25,31.8c-1,0.2-2.1,0.3-3.1,0.5
		c-0.4,0.1-0.8,0.5-1.2,0.8c0.3,0.4,0.5,1,0.9,1.2c1.7,0.9,3.4,1,5.2,0.4c0.3-0.1,0.6-0.3,0.9-0.5c0.8-0.8,0.6-1.7-0.5-2
		C26.4,32,25.7,32,25,31.8z"/>
</g>
</svg>
