<?xml version="1.0" encoding="utf-8"?>
<!-- Generator: Adobe Illustrator 24.1.3, SVG Export Plug-In . SVG Version: 6.00 Build 0)  -->
<svg version="1.1" id="Layer_1" xmlns="http://www.w3.org/2000/svg" xmlns:xlink="http://www.w3.org/1999/xlink" x="0px" y="0px"
	 viewBox="0 0 385.5 31.5" style="enable-background:new 0 0 385.5 31.5;" xml:space="preserve">
<style type="text/css">
	.st0{fill:#FFF9DD;}
	.st1{fill:#10232D;}
</style>
<g id="Layer_3">
	<path class="st0" d="M39.5,3.7c1.3,0,2.6,0.1,3.8,0.4s2.6,0.8,4,1.5v4.1c-1.4-0.8-2.7-1.4-3.9-1.7c-1.2-0.4-2.4-0.5-3.7-0.5
		c-1.6,0-3.1,0.3-4.4,1C34,9,33,10,32.3,11.1c-0.7,1.2-1.1,2.5-1.1,4s0.4,2.8,1.1,4s1.7,2.1,3,2.7s2.8,1,4.4,1
		c1.3,0,2.4-0.2,3.6-0.5c1.1-0.4,2.6-1,4.3-1.9v4.1c-1.5,0.8-2.8,1.3-4.1,1.6c-1.2,0.3-2.7,0.5-4.3,0.5c-2.4,0-4.6-0.5-6.5-1.4
		c-1.9-0.9-3.4-2.3-4.5-4c-1.1-1.8-1.6-3.7-1.6-5.8c0-2.2,0.6-4.3,1.7-6c1.1-1.8,2.7-3.2,4.6-4.1C34.9,4.2,37.1,3.7,39.5,3.7z
		 M63.4,4c2.1,0,3.9,0.6,5.2,1.7c1.4,1.2,2,2.7,2,4.5c0,1.3-0.3,2.4-1,3.3s-1.7,1.7-3,2.2c0.7,0.4,1.4,0.9,1.9,1.6
		c0.6,0.7,1.3,1.8,2.1,3.3c1.4,2.7,2.4,4.6,3.1,5.6h-4.9c-0.3-0.5-0.8-1.3-1.4-2.3c-1.3-2.4-2.2-4-2.8-4.8s-1.2-1.4-1.7-1.8
		c-0.5-0.3-1.2-0.5-1.9-0.5h-1.6v9.4H55V4H63.4z M62.4,13.5c1.2,0,2.1-0.3,2.7-0.8c0.7-0.6,1-1.3,1-2.3s-0.3-1.8-1-2.3
		s-1.6-0.8-2.8-0.8h-2.7v6.2C59.6,13.5,62.4,13.5,62.4,13.5z M84.6,4v22.3h-4.4V4H84.6z M99.7,3.7c2.2,0,4.4,0.5,6.4,1.6v3.8
		c-2.4-1.4-4.5-2.1-6.3-2.1c-1.1,0-2,0.2-2.6,0.6c-0.6,0.4-0.9,1-0.9,1.7c0,0.8,0.6,1.6,1.7,2.3c0.3,0.2,1.6,0.8,3.8,1.8
		c1.9,0.9,3.2,1.8,4.1,2.9c0.8,1.1,1.2,2.3,1.2,3.8c0,1.9-0.7,3.5-2.1,4.6c-1.4,1.2-3.2,1.8-5.5,1.8c-1.5,0-2.7-0.2-3.8-0.5
		s-2.2-0.9-3.5-1.6v-4.2c2.4,2,4.7,3,6.9,3c1.1,0,1.9-0.2,2.6-0.7s1-1.1,1-1.8c0-1-0.6-1.9-1.7-2.5c-1-0.5-2.2-1.1-3.7-1.8
		c-1.8-0.8-3.1-1.7-4-2.8S92,11.3,92,9.9c0-1.9,0.7-3.4,2.1-4.5S97.3,3.7,99.7,3.7z M132.6,4v3.4h-8.1v18.9H120v-19h-8.1V4H132.6z
		 M143.8,4v22.3h-4.4V4H143.8z M156.1,4l13.6,15.6V4h4.3v22.3h-3.8l-13.6-15.8v15.8h-4.3V4H156.1z M193.9,4L204,26.3h-4.7l-2.4-5.4
		h-10.1l-2.2,5.4H180L189.4,4H193.9z M188.2,17.6h7.4l-3.9-8.8L188.2,17.6z"/>
	<path class="st1" d="M212.3,4l6.5,14.3L225.1,4h4.6l-10.1,22.6h-1.5L207.7,4H212.3z M240.2,4v22.3h-4.4V4H240.2z M253.1,4v18.9
		h11.1v3.4h-15.5V4H253.1z M275,4v18.9h11.1v3.4h-15.5V4H275z M307.2,4v3.4h-10.3v5.9h9.9v3.4h-9.9V23h10.6v3.4h-15V4H307.2L307.2,4
		z M326.9,3.7c2.8,0,5.6,0.6,8.4,1.8v3.9c-2.8-1.4-5.5-2.1-8.2-2.1c-1.7,0-3.1,0.3-4.4,1c-1.3,0.6-2.3,1.6-3,2.8s-1.1,2.6-1.1,4.1
		c0,2.3,0.8,4.1,2.3,5.5s3.6,2.1,6.1,2.1c0.7,0,1.4-0.1,2-0.2s1.4-0.3,2.3-0.7v-3.7h-3.8v-3.4h8.2V24c-1.1,0.8-2.5,1.4-4,1.8
		c-1.6,0.4-3.2,0.6-4.9,0.6c-2.4,0-4.6-0.5-6.5-1.5c-2-1-3.5-2.3-4.6-4.1s-1.6-3.7-1.6-5.8c0-2.2,0.6-4.2,1.7-5.9
		c1.1-1.8,2.6-3.1,4.6-4.1C322.2,4.2,324.4,3.7,326.9,3.7z M355.3,4l10.1,22.3h-4.7l-2.4-5.4h-10.1l-2.2,5.4h-4.6L350.8,4H355.3z
		 M349.6,17.6h7.4l-3.9-8.8L349.6,17.6z M378.1,3.7c2.2,0,4.4,0.5,6.4,1.6v3.8C382.1,7.7,380,7,378.2,7c-1.1,0-2,0.2-2.6,0.6
		s-0.9,1-0.9,1.7c0,0.8,0.6,1.6,1.7,2.3c0.3,0.2,1.6,0.8,3.8,1.8c1.9,0.9,3.2,1.8,4.1,2.9c0.8,1.1,1.2,2.3,1.2,3.8
		c0,1.9-0.7,3.5-2.1,4.6c-1.4,1.2-3.2,1.8-5.5,1.8c-1.5,0-2.7-0.2-3.8-0.5s-2.2-0.9-3.5-1.6v-4.2c2.4,2,4.7,3,6.9,3
		c1.1,0,1.9-0.2,2.6-0.7s1-1.1,1-1.8c0-1-0.6-1.9-1.7-2.5c-1-0.5-2.2-1.1-3.7-1.8c-1.8-0.8-3.1-1.7-4-2.8s-1.3-2.3-1.3-3.7
		c0-1.9,0.7-3.4,2.1-4.5S375.7,3.7,378.1,3.7L378.1,3.7z M9.6,31.5v-0.1c0.4,0,0.7,0,1.1-0.1c0.2,0,0.4-0.3,0.5-0.4
		c0-0.2-0.1-0.5-0.3-0.6c-0.4-0.2-0.7-0.4-1.1-0.5c-1.7-0.5-3.5-1-5.2-1.5c-0.6-0.2-0.7-0.5-0.3-1c0.5-0.5,1-0.9,1.5-1.4
		c0.8-0.7,1.7-1.4,2.5-2.2c0.2-0.2,0.4-0.7,0.3-0.9c-0.3-0.7-0.7-1.4-1-2.1c-0.1-0.2-0.3-0.5-0.4-0.7c-0.7-2.4-0.5-4.9,0-7.3
		c0.2-0.9,0.4-1.9,0.9-2.7c0.6-0.8,0.3-1.4-0.5-2C6.4,7.1,5.3,6.4,4.3,5.5c-0.8-0.6-0.7-1,0.1-1.4l4.2-1.8C9,2.2,9.4,2,9.8,1.8
		c0.5-0.3,0.5-0.7,0.3-1.2c-0.1-0.5-0.5-0.7-1-0.5c-0.4,0.1-0.7,0.3-1,0.4C7.4,0.8,6.8,1.2,6.2,1.3C4.5,1.7,2.7,2.1,1,2.4
		C0.2,2.6-0.1,3.4,0.4,4c0.4,0.5,0.8,0.8,1.3,1.2C3,6.3,4.3,7.3,5.6,8.4c0.7,0.6,0.7,1,0.3,1.9c-0.2,0.3-0.3,0.7-0.5,1
		c-0.8,2.3-0.6,4.7-0.6,7c0,1.4,0.5,2.6,1.2,3.8c0.3,0.5,0.3,0.9-0.2,1.2c-1.8,1.4-3.6,2.9-5.4,4.3c-0.4,0.3-0.5,0.8-0.1,1.1
		c0.4,0.4,1,0.8,1.5,1c1,0.3,2,0.6,3.1,0.8C6.4,30.9,8,31.2,9.6,31.5z M14.7,9.7V9.5c0.2,0,0.3-0.1,0.5-0.1h3.2
		c0.3,0,0.5-0.2,0.8-0.3c-0.1-0.2-0.2-0.5-0.4-0.7C17.6,7.2,15,7.1,13.6,8c-0.1,0-0.3,0.1-0.4,0c-0.1-0.1-0.3-0.4-0.2-0.5
		c0.3-0.4,0.5-0.9,0.9-1.1c1.4-0.8,2.8-1,4.4-0.8c0.3,0,0.7,0.1,1,0c0.2-0.1,0.4-0.3,0.6-0.4c-0.2-0.2-0.4-0.4-0.6-0.5
		c-0.5-0.1-1.1,0-1.6-0.1C16,4.3,14.4,4.9,13,5.7c-1.6,0.8-1.7,3-0.1,4c1.2,0.8,2.6,1.4,4,1.7l2.1,0.3c0.2,0,0.4-0.3,0.6-0.4
		c-0.2-0.1-0.4-0.3-0.6-0.4c-0.8-0.2-1.6-0.3-2.4-0.5C15.9,10.1,15.3,9.9,14.7,9.7z M17.1,25.2c-1.5-0.3-2.8-0.5-4-0.8
		c-0.2-0.1-0.5-0.4-0.5-0.7c-0.3-1.9,0.8-3.3,2.7-3.6c0.8-0.1,1.7-0.2,2.5-0.3c0.2,0,0.4-0.4,0.6-0.6c-0.2-0.1-0.4-0.4-0.6-0.4
		c-1,0-1.9,0.1-2.9,0.3c-0.6,0.1-1.2,0.3-1.7,0.6c-1.5,0.9-1.8,2.5-1.8,4.1c0,0.6,0.2,1,0.7,1.3c1.6,1,3.4,1.1,5.3,1
		c0.8,0,1.5-0.2,2.3-0.5c0.2-0.1,0.3-0.5,0.5-0.8c-0.3,0-0.6-0.2-0.9-0.1C18.5,24.9,17.7,25.1,17.1,25.2z M17,21.6l-2.1,0.3
		c-0.3,0.1-0.5,0.3-0.8,0.5c0.2,0.3,0.3,0.7,0.6,0.8c1.1,0.6,2.3,0.7,3.5,0.3c0.2-0.1,0.4-0.2,0.6-0.4c0.5-0.5,0.4-1.1-0.3-1.3
		C18,21.7,17.5,21.7,17,21.6z"/>
</g>
</svg>
