<svg xmlns="http://www.w3.org/2000/svg" viewBox="0 0 999.8 564"><style>.st184{fill:#f4f0e9}</style><g id="Layer_4"><g id="file_3_"><path d="M64.5 8.8h899.6c3.1 11.3 10.4 12.1 10.4 12.1 4.7.6 8.3 1.5 11 2.4 4.8 1.7 8 5.8 8.2 10.3l6.3 149.3c-3.9 9.4-12.5 8.6-17.6 12.6-9.3 7.4-8 16.3-8 16.3l.2 313.5c0 15-14.1 27.2-31.5 27.2l-901.8 2.7C20.6 555.2 4 540.9 4 523.3V208s0-10 15.2-11c1.9-.1 3.6-.7 5.2-1.5 4.5-2.3 7-6.6 7.1-11l3.6-150.3s-.9-11 20.2-14.2c8.7-1.3 9.2-11.2 9.2-11.2z" opacity=".25" fill="#10232d"/><g id="folder_1_"><path d="M60.6 4.8h900.7c3.1 11.3 10.4 12.2 10.4 12.2 4.7.6 8.3 1.5 11 2.4 4.8 1.7 8 5.8 8.2 10.3l6.3 149.5c-3.9 9.4-12.6 8.6-17.7 12.6-9.4 7.4-8 16.3-8 16.3l.2 313.9c0 15-14.1 27.2-31.6 27.2l-903 2.7c-20.4 0-37.1-14.3-37.1-32V204.3s0-10 15.2-11c1.9-.1 3.7-.7 5.2-1.5 4.5-2.3 7-6.6 7.1-11.1l3.6-150.5s-.9-11 20.2-14.2c8.8-1.2 9.3-11.2 9.3-11.2z" fill="#e5d7b5"/><path fill="none" stroke="#cabb9a" stroke-miterlimit="10" d="M501.3 550.5V4.8"/><path d="M495.8 550.5l-458.6 1.3C16.7 551.9 0 537.6 0 519.9V204.3s0-10 15.2-11c1.9-.1 3.7-.7 5.2-1.5 4.5-2.3 7-6.6 7.1-11.1l3.6-150.5s-.9-11 20.2-14.2c8.8-1.3 9.3-11.3 9.3-11.3h435.2v545.8z" fill="#e2d1ac"/></g><g id="papers_3_"><path id="bottom_3_" transform="rotate(2.563 718.938 282.903)" class="st184" d="M533.7 9.9h370.5V556H533.7z"/><g id="top_3_"><path opacity=".1" fill="#10232d" d="M532.1 4.2h370.5v546.1H532.1z"/><path class="st184" d="M527.6.2h370.5v546.1H527.6z"/></g></g></g></g></svg>