<svg id="iphone" xmlns="http://www.w3.org/2000/svg" xmlns:xlink="http://www.w3.org/1999/xlink" x="0px" y="0px"
	 viewBox="0 0 448.9 599.8" width="40%" alt="Phone and business card">
<style type="text/css">
	.st0{opacity:0.35;fill:#10232D;enable-background:new    ;}
	.st1{fill:#161F23;}
	.st2{opacity:0.76;}
	.st3{fill:#EFECD0;}
	.st4{fill:#5EA5A2;}
	.st5{fill:#10232D;}
	.st6{fill:#FFFFFF;}
	.st7{fill:#22302F;}
	.st8{fill:#B9B9BA;}
	.st9{fill:#191C1F;}
	.st10{opacity:0.25;fill:#5EA3A0;enable-background:new    ;}
	.st11{fill:#29828A;}
	.st12{fill:#FFF9DD;}
	.st13{fill:#3A5251;}
</style>
<path class="st0" d="M159.5,450.7L411.9,388L449,537.2l-252.4,62.7L159.5,450.7z"/>
<path class="st1" d="M154.4,447.9l252.4-62.7l37.1,149.2L191.4,597L154.4,447.9z"/>
<g id="owl_1_" class="st2">
	<path class="st3" d="M323.1,452.2c-0.4-0.7-0.9-1.3-1.4-1.9c-0.9-1.2-2-2.2-2.7-3.5c-1.8-3.4-3.3-6.8-5-10.2
		c-0.8-1.6-2.5-1.8-3.6-0.5c-0.8,1-1.3,2.2-1.9,3.3c-1.6,3.3-3.1,6.6-4.7,9.8c-0.9,1.8-1.7,2-3.8,1.6c-0.8-0.2-1.6-0.4-2.4-0.4
		c-5.2-0.5-10,1.2-14.9,2.3c-2.9,0.6-5.2,2.4-7.3,4.4c-0.8,0.8-1.6,1.1-2.7,0.3c-3.9-3-7.9-6-11.8-9c-0.9-0.7-1.9-0.7-2.5,0.3
		c-0.6,1.1-1.1,2.4-1.2,3.6c-0.2,2.3-0.2,4.5-0.1,6.8c0.2,3.5,0.4,6.9,0.7,10.4h0.3c0.2,0.7,0.4,1.5,0.7,2.2
		c0.2,0.3,0.6,0.6,0.9,0.7c0.3-4.9,0.5-9.6-0.9-14.4c-0.1-0.5-0.1-1,0-1.5c-0.1-0.9,0.1-1.7,0.2-2.6v-0.2c0-0.3,0.1-0.5,0.3-0.7
		v-0.1c0-0.4,0.1-0.6,0.4-0.8c0.2-0.3,0.5-0.6,0.9-0.5c0.2,0,0.4,0,0.5,0.1c2.2,1.2,4.1,2.7,5.7,4.5c2,1.8,4.2,4.3,6.5,4.6
		c0.3,0,0.6,0.1,0.8,0.2c0.2,0,0.5-0.1,0.7-0.1c0.1-0.1,0.3-0.1,0.4-0.2c1.9-1.2,3.6-3.3,5.6-4.2c0.4-0.2,0.8-0.3,1.2-0.3
		c0.3-0.2,0.6-0.3,0.8-0.5c0.6-0.4,1.2-0.6,1.8-0.9c2-0.8,4.3-1.3,6.4-1.5c4.1-0.5,9.1,1,13.2-0.2c0.1-0.2,0.2-0.4,0.4-0.5
		c0.5-0.3,1-0.6,1.3-1c0.9-2.3,1.8-4.6,2.8-6.8c0-0.1,0.1-0.1,0.1-0.2c0.2-0.7,0.5-1.3,0.9-1.9c0.2-0.8,0.4-1.5,0.7-2.2
		c0.4-1,2-0.7,1.9,0.2c0.1,0.1,0.3,0.2,0.4,0.3c1.6,2.3,2.1,5,3.1,7.6c0.4,0.6,0.8,1.1,1.1,1.7c1.3,1.7,2.5,4,4.3,4.7
		c0.3-0.1,0.6-0.3,0.8-0.5C323.5,454,323.7,453.1,323.1,452.2L323.1,452.2z M262.6,503.3c-0.8-4.4-1.5-7.7-2.1-11V492
		c0-1.2,0-2.6,1.6-2.6c1.4,0,1.1,1.5,1.2,2.4c0.3,9.3,2.9,17.9,6.9,26.2c1.7,3.6,3.3,7.2,5.2,10.6c1.4,2.5,3.2,4.6,4.9,6.9
		c0.7,1,1.7,1.9,0.7,3.2c-0.6,0.7-1.8,0-2.8-1.5c-2.8-4.2-5.8-8.2-8.2-12.5c-1.5-2.7-2.2-5.9-3.3-9
		C265.2,511.2,263.8,506.7,262.6,503.3z M306,468.7c-0.1,1.4-0.4,2.9-0.4,4.3c0,1.8,0.2,3.5,0.2,5.3c0,0.5-0.3,0.9-0.5,1.4
		c-0.4-0.3-1-0.6-1.1-1c-0.3-1.5-0.5-3.1-0.6-4.6c-0.1-3.2,0.3-6.2,1.4-9.2c1.3-3.8,5.9-4.7,8.4-1.8c2.3,2.7,4.4,5.6,4.7,9.3
		c0.1,1.1,0.6,2.3,0.7,3.4c0,0.5-0.4,1-0.7,1.5c-0.4-0.3-1-0.6-1.2-1.1c-0.3-0.6-0.4-1.3-0.5-2c-0.5-3.3-1.6-6.3-3.9-8.7
		c-0.7-0.7-1.9-1-2.9-1.3c-0.2-0.1-0.8,0.4-1,0.7c-0.1,0.2,0.3,0.7,0.5,0.9c2.7,2.4,3.7,8,1.9,11c-0.3,0.5-0.9,0.8-1.3,1.1
		c-0.3-0.5-0.9-0.9-1-1.5c-0.6-2.2-1.1-4.5-1.7-6.8c-0.1-0.4-0.4-0.7-0.6-1C306.3,468.7,306.1,468.7,306,468.7L306,468.7z
		 M338.3,491.7c1.5,4.6,2.2,9.2,2.3,14c0,4.6,0.3,9.3,0.5,13.9c0,0.4,0,0.8-0.1,1c-0.2,0.4-0.6,0.6-0.9,0.9
		c-0.3-0.3-0.6-0.5-0.8-0.8c-0.2-0.3-0.1-0.7-0.1-1c-0.2-5.9-0.1-11.9-0.6-17.7c-0.3-3.3-1.1-6.6-2.1-9.8c-1.6-5.4-3.5-10.7-5.4-16
		c-0.8-2.3-2.1-4.4-3.2-6.5c-0.1-0.3-0.4-0.5-0.4-0.8c0-0.5,0.1-1,0.1-1.5c0.5,0.2,1.2,0.2,1.5,0.6c1,1.5,2,3,2.6,4.6
		c2.4,6.3,4.7,12.6,7.1,18.9C338.5,491.6,338.4,491.6,338.3,491.7L338.3,491.7z M274.8,482c0.6,1.1,1.4,2.7,2,4.3
		c0.2,0.5,0.1,1.2,0.2,1.9c-0.7-0.2-1.6-0.2-1.9-0.6c-0.9-1.4-1.7-2.9-2.2-4.5c-1.2-3.7-2-7.5-0.7-11.5c0.4-1.2,1.1-1.9,2.4-2.2
		c3.4-0.7,6.7-1,9.4,1.7c0.9,0.9,1.7,2,2.2,3.2c0.8,1.9,1.5,3.9,2,5.9c0.1,0.4-0.3,1-0.5,1.5c-0.5-0.3-1.3-0.5-1.5-0.9
		c-0.7-1.7-1.2-3.4-1.9-5.1c-1.6-3.8-5.2-5.3-9-3.7c-0.5,0.2-1.2,1-1.2,1.5C274.4,476,274.6,478.7,274.8,482z M315.3,496.1
		c0.1-0.3,0.2-0.7,0.3-1c0.4,0.1,1,0.1,1.2,0.4c0.9,1.3,1.7,2.8,2.6,4.1c0.4,0.5,1,1.3,1.4,1.3c0.5,0,1.1-0.8,1.4-1.3
		c0.9-1.7,1.6-3.6,2.5-5.3c0.2-0.4,0.7-0.6,1.1-0.9c0.2,0.4,0.5,0.8,0.6,1.2c0,0.5-0.2,1.1-0.4,1.6c-1,2.1-2,4.2-3.1,6.3
		c-0.3,0.5-0.7,1-1.1,1.4c-1,1-2,0.9-2.6-0.3C317.8,501.1,316.6,498.6,315.3,496.1z"/>
	<path class="st3" d="M282.2,479.7c0.1,1.1,0.3,2.1,0.2,3.2c0,1.6-1.3,2.2-2.6,1.4c-0.4-0.3-0.8-0.6-1.1-1c-1.5-2.3-1.9-4.9-1.2-7.5
		c0.2-0.6,0.9-1.1,1.4-1.6c0.5,0.5,1.2,0.9,1.5,1.4C281.1,476.9,281.6,478.3,282.2,479.7L282.2,479.7z"/>
	<path class="st4" d="M300,499c-0.6-0.4-1.2-0.5-1.4-0.9c-1.3-2.3-2.6-4.6-3.8-6.9c-0.1-0.3-0.3-0.6-0.3-0.8c0-0.3,0.1-0.6,0.2-1
		c0.3,0.1,0.8,0.1,0.9,0.3c0.9,1.3,1.8,2.6,2.7,4c0.4,0.6,0.9,1,1.3,1.6c0.5-0.5,1.2-0.8,1.4-1.4c0.8-1.8,1.4-3.8,2.1-5.7
		c0.1-0.4,0.3-0.8,0.5-1.1c0.2-0.2,0.7-0.3,1-0.4c0.1,0.4,0.4,0.8,0.3,1c-1.1,3.1-2.1,6.1-3.3,9.1C301.4,497.6,300.7,498.2,300,499
		L300,499z"/>
	<path class="st3" d="M301,513.1c0.7,0.6,1.4,1,1.9,1.5c0.5,0.7,0.9,1.4,1.3,2.2c0.8,1.5,1.5,1.5,2.5,0.2c0.6-0.8,1.1-1.6,1.7-2.3
		c0.3-0.4,0.8-0.8,1.3-1c0.4-0.1,0.9,0.1,1.3,0.1c-0.1,0.5,0.1,1.3-0.2,1.5c-2.1,1.5-3.1,3.8-4.4,5.9c-0.8,1.4-2,1.4-2.6,0.1
		c-1.1-2.4-2.1-4.9-3.1-7.4C300.7,513.8,300.8,513.7,301,513.1z M277.3,512.6c0.5,0.4,1,0.7,1.4,1.1c1,1.2,1.8,2.4,2.8,3.6
		c0.4,0.5,1,1,1.6,1.4c1.2,0.8,2.2,0.2,2.3-1.2c0.1-1.8,0.2-3.6,0.3-5.5c0-0.4,0-0.8,0.2-1.2c0.1-0.3,0.5-0.5,0.8-0.5
		c0.1,0,0.4,0.4,0.5,0.6s0.1,0.5,0.1,0.7c-0.1,2.6-0.1,5.2-0.4,7.7c-0.1,0.9-0.7,2-1.4,2.4c-1.1,0.7-1.9-0.4-2.6-1.3
		c-1.9-2.3-3.8-4.6-5.6-7c-0.2-0.2-0.2-0.5-0.3-0.8C277,512.9,277.2,512.8,277.3,512.6L277.3,512.6z M327.2,525.6
		c0.1-0.4,0.3-0.9,0.5-1.4c0.4,0.4,0.8,0.6,1.1,1.1c0.5,0.7,0.7,1.6,1.2,2.3c0.3,0.4,0.8,1,1.1,1c0.4,0,0.9-0.6,1.1-1.1
		c0.4-0.8,0.6-1.7,1-2.5c0.2-0.3,0.7-0.5,1-0.8c0.2,0.4,0.7,0.9,0.6,1.2c-0.8,2.3-1.7,4.6-2.7,6.7c-0.4,0.9-1.4,0.8-1.9-0.1
		C329.2,530,328.3,527.9,327.2,525.6L327.2,525.6z M301.8,543.4c-0.6-0.3-1.2-0.4-1.6-0.8c-1.5-1.5-3-3-4.4-4.6
		c-0.3-0.3-0.2-0.9-0.3-1.3c0.4,0.1,1,0.1,1.3,0.4c0.8,0.6,1.5,1.4,2.2,2.1c1.5,1.4,2.2,1.2,3-0.7c0.2-0.6,0.5-1.2,0.9-1.7
		c0.2-0.2,0.7-0.3,0.9-0.2c0.2,0.1,0.5,0.6,0.4,0.9c-0.4,1.6-0.8,3.3-1.3,4.8C302.9,542.6,302.3,542.9,301.8,543.4L301.8,543.4z"/>
</g>
<path id="case_4_" class="st5" d="M269.7,18.9L78.9,0.2C61.4-1.6,45.8,10.9,44.1,27.9L41,59.4c-1.4,0.3-2.5,1.4-2.7,2.9l-1.9,17.6
	c-0.2,1.5,0.8,2.9,2.2,3.4l-2,20c-1.3,0.3-2.3,1.3-2.4,2.6l-3.4,31.7c-0.2,1.4,0.7,2.7,2,3.2l-0.6,5.7c-1.4,0.2-2.5,1.2-2.7,2.7
	l-3.4,31.7c-0.2,1.5,0.8,2.9,2.3,3.2L0.1,466.4c-1.7,17.5,11.5,33.1,29.4,34.8l10.9,1.1l1.9-1l8.8,0.8l1.7,1.4l57.1,5.6l2.8-1.4
	l23.6,2.4l2.8,1.9l82.2,8.1c18,1.8,34.1-11,35.7-28.6l31.1-323.8c0.1,0,0.2,0.1,0.4,0.1c1.7,0.2,3.2-1,3.3-2.7l3.4-31.7
	c0.2-1.7-1-3.2-2.7-3.3h-0.8l7.3-76.5C300.8,36.2,287.6,20.6,269.7,18.9L269.7,18.9z"/>
<path id="phone_2_" class="st6" d="M217.8,514.4l-182.2-18c-17.1-1.7-29.6-16.9-27.9-34L50.5,34C52.1,17.3,67,5.1,83.6,6.8
	l181.3,17.8c17.1,1.7,29.5,16.9,27.9,33.9l-41,427.9C250.2,503.6,235,516.1,217.8,514.4L217.8,514.4z"/>
<circle class="st7" cx="131.9" cy="35.4" r="3.8"/>
<circle class="st7" cx="174.7" cy="25.1" r="2.8"/>
<path class="st7" d="M152.5,35.6l40,3.8l-0.4,3.8l-40-3.8L152.5,35.6z"/>
<path id="home_2_" class="st8" d="M128.7,462.2c1,0,1.9,0.1,2.9,0.2c4.8,0.8,9,3.3,11.8,7.3s4,8.7,3.2,13.5
	c-1.4,8.8-8.9,15.2-17.8,15.2c-1,0-1.9-0.1-2.9-0.2c-4.8-0.8-9-3.3-11.8-7.3s-4-8.7-3.2-13.5C112.3,468.6,119.8,462.2,128.7,462.2
	 M128.7,461.2c-9.2,0-17.3,6.7-18.8,16.1c-1.7,10.4,5.4,20.2,15.8,21.9c1,0.2,2,0.2,3,0.2c9.2,0,17.3-6.7,18.8-16.1
	c1.7-10.4-5.4-20.2-15.8-21.9C130.7,461.3,129.7,461.2,128.7,461.2z"/>
<path id="iphoneoff" class="st9" d="M245,461.3L17.8,438.5L55.6,59.2l226.8,22.7L245,461.3z"/>
<path id="iphoneoff_1_" class="st9" d="M245,461.3L17.8,438.5L55.6,59.2l226.8,22.7L245,461.3z"/>
<g id="iphoneon">
	<path class="st10" d="M245,461.1L17.9,438.3L55.6,59.2l226.8,22.7L245,461.1z"/>
	<g id="instagram">
		<path class="st5" d="M90.3,409.5l-1.9-0.2l1.4-14.5l1.9,0.2L90.3,409.5z M97.3,399.3l-0.1,1.4c0.9-1,2-1.4,3.4-1.2
			c2.3,0.2,3.3,1.6,3.1,4.2l-0.7,7.1l-1.8-0.2l0.7-7.1c0.1-0.8-0.1-1.4-0.4-1.8s-0.8-0.6-1.6-0.7c-0.6-0.1-1.1,0-1.6,0.3
			s-0.9,0.7-1.2,1.1l-0.8,7.7l-1.8-0.2l1.1-10.8C95.6,399.1,97.3,399.3,97.3,399.3z M113.3,408.8c0-0.5-0.1-0.9-0.4-1.2
			c-0.3-0.3-1-0.6-1.9-0.9s-1.6-0.6-2.1-0.9s-0.9-0.7-1.1-1.1s-0.3-0.9-0.3-1.4c0.1-0.9,0.5-1.6,1.3-2.1s1.8-0.7,2.9-0.6
			c1.2,0.1,2.2,0.5,2.9,1.2c0.7,0.7,1,1.5,0.9,2.5l-1.9-0.2c0-0.5-0.1-1-0.5-1.4s-0.9-0.6-1.6-0.7s-1.2,0-1.6,0.3s-0.6,0.6-0.7,1.1
			c0,0.4,0.1,0.8,0.4,1.1c0.3,0.3,0.9,0.5,1.8,0.8s1.6,0.6,2.2,1c0.5,0.3,0.9,0.7,1.2,1.2c0.2,0.4,0.3,0.9,0.3,1.5
			c-0.1,1-0.6,1.7-1.4,2.2s-1.9,0.7-3.1,0.6c-0.9-0.1-1.6-0.3-2.2-0.7c-0.6-0.4-1.1-0.8-1.4-1.4s-0.5-1.2-0.4-1.8l1.8,0.2
			c0,0.6,0.2,1.1,0.6,1.5s1,0.6,1.8,0.7c0.7,0.1,1.3,0,1.7-0.3C113,409.7,113.3,409.3,113.3,408.8L113.3,408.8z M122.1,399.1
			l-0.3,2.6l2,0.2l-0.1,1.4l-2-0.2l-0.7,6.7c0,0.4,0,0.8,0.2,1s0.5,0.4,0.9,0.4h0.9l-0.1,1.5c-0.5,0.1-1,0.1-1.4,0.1
			c-0.8-0.1-1.4-0.4-1.8-0.9s-0.5-1.3-0.4-2.2l0.7-6.7l-2-0.2l0.1-1.4l2,0.2l0.3-2.6C120.4,399,122.1,399.1,122.1,399.1z
			 M132.6,413.6c-0.1-0.2-0.1-0.6-0.1-1.2c-0.9,0.8-2,1.1-3.2,1c-1.1-0.1-1.9-0.5-2.5-1.2s-0.9-1.5-0.8-2.4c0.1-1.1,0.6-1.9,1.5-2.5
			c0.9-0.5,2.1-0.7,3.7-0.6l1.8,0.2l0.1-0.8c0.1-0.6-0.1-1.2-0.4-1.6c-0.3-0.4-0.9-0.7-1.6-0.7c-0.7-0.1-1.2,0-1.7,0.3
			s-0.7,0.7-0.8,1.1l-1.8-0.2c0.1-0.5,0.3-1,0.7-1.5c0.4-0.5,1-0.8,1.7-1s1.4-0.3,2.2-0.2c1.2,0.1,2.2,0.5,2.8,1.2s0.9,1.6,0.8,2.7
			l-0.5,5c-0.1,1,0,1.8,0.1,2.4v0.2L132.6,413.6L132.6,413.6z M129.7,411.9c0.6,0.1,1.1,0,1.7-0.3c0.5-0.2,1-0.6,1.2-1.1l0.2-2.2
			l-1.4-0.1c-2.3-0.2-3.4,0.3-3.6,1.6c-0.1,0.6,0.1,1,0.4,1.4C128.6,411.6,129.1,411.9,129.7,411.9z M138.1,408.6
			c0.2-1.7,0.7-3,1.6-3.9c0.9-0.9,1.9-1.3,3.2-1.2c1.3,0.1,2.3,0.7,2.9,1.7l0.2-1.2l1.7,0.2l-1,10.5c-0.1,1.4-0.7,2.4-1.6,3.2
			c-0.9,0.7-2.1,1-3.4,0.9c-0.8-0.1-1.5-0.3-2.2-0.7c-0.7-0.4-1.2-0.9-1.6-1.5l1.1-1c0.7,1.1,1.6,1.6,2.8,1.7
			c0.9,0.1,1.6-0.1,2.2-0.6c0.6-0.5,0.9-1.1,1-2.1l0.1-0.9c-0.8,0.8-1.9,1.1-3.1,1c-1.3-0.1-2.2-0.7-2.9-1.8
			C138.2,411.8,138,410.4,138.1,408.6L138.1,408.6z M140,409c-0.1,1.2,0,2.2,0.5,2.9c0.4,0.7,1.1,1.2,2,1.2c1.2,0.1,2.1-0.3,2.7-1.3
			l0.5-4.9c-0.5-1.1-1.3-1.7-2.4-1.8c-0.9-0.1-1.6,0.2-2.2,0.8C140.5,406.7,140.1,407.7,140,409L140,409z M156.6,406.8
			c-0.3-0.1-0.6-0.1-0.9-0.2c-1.2-0.1-2.1,0.3-2.6,1.3l-0.7,7.6l-1.8-0.2l1.1-10.8l1.8,0.2l-0.1,1.2c0.7-0.9,1.6-1.3,2.7-1.2
			c0.4,0,0.6,0.1,0.8,0.2L156.6,406.8z M164.6,416.8c-0.1-0.2-0.1-0.6-0.1-1.2c-0.9,0.8-2,1.1-3.2,1c-1.1-0.1-1.9-0.5-2.5-1.2
			s-0.9-1.5-0.8-2.4c0.1-1.1,0.6-1.9,1.5-2.5c0.9-0.5,2.1-0.7,3.7-0.6l1.8,0.2l0.1-0.8c0.1-0.6-0.1-1.2-0.4-1.6
			c-0.3-0.4-0.9-0.7-1.6-0.7c-0.7-0.1-1.2,0-1.7,0.3s-0.7,0.7-0.8,1.1l-1.8-0.2c0.1-0.5,0.3-1,0.7-1.5s1-0.8,1.7-1s1.4-0.3,2.2-0.2
			c1.2,0.1,2.2,0.5,2.8,1.2s0.9,1.6,0.8,2.7l-0.5,5c-0.1,1,0,1.8,0.1,2.4v0.2L164.6,416.8L164.6,416.8z M161.7,415.1
			c0.6,0.1,1.1,0,1.7-0.3c0.5-0.2,1-0.6,1.2-1.1l0.2-2.2l-1.4-0.1c-2.3-0.2-3.4,0.3-3.6,1.6c-0.1,0.6,0.1,1,0.4,1.4
			C160.7,414.8,161.1,415,161.7,415.1L161.7,415.1z M172.9,406.7l-0.1,1.2c0.9-0.9,2-1.2,3.3-1.1c1.5,0.1,2.5,0.8,2.9,2
			c0.4-0.5,0.9-0.9,1.5-1.1c0.6-0.3,1.3-0.4,2.1-0.3c2.4,0.2,3.4,1.6,3.2,4.1l-0.7,7.2l-1.8-0.2l0.7-7.1c0.1-0.8,0-1.4-0.4-1.8
			c-0.3-0.4-0.9-0.7-1.7-0.7c-0.7-0.1-1.3,0.1-1.8,0.4c-0.5,0.4-0.8,0.9-0.9,1.6l-0.7,7.1l-1.9-0.2l0.7-7.1c0.2-1.6-0.5-2.4-2.1-2.6
			c-1.2-0.1-2.1,0.3-2.6,1.3l-0.8,7.9l-1.8-0.2l1.1-10.8L172.9,406.7L172.9,406.7z"/>
		<path class="st11" d="M167.3,387.4L113,382c-11-1.1-19-10.8-17.9-21.8l5.3-54.4c1.1-11,10.8-19,21.8-17.9l54.3,5.3
			c11,1.1,19,10.8,17.9,21.8l-5.3,54.4C188,380.4,178.3,388.4,167.3,387.4L167.3,387.4z"/>
		<path class="st12" d="M144.8,325.6c0.4,0,0.8,0,1.2,0.1c6.6,0.6,11.4,6.5,10.8,13.1c-0.6,6.2-5.7,10.8-11.9,10.8
			c-0.4,0-0.8,0-1.2-0.1c-6.6-0.6-11.4-6.5-10.8-13.1C133.4,330.3,138.6,325.6,144.8,325.6 M144.8,319.6c-9.2,0-17,7-17.9,16.3
			c-1,9.9,6.3,18.7,16.2,19.7c0.6,0.1,1.2,0.1,1.8,0.1c9.2,0,17-7,17.9-16.3c1-9.9-6.3-18.7-16.2-19.7
			C145.9,319.6,145.3,319.6,144.8,319.6z"/>
		<path class="st12" d="M162.8,374.3c-0.5,0-1,0-1.5-0.1l0,0l-38-3.8c-9.3-0.9-16.1-9.3-15.2-18.5l3.7-38.1
			c0.5-4.5,2.6-8.6,6.1-11.5c3.5-2.9,7.9-4.2,12.4-3.8l38,3.7c4.5,0.5,8.6,2.6,11.5,6.1c2.9,3.5,4.2,7.9,3.8,12.4l-3.7,38.1
			C178.9,367.7,171.4,374.3,162.8,374.3z M161.8,368.2c6,0.5,11.4-3.9,12-9.9l3.7-38.1c0.3-2.9-0.6-5.8-2.4-8
			c-1.9-2.3-4.5-3.7-7.4-4l-38-3.7c-2.9-0.3-5.8,0.6-8,2.4c-2.3,1.9-3.7,4.5-4,7.4l-3.7,38.1c-0.6,6,3.8,11.4,9.8,12L161.8,368.2z"
			/>
		<circle class="st12" cx="165.2" cy="320.9" r="4.2"/>
	</g>
	<g id="mail_1_">
		<path class="st11" d="M182.5,219.8l-54.3-5.3c-11-1.1-19-10.8-17.9-21.8l5.3-54.4c1.1-11,10.8-19,21.8-17.9l54.3,5.3
			c11,1.1,19,10.8,17.9,21.8l-5.3,54.4C203.2,212.8,193.5,220.9,182.5,219.8L182.5,219.8z"/>
		<path class="st12" d="M162,149c9,0.9,18,1.8,27,2.6c0.9,0.1,1.7,0.2,2.6,0.5c1,0.4,1,0.7,0.2,1.3l-0.3,0.3
			c-7.8,6.4-15.5,12.8-23.3,19.2c-1.1,0.9-2.2,1.7-3.3,2.5c-3.5,2.4-7.7,2-10.8-1c-0.9-0.9-1.8-1.9-2.6-2.9
			c-6.4-7.8-12.9-15.7-19.3-23.5c-0.3-0.3-0.9-0.7-0.6-1.2c0.2-0.5,0.9-0.4,1.4-0.5c0.8-0.1,1.5,0,2.3,0.1
			C144.1,147.2,153,148.1,162,149L162,149z"/>
		<path class="st12" d="M157.9,191.1c-9-0.9-18.1-1.8-27.1-2.7c-0.8-0.1-1.7-0.2-2.4-0.5c-1-0.4-1-0.7-0.2-1.4c1-0.8,2-1.6,2.9-2.4
			c5.3-4.4,10.6-8.7,15.9-13.1c0.8-0.7,1.3-0.7,2,0.2c1.1,1.4,2.3,2.8,3.5,4c3.9,4.1,9.4,4.7,14,1.4c1.5-1.1,2.9-2.2,4.4-3.4
			c0.6-0.5,1-0.6,1.6,0.1c5.2,6.4,10.4,12.7,15.6,19c0.7,0.9,0.6,1.2-0.6,1.4c-0.8,0.2-1.6,0.1-2.4,0
			C175.9,192.9,166.9,192,157.9,191.1z M129.9,148.3c0.1,0.2,0.3,0.3,0.5,0.5c5.2,6.4,10.5,12.7,15.7,19.1c0.5,0.6,0.5,1-0.2,1.6
			c-6.4,5.2-12.7,10.4-19,15.6c-0.9,0.7-1.2,0.6-1.4-0.5c-0.1-0.7-0.1-1.4,0-2.1c1-10.5,2.1-20.9,3.1-31.4c0.1-0.8,0.2-1.6,0.6-2.3
			C129.4,148.5,129.5,148.2,129.9,148.3L129.9,148.3z M192.7,173.3l-1.5,15.6c-0.1,0.8-0.2,1.7-0.6,2.4c-0.3,0.5-0.6,0.6-1,0.1
			c-0.2-0.2-0.3-0.4-0.5-0.6c-5.1-6.2-10.1-12.3-15.2-18.5c-0.9-1.1-0.9-1.1,0.2-2c6.2-5.1,12.5-10.2,18.7-15.3
			c1-0.8,1.2-0.7,1.4,0.5c0.1,0.8,0,1.6,0,2.4C193.7,163.1,193.2,168.2,192.7,173.3L192.7,173.3z"/>
		<path class="st5" d="M136.4,230.3l3.6,12.3l5.9-11.3l2.5,0.2L147,246l-1.9-0.2l0.6-5.6l0.8-6.1l-5.9,11.3l-1.5-0.1l-3.6-12.2
			l-0.4,6.1l-0.6,5.6l-1.9-0.2l1.4-14.5L136.4,230.3L136.4,230.3z M157.7,247c-0.1-0.2-0.1-0.6-0.1-1.2c-0.9,0.8-2,1.1-3.2,1
			c-1.1-0.1-1.9-0.5-2.5-1.2s-0.9-1.5-0.8-2.4c0.1-1.1,0.6-1.9,1.5-2.5c0.9-0.5,2.1-0.7,3.7-0.6l1.8,0.2l0.1-0.8
			c0.1-0.6-0.1-1.2-0.4-1.6c-0.3-0.4-0.9-0.7-1.6-0.7c-0.7-0.1-1.2,0-1.7,0.3s-0.7,0.7-0.8,1.1l-1.9-0.2c0.1-0.5,0.3-1,0.7-1.5
			s1-0.8,1.7-1s1.4-0.3,2.2-0.2c1.2,0.1,2.2,0.5,2.8,1.2s0.9,1.6,0.8,2.7l-0.5,5c-0.1,1,0,1.8,0.1,2.4v0.2L157.7,247L157.7,247z
			 M154.8,245.3c0.6,0.1,1.1,0,1.7-0.3c0.5-0.2,1-0.6,1.2-1.1l0.2-2.2l-1.4-0.1c-2.3-0.2-3.4,0.3-3.6,1.6c-0.1,0.6,0.1,1,0.4,1.4
			C153.7,245,154.1,245.3,154.8,245.3L154.8,245.3z M165.1,247.7l-1.8-0.2l1.1-10.8l1.8,0.2L165.1,247.7z M164.5,233.9
			c0-0.3,0.1-0.5,0.3-0.7s0.5-0.3,0.8-0.2c0.4,0,0.6,0.2,0.8,0.4s0.2,0.5,0.2,0.8s-0.1,0.5-0.4,0.7c-0.2,0.2-0.5,0.3-0.8,0.2
			c-0.4,0-0.6-0.2-0.8-0.4C164.5,234.5,164.4,234.2,164.5,233.9z M171.1,248.3l-1.8-0.2l1.5-15.3l1.8,0.2L171.1,248.3z"/>
	</g>
	<path class="st11" d="M257.2,300.5c-11-1.1-20.7,7-21.8,17.9l-5.3,54.4c-1.1,11,7,20.7,17.9,21.8l3.6,0.4l9.3-94.2L257.2,300.5
		L257.2,300.5z M53.2,113.9l-3-0.3l-9.4,94.2l3.1,0.3c11,1.1,20.7-7,21.8-17.9l5.3-54.4C72.2,124.8,64.2,115,53.2,113.9L53.2,113.9z
		 M45.1,362.4l5.3-54.4c1.1-10.8-6.7-20.4-17.4-21.7l-9.4,94.1C34.5,381.1,44,373.2,45.1,362.4z M256.1,146.3l-5.3,54.4
		c-1.1,10.9,6.9,20.7,17.8,21.8l9.3-94.2C266.9,127.3,257.2,135.3,256.1,146.3L256.1,146.3z"/>
	<path class="st13" d="M71.9,71.4c-0.2,1.7-0.3,3.5-0.5,5.2c0,0.3,0,0.3-0.4,0.3c-0.5,0-0.9-0.1-1.4-0.1c-0.3,0-0.3,0-0.2-0.3
		c0.1-1,0.2-2,0.3-2.9c0.3-2.5,0.5-5.1,0.8-7.6c0-0.3,0-0.3,0.4-0.3s0.9,0.1,1.3,0.1c0.3,0,0.3,0,0.3,0.3
		C72.3,67.8,72.1,69.6,71.9,71.4L71.9,71.4z M68.7,72.3c-0.1,1.3-0.3,2.7-0.4,4c0,0.3,0,0.3-0.3,0.2c-0.5,0-1-0.1-1.5-0.1
		c-0.2,0-0.2-0.1-0.2-0.3c0.3-2.7,0.6-5.4,0.8-8.1c0-0.2,0.1-0.2,0.3-0.2c0.5,0.1,1,0.1,1.6,0.2c0.2,0,0.2,0.1,0.2,0.3
		C69,69.6,68.8,70.9,68.7,72.3z M65.4,73.2c-0.1,0.9-0.2,1.9-0.3,2.8c0,0.3,0,0.3-0.3,0.3c-0.5,0-1-0.1-1.4-0.1
		c-0.2,0-0.2-0.1-0.2-0.3l0.6-5.7c0-0.2,0.1-0.2,0.3-0.2c0.5,0.1,1,0.1,1.5,0.1c0.2,0,0.3,0.1,0.2,0.3
		C65.6,71.3,65.5,72.3,65.4,73.2L65.4,73.2z M62.1,74c-0.1,0.6-0.1,1.2-0.2,1.7c0,0.2-0.1,0.2-0.3,0.2c-0.5-0.1-1-0.1-1.5-0.1
		c-0.2,0-0.2-0.1-0.2-0.3c0.1-1.2,0.2-2.3,0.3-3.5c0-0.2,0.1-0.2,0.3-0.2c0.5,0.1,1,0.1,1.5,0.1c0.2,0,0.2,0.1,0.2,0.3
		C62.2,72.8,62.2,73.4,62.1,74z M93.7,70.8c-0.4,0.2-0.7,0.5-1,0.8c-0.2,0.1-0.2,0.1-0.4,0c-1.7-1.7-3.7-2.6-6.1-2.6
		c-1.7,0-3.3,0.4-4.7,1.3c-0.2,0.1-0.3,0.1-0.5-0.1c-0.2-0.3-0.4-0.5-0.6-0.8c-0.2-0.2-0.1-0.3,0.1-0.4c3.9-2.5,8.5-2.4,12.1,0.8
		C93.1,70.1,93.4,70.4,93.7,70.8C93.7,70.7,93.7,70.8,93.7,70.8z"/>
	<path class="st13" d="M87.5,70.7c1.1,0.1,2.4,0.8,3.6,2c0.1,0.1,0.2,0.2,0,0.4c-0.3,0.2-0.6,0.5-0.9,0.8c-0.1,0.1-0.2,0.1-0.4,0
		c-1.7-1.7-4.4-2-6.4-0.7c-0.2,0.1-0.2,0.1-0.3-0.1c-0.2-0.3-0.4-0.6-0.7-0.9c-0.1-0.2-0.1-0.3,0.1-0.4
		C83.8,70.9,85.5,70.5,87.5,70.7z M86.6,74c0.8,0.1,1.4,0.4,2,0.9c0.2,0.1,0.2,0.2,0,0.4c-0.7,0.6-1.4,1.3-2.1,1.9
		c-0.2,0.2-0.3,0.2-0.4,0c-0.5-0.8-1.1-1.6-1.7-2.4c-0.1-0.2-0.1-0.2,0.1-0.3C85.1,74.1,85.8,73.9,86.6,74z M243,94.4h-0.3
		c-0.3-0.1-0.4-0.4-0.3-0.7v-0.1c0.1-1.3,0.3-2.7,0.4-4v-0.1c0,0,0-0.1-0.1,0c0,0-0.1,0-0.1,0.1c-0.8,0.6-1.6,1.3-2.3,1.9l-0.1,0.1
		c-0.3,0.2-0.6,0.1-0.7-0.2v-0.1V91l0.3-0.3c0.9-0.8,1.9-1.5,2.8-2.3c0.1-0.1,0.1-0.1,0-0.2c-0.8-0.9-1.6-1.8-2.3-2.8
		c-0.1-0.1-0.2-0.2-0.2-0.4v-0.3c0.1-0.1,0.1-0.2,0.2-0.2c0.2-0.2,0.5-0.1,0.7,0.2c0.7,0.8,1.3,1.5,2,2.3l0.1,0.1c0.1,0,0-0.1,0-0.1
		c0.1-1.4,0.3-2.8,0.4-4.1v-0.3c0.1-0.2,0.2-0.3,0.4-0.4c0.2,0,0.4,0.1,0.5,0.2c0.8,1,1.6,1.9,2.4,2.9c0.3,0.3,0.2,0.6-0.1,0.9
		s-0.7,0.5-1,0.8c-0.5,0.4-1.1,0.9-1.6,1.3c-0.1,0.1-0.1,0.1,0,0.2l0.3,0.3c0.6,0.8,1.3,1.5,1.9,2.3c0.2,0.3,0.2,0.6-0.1,0.8
		l-0.1,0.1c-0.9,0.7-1.9,1.5-2.8,2.2C243.3,94.3,243.2,94.4,243,94.4L243,94.4z M243.9,89.7C243.9,89.7,243.9,89.8,243.9,89.7
		c-0.1,1-0.2,1.9-0.3,2.9v0.1h0.1l1.5-1.2c0.1-0.1,0.1-0.1,0-0.2C244.8,90.8,244.4,90.3,243.9,89.7C244,89.8,243.9,89.7,243.9,89.7z
		 M244.2,86.9c0.6-0.5,1.1-0.9,1.6-1.3c0.1-0.1,0.1-0.1,0-0.2c-0.4-0.5-0.8-1-1.2-1.4h-0.1v0.1l-0.3,2.7
		C244.1,86.9,244.1,86.9,244.2,86.9z M262.3,85.9c2,0.2,4,0.4,6.1,0.6c0.9,0.1,1.8,0.9,1.7,2c-0.2,1.7-0.3,3.4-0.5,5
		c-0.1,1-0.8,1.6-1.7,1.7h-0.3L255.3,94c-1-0.1-1.7-1-1.6-2c0.2-1.7,0.3-3.4,0.5-5.2c0.1-0.9,1-1.7,1.9-1.6
		C258.2,85.5,260.3,85.7,262.3,85.9L262.3,85.9z M261.5,93.9c2.1,0.2,4.1,0.4,6.2,0.6c0.5,0,0.9-0.2,1.1-0.7
		c0.1-0.2,0.1-0.4,0.1-0.6c0.2-1.6,0.3-3.2,0.5-4.8c0.1-0.6-0.3-1.1-1-1.2c-4.1-0.4-8.1-0.8-12.2-1.2c-0.7-0.1-1.2,0.3-1.2,1
		c-0.2,1.7-0.3,3.4-0.5,5c-0.1,0.6,0.4,1.1,1,1.2C257.4,93.5,259.5,93.7,261.5,93.9z M270.6,91.1c0.1-0.5,0.1-1.1,0.2-1.6
		c0-0.1,0-0.2,0.2-0.1c0.7,0.3,1.2,1.1,1.1,1.8c-0.1,0.8-0.6,1.5-1.4,1.7c-0.2,0-0.2,0-0.2-0.2C270.5,92.2,270.5,91.7,270.6,91.1
		L270.6,91.1z"/>
	<path class="st13" d="M261,87.2c1.5,0.2,3,0.3,4.6,0.5c0.2,0,0.2,0.1,0.2,0.3c-0.2,1.8-0.4,3.6-0.5,5.4c0,0.2-0.1,0.2-0.2,0.2
		c-3-0.3-6.1-0.6-9.1-0.9c-0.6-0.1-0.8-0.4-0.8-1c0.1-1.4,0.3-2.7,0.4-4.1c0.1-0.5,0.4-0.8,0.9-0.7C258,86.9,259.5,87.1,261,87.2z
		 M152.6,81.9l-0.8-0.1l0.5-5.2c-0.2,0.2-0.5,0.3-0.8,0.5s-0.6,0.3-0.9,0.3l0.1-0.8c0.5-0.2,0.9-0.4,1.3-0.7
		c0.4-0.3,0.6-0.5,0.8-0.8l0.5,0.1L152.6,81.9L152.6,81.9z M159,81.7l-0.1,0.8l-4.4-0.4c0-0.2,0.1-0.4,0.2-0.6
		c0.1-0.3,0.3-0.6,0.6-0.8c0.3-0.3,0.7-0.6,1.2-0.9c0.8-0.5,1.3-0.9,1.6-1.2c0.3-0.3,0.4-0.6,0.5-0.9c0-0.3-0.1-0.6-0.3-0.8
		c-0.2-0.2-0.5-0.4-0.9-0.4s-0.7,0-1,0.3c-0.3,0.2-0.4,0.5-0.5,0.9l-0.8-0.2c0.1-0.6,0.4-1.1,0.8-1.4c0.4-0.3,0.9-0.4,1.5-0.3
		s1.1,0.3,1.4,0.7c0.3,0.4,0.5,0.8,0.4,1.4c0,0.3-0.1,0.5-0.2,0.8c-0.1,0.2-0.3,0.5-0.6,0.7c-0.3,0.3-0.7,0.6-1.4,1
		c-0.5,0.4-0.9,0.6-1,0.7c-0.2,0.1-0.3,0.3-0.4,0.4C155.6,81.5,159,81.7,159,81.7z M160.2,82.6l0.1-0.9l0.9,0.1l-0.1,0.9L160.2,82.6
		z M160.6,78.8l0.1-0.9l0.9,0.1l-0.1,0.9L160.6,78.8z M162.7,79.6c0.1-0.8,0.2-1.4,0.4-1.9s0.5-0.8,0.8-1s0.8-0.3,1.2-0.3
		s0.7,0.1,0.9,0.3c0.3,0.2,0.5,0.4,0.6,0.7c0.1,0.3,0.2,0.6,0.3,1s0.1,0.9,0,1.6c-0.1,0.8-0.2,1.4-0.4,1.8c-0.2,0.5-0.5,0.8-0.8,1
		s-0.8,0.3-1.2,0.3c-0.6-0.1-1.1-0.3-1.4-0.8C162.7,81.8,162.5,80.8,162.7,79.6L162.7,79.6z M163.5,79.7c-0.1,1.1-0.1,1.8,0.2,2.2
		c0.2,0.4,0.5,0.6,0.9,0.6s0.7-0.1,1-0.4s0.5-1,0.6-2.1s0.1-1.8-0.2-2.2c-0.2-0.4-0.5-0.6-0.9-0.6s-0.7,0.1-0.9,0.4
		C163.8,77.9,163.6,78.6,163.5,79.7L163.5,79.7z M167.8,80.1c0.1-0.8,0.2-1.4,0.4-1.9s0.5-0.8,0.8-1s0.8-0.3,1.2-0.3
		s0.7,0.1,0.9,0.3c0.3,0.2,0.5,0.4,0.6,0.7c0.1,0.3,0.3,0.6,0.3,1c0.1,0.4,0.1,0.9,0,1.6c-0.1,0.8-0.2,1.4-0.4,1.8
		c-0.2,0.5-0.5,0.8-0.8,1s-0.8,0.3-1.2,0.3c-0.6-0.1-1.1-0.3-1.4-0.8C167.8,82.3,167.7,81.4,167.8,80.1L167.8,80.1z M168.6,80.2
		c-0.1,1.1-0.1,1.8,0.2,2.2c0.2,0.4,0.5,0.6,0.9,0.6s0.7-0.1,1-0.4s0.5-1,0.6-2.1s0.1-1.8-0.2-2.2c-0.2-0.4-0.5-0.6-0.9-0.6
		s-0.7,0.1-0.9,0.4C168.9,78.4,168.7,79.1,168.6,80.2L168.6,80.2z M174.2,84.1l3.2-6.3l0.9,0.1l2,6.9l-1-0.1l-0.6-2.1l-2.8-0.3
		l-0.9,1.9L174.2,84.1L174.2,84.1z M176.4,81.6l2.2,0.2l-0.5-1.9c-0.2-0.6-0.3-1-0.3-1.4c-0.1,0.4-0.3,0.8-0.5,1.2
		C177.3,79.7,176.4,81.6,176.4,81.6z M181.1,84.8l0.7-6.6l1.3,0.1l1.1,4.8c0.1,0.4,0.2,0.8,0.2,1l0.5-1l2-4.4l1.2,0.1l-0.7,6.6
		l-0.8-0.1l0.6-5.5l-2.5,5.3l-0.8-0.1l-1.3-5.8l-0.6,5.6H181.1z"/>
</g>
</svg>
