<?xml version="1.0" encoding="utf-8"?>
<!-- Generator: Adobe Illustrator 24.1.2, SVG Export Plug-In . SVG Version: 6.00 Build 0)  -->
<svg version="1.1" id="Layer_1" xmlns="http://www.w3.org/2000/svg" xmlns:xlink="http://www.w3.org/1999/xlink" x="0px" y="0px"
	 viewBox="0 0 157.1 331.3" style="enable-background:new 0 0 157.1 331.3;" xml:space="preserve">
<style type="text/css">
	.st0{fill:#8CC3B7;}
	.st1{fill:#5B918D;}
	.st2{fill:#2A3837;}
	.st3{fill:#C1BDA7;}
	.st4{fill:#A29E8D;}
	.st5{fill:#9CD1C1;}
	.st6{fill:#305556;}
</style>
<g id="lamp_1_">
	<path class="st0" d="M22.2,153l-4.1,2l73.1,146.7l4.1-2L22.2,153z M14.9,156.7l-4.1,2l73.1,146.7l4.1-2L14.9,156.7z"/>
	<path class="st1" d="M82.6,292.6l-4.1,2l2.1,4.2h5.1L82.6,292.6z M90.1,289.3l-4.1,2l2.1,4.2h5.1L90.1,289.3z M25.7,159.9l-4.1,2.1
		l-2.7-5.4l4.1-2L25.7,159.9z M18.3,163.5l-4.1,2l-3.4-6.8l4.9-0.4L18.3,163.5z"/>
	<path class="st0" d="M14.6,134.9l88.7-88.7l3.3,3.3l-88.7,88.7L14.6,134.9z"/>
	<path class="st0" d="M20.3,140.6L109,51.9l3.3,3.3l-88.7,88.7L20.3,140.6z"/>
	<path class="st1" d="M24.1,131.8l-3.3-3.2l-4.2,4.2l3.9,2.6L24.1,131.8z M30.1,137.4l-3.2-3.3l-3.3,3.3l3,3.5L30.1,137.4z
		 M102.2,53.7L99,50.4l4.2-4.2l3.3,3.2L102.2,53.7z M104.9,56.1l3.2,3.3l4.2-4.2L109,52L104.9,56.1z"/>
	<path class="st0" d="M77.2,303.1c2.7-7.1,10.7-10.7,17.8-8c5.6,2.2,9,7.6,8.9,13.3c0,1.5-0.3,3-0.9,4.5c-2.7,7.1-10.7,10.7-17.8,8
		c-5.4-2.1-8.8-7.2-8.9-12.6C76.3,306.6,76.6,304.8,77.2,303.1L77.2,303.1z"/>
	<path class="st1" d="M80.8,318.3c5.6,5.1,14.4,4.7,19.5-0.9c0.5-0.6,1-1.2,1.4-1.9c0,0-18.1,9.9-24.6-12.2
		C75.3,308.4,76.6,314.4,80.8,318.3z"/>
	<path class="st0" d="M0.8,141c0.6-1.6,1.5-3.2,2.7-4.5c5.1-5.6,13.9-6.1,19.5-0.9c4.5,4.1,5.6,10.4,3.4,15.6
		c-0.6,1.4-1.4,2.7-2.5,3.9c-5.1,5.6-13.9,6.1-19.5,0.9C0.2,152.1-1,146.1,0.8,141z"/>
	<path class="st1" d="M4.5,156.1c5.6,5.1,14.4,4.6,19.5-1c1.1-1.2,1.8-2.6,2.4-4c0,0-19,12-25.6-10.1C-1,146.1,0.2,152.1,4.5,156.1
		L4.5,156.1z M84.2,35.9l-6.7-1.1c-0.9-0.1-1.5-1-1.3-1.9l0.2-1.2c0.1-0.9,1-1.5,1.9-1.3l6.7,1.1C85,31.5,84.2,35.9,84.2,35.9z"/>
	<path class="st2" d="M139.8,87c27-38.9,14.4-86.6,14.4-86.6l-15,65L139.8,87z"/>
	<path class="st3" d="M149.1,30.6c1.7,1,3.3,2.4,4.6,4.2c4.6,6.5,3.1,15.6-3.4,20.2c-1.7,1.2-3.7,2-5.6,2.4
		C144.7,57.4,149.1,30.6,149.1,30.6z"/>
	<path class="st4" d="M155.9,46.3c-0.2,0.1-4.8,3-10.1,3.3l-1.3,7.8c2-0.4,3.9-1.2,5.6-2.4C153.2,52.8,155.2,49.7,155.9,46.3z"/>
	<path class="st5" d="M147,43.8L139.8,87c-10.7-1.6-20.3-6.3-26.4-14.9c-4.6-6.5-7.6-13.7-8.8-21c-1.4,0.3-2.8,0.3-4.3,0.1
		l-17.4-2.9c-2-0.3-3.4-2.3-3.1-4.3l3.7-22c0.3-2,2.3-3.4,4.3-3.1l17.4,2.9c1.3,0.2,2.6,0.7,3.7,1.3c3.1-5.9,7.6-11.2,13.6-15.5
		c9.3-6.6,20.9-8.4,31.7-7.2L147,43.8"/>
	<path class="st0" d="M122.6,7.7c-6,4.3-10.5,9.6-13.6,15.5c-1.1-0.6-2.4-1.1-3.7-1.3l-17.5-3c-2-0.3-4,1.2-4.3,3.3L81,37l61.3,35.2
		l1.8-11.1l3.7-22.1c0,0-14.6-1.7-24-8.6c0,0-3.6-3.1-7.4-1.6c0,0-3.8,0.7-4.4-2.2c0,0-1.5-5,9-12.9c0,0,14.9-10.4,32.4-9.9l0.8-3.4
		C143.3-0.9,131.9,1,122.6,7.7L122.6,7.7z"/>
	<path class="st1" d="M106.1,41.5L81,37l-1.2,7c-0.3,2,1,4,3.1,4.3l17.4,2.9c1.5,0.2,2.9,0.2,4.3-0.1c1.2,7.3,4.1,14.4,8.8,21
		c6.1,8.5,15.7,13.3,26.4,14.9l4.3-25.9C144.1,61.1,115.2,62.6,106.1,41.5z"/>
	<path class="st6" d="M27.9,326.3h125v5h-125L27.9,326.3z"/>
	<path class="st1" d="M38.7,315.1h103.5c5.9,0,10.7,4.8,10.7,10.8v1h-125v-1C27.8,319.9,32.7,315.1,38.7,315.1z"/>
	<path class="st0" d="M142.2,315.1H47.8c0,0-7.2,6.2,0,11.8h105.1v-1C152.8,319.9,148.1,315.1,142.2,315.1z"/>
</g>
</svg>
