<svg xmlns="http://www.w3.org/2000/svg" viewBox="0 0 385.5 31.5"><style>.st71{fill:#29828a}.st83{fill:#10232d}</style><g id="Layer_1"><path class="st71" d="M39.5 3.7c1.3 0 2.6.1 3.8.4 1.2.3 2.6.8 4 1.5v4.1c-1.4-.8-2.7-1.4-3.9-1.7-1.2-.4-2.4-.5-3.7-.5-1.6 0-3.1.3-4.4 1-1.3.5-2.3 1.5-3 2.6-.7 1.2-1.1 2.5-1.1 4s.4 2.8 1.1 4c.7 1.2 1.7 2.1 3 2.7 1.3.6 2.8 1 4.4 1 1.3 0 2.4-.2 3.6-.5 1.1-.4 2.6-1 4.3-1.9v4.1c-1.5.8-2.8 1.3-4.1 1.6-1.2.3-2.7.5-4.3.5-2.4 0-4.6-.5-6.5-1.4-1.9-.9-3.4-2.3-4.5-4-1.1-1.8-1.6-3.7-1.6-5.8 0-2.2.6-4.3 1.7-6 1.1-1.8 2.7-3.2 4.6-4.1s4.2-1.6 6.6-1.6zM63.4 4c2.1 0 3.9.6 5.2 1.7 1.4 1.2 2 2.7 2 4.5 0 1.3-.3 2.4-1 3.3-.7.9-1.7 1.7-3 2.2.7.4 1.4.9 1.9 1.6.6.7 1.3 1.8 2.1 3.3 1.4 2.7 2.4 4.6 3.1 5.6h-4.9c-.3-.5-.8-1.3-1.4-2.3-1.3-2.4-2.2-4-2.8-4.8-.6-.8-1.2-1.4-1.7-1.8-.5-.3-1.2-.5-1.9-.5h-1.6v9.4H55V4h8.4zm-1 9.5c1.2 0 2.1-.3 2.7-.8.7-.6 1-1.3 1-2.3 0-1-.3-1.8-1-2.3-.7-.5-1.6-.8-2.8-.8h-2.7v6.2h2.8zM84.6 4v22.3h-4.4V4h4.4zM99.7 3.7c2.2 0 4.4.5 6.4 1.6v3.8c-2.4-1.4-4.5-2.1-6.3-2.1-1.1 0-2 .2-2.6.6-.6.4-.9 1-.9 1.7 0 .8.6 1.6 1.7 2.3.3.2 1.6.8 3.8 1.8 1.9.9 3.2 1.8 4.1 2.9.8 1.1 1.2 2.3 1.2 3.8 0 1.9-.7 3.5-2.1 4.6s-3.2 1.8-5.5 1.8c-1.5 0-2.7-.2-3.8-.5-1.1-.3-2.2-.9-3.5-1.6v-4.2c2.4 2 4.7 3 6.9 3 1.1 0 1.9-.2 2.6-.7.7-.5 1-1.1 1-1.8 0-1-.6-1.9-1.7-2.5-1-.5-2.2-1.1-3.7-1.8-1.8-.8-3.1-1.7-4-2.8-.9-1.1-1.3-2.3-1.3-3.7 0-1.9.7-3.4 2.1-4.5 1.4-1.2 3.2-1.7 5.6-1.7zM132.6 4v3.4h-8.1v18.9H120v-19h-8.1V4h20.7zM143.8 4v22.3h-4.4V4h4.4zM156.1 4l13.6 15.6V4h4.3v22.3h-3.8l-13.6-15.8v15.8h-4.3V4h3.8zM193.9 4L204 26.3h-4.7l-2.4-5.4h-10.1l-2.2 5.4H180L189.4 4h4.5zm-5.7 13.6h7.4l-3.9-8.8-3.5 8.8z"/><path class="st83" d="M212.3 4l6.5 14.3L225.1 4h4.6l-10.1 22.6h-1.5L207.7 4h4.6zM240.3 4v22.3h-4.4V4h4.4zM253.1 4v18.9h11.1v3.4h-15.5V4h4.4zM275 4v18.9h11.1v3.4h-15.5V4h4.4zM307.2 4v3.4h-10.3v5.9h9.9v3.4h-9.9V23h10.6v3.4h-15V4h14.7zM326.9 3.7c2.8 0 5.6.6 8.4 1.8v3.9c-2.8-1.4-5.5-2.1-8.2-2.1-1.7 0-3.1.3-4.4 1-1.3.6-2.3 1.6-3 2.8-.7 1.2-1.1 2.6-1.1 4.1 0 2.3.8 4.1 2.3 5.5 1.6 1.4 3.6 2.1 6.1 2.1.7 0 1.4-.1 2-.2.6-.1 1.4-.3 2.3-.7v-3.7h-3.8v-3.4h8.2V24c-1.1.8-2.5 1.4-4 1.8-1.6.4-3.2.6-4.9.6-2.4 0-4.6-.5-6.5-1.5-2-1-3.5-2.3-4.6-4.1s-1.6-3.7-1.6-5.8c0-2.2.6-4.2 1.7-5.9 1.1-1.8 2.6-3.1 4.6-4.1s4-1.3 6.5-1.3zM355.3 4l10.1 22.3h-4.7l-2.4-5.4h-10.1l-2.2 5.4h-4.6L350.8 4h4.5zm-5.7 13.6h7.4l-3.9-8.8-3.5 8.8zM378.1 3.7c2.2 0 4.4.5 6.4 1.6v3.8C382.1 7.7 380 7 378.2 7c-1.1 0-2 .2-2.6.6s-.9 1-.9 1.7c0 .8.6 1.6 1.7 2.3.3.2 1.6.8 3.8 1.8 1.9.9 3.2 1.8 4.1 2.9.8 1.1 1.2 2.3 1.2 3.8 0 1.9-.7 3.5-2.1 4.6-1.4 1.2-3.2 1.8-5.5 1.8-1.5 0-2.7-.2-3.8-.5-1.1-.3-2.2-.9-3.5-1.6v-4.2c2.4 2 4.7 3 6.9 3 1.1 0 2-.2 2.6-.7.7-.5 1-1.1 1-1.8 0-1-.6-1.9-1.7-2.5-1-.5-2.2-1.1-3.7-1.8-1.8-.8-3.1-1.7-4-2.8s-1.3-2.3-1.3-3.7c0-1.9.7-3.4 2.1-4.5 1.3-1.2 3.2-1.7 5.6-1.7zM9.6 31.5v-.1c.4 0 .7 0 1.1-.1.2 0 .4-.3.5-.4 0-.2-.1-.5-.3-.6-.4-.2-.7-.4-1.1-.5-1.7-.5-3.5-1-5.2-1.5-.6-.2-.7-.5-.3-1 .5-.5 1-.9 1.5-1.4.8-.7 1.7-1.4 2.5-2.2.2-.2.4-.7.3-.9-.3-.7-.7-1.4-1-2.1-.1-.2-.3-.5-.4-.7-.7-2.4-.5-4.9 0-7.3.2-.9.4-1.9.9-2.7.6-.8.3-1.4-.5-2-1.2-.9-2.3-1.6-3.3-2.5-.8-.6-.7-1 .1-1.4l4.2-1.8c.4-.1.8-.3 1.2-.5.5-.3.5-.7.3-1.2-.1-.5-.5-.7-1-.5-.4.1-.7.3-1 .4-.7.3-1.3.7-1.9.8-1.7.4-3.5.8-5.2 1.1-.8.2-1.1 1-.6 1.6.4.5.8.8 1.3 1.2C3 6.3 4.3 7.3 5.6 8.4c.7.6.7 1 .3 1.9-.2.3-.3.7-.5 1-.8 2.3-.6 4.7-.6 7 0 1.4.5 2.6 1.2 3.8.3.5.3.9-.2 1.2C4 24.7 2.2 26.2.4 27.6c-.4.3-.5.8-.1 1.1.4.4 1 .8 1.5 1 1 .3 2 .6 3.1.8 1.5.4 3.1.7 4.7 1zm5.1-21.8v-.2c.2 0 .3-.1.5-.1h3.2c.3 0 .5-.2.8-.3-.1-.2-.2-.5-.4-.7-1.2-1.2-3.8-1.3-5.2-.4-.1 0-.3.1-.4 0-.1-.1-.3-.4-.2-.5.3-.4.5-.9.9-1.1 1.4-.8 2.8-1 4.4-.8.3 0 .7.1 1 0 .2-.1.4-.3.6-.4-.2-.2-.4-.4-.6-.5-.5-.1-1.1 0-1.6-.1-1.7-.3-3.3.3-4.7 1.1-1.6.8-1.7 3-.1 4 1.2.8 2.6 1.4 4 1.7l2.1.3c.2 0 .4-.3.6-.4-.2-.1-.4-.3-.6-.4-.8-.2-1.6-.3-2.4-.5-.7-.3-1.3-.5-1.9-.7zm2.4 15.5c-1.5-.3-2.8-.5-4-.8-.2-.1-.5-.4-.5-.7-.3-1.9.8-3.3 2.7-3.6.8-.1 1.7-.2 2.5-.3.2 0 .4-.4.6-.6-.2-.1-.4-.4-.6-.4-1 0-1.9.1-2.9.3-.6.1-1.2.3-1.7.6-1.5.9-1.8 2.5-1.8 4.1 0 .6.2 1 .7 1.3 1.6 1 3.4 1.1 5.3 1 .8 0 1.5-.2 2.3-.5.2-.1.3-.5.5-.8-.3 0-.6-.2-.9-.1-.8.2-1.6.4-2.2.5zm-.1-3.6l-2.1.3c-.3.1-.5.3-.8.5.2.3.3.7.6.8 1.1.6 2.3.7 3.5.3.2-.1.4-.2.6-.4.5-.5.4-1.1-.3-1.3-.5-.1-1-.1-1.5-.2z"/></g></svg>