<?xml version="1.0" encoding="utf-8"?>
<!-- Generator: Adobe Illustrator 24.1.2, SVG Export Plug-In . SVG Version: 6.00 Build 0)  -->
<svg version="1.1" id="Layer_1" xmlns="http://www.w3.org/2000/svg" xmlns:xlink="http://www.w3.org/1999/xlink" x="0px" y="0px"
	 viewBox="0 0 261.7 318.6" style="enable-background:new 0 0 261.7 318.6;" xml:space="preserve">
<style type="text/css">
	.st0{fill:#BAAE95;}
	.st1{opacity:0.25;fill:#10232D;enable-background:new    ;}
	.st2{fill:#E5D7B5;}
	.st3{fill:#F4F0E9;}
	.st4{opacity:0.1;fill:#10232D;enable-background:new    ;}
</style>
<g id="Layer_4">
	<g id="Layer_4_2_">
		<g id="file_3_">
			<g id="folder_1_">
				<path class="st0" d="M0,2.6h243c1.6,6.4,5.4,6.9,5.4,6.9c2.5,0.3,4.3,0.8,5.7,1.4c2.5,1,4.2,3.3,4.3,5.8l3.3,84.5
					c-2,5.3-6.6,4.9-9.2,7.1c-4.9,4.2-4.2,9.2-4.2,9.2l0.1,177.3c0,8.5-7.4,15.4-16.5,15.4L0,311V2.6z"/>
				<path class="st1" d="M1.2,312.2l239.4,0.8c10.7,0,19.4-8.1,19.4-18V116.6c0,0,0-5.7-8-6.2c-1-0.1-1.9-0.4-2.7-0.8
					c-2.3-1.3-3.7-3.7-3.7-6.2l-1.9-85c0,0,0.5-6.2-10.5-8c-4.6-0.8-4.8-6.4-4.8-6.4L1.2,3.9V312.2L1.2,312.2z"/>
				<path class="st2" d="M0,311l239.4,0.8c10.7,0,19.4-8.1,19.4-18V115.4c0,0,0-5.7-8-6.2c-1-0.1-1.9-0.4-2.7-0.8
					c-2.3-1.3-3.7-3.7-3.7-6.2l-1.9-85c0,0,0.5-6.2-10.5-8c-4.6-0.8-4.8-6.4-4.8-6.4L0,2.6V311z"/>
			</g>
			<g id="papers_3_">
				<path id="bottom_3_" class="st3" d="M11.7,309.3L25.5,1l209.2,9.4l-13.8,308.3L11.7,309.3z"/>
				<g id="top_3_">
					<path id="shadow_5_" class="st4" d="M17.6,2.3H227v308.6H17.6V2.3z"/>
					<path class="st3" d="M15,0h209.4v308.6H15V0z"/>
				</g>
			</g>
		</g>
	</g>
</g>
</svg>
