<svg xmlns="http://www.w3.org/2000/svg" xmlns:xlink="http://www.w3.org/1999/xlink" viewBox="0 0 426.6 426.6"><style></style><g id="Layer_1"><g id="stickynote_2_"><g id="stickynote_3_"><path id="shadow_5_" transform="matrix(.00329 -1 1 .00329 -.7 425.926)" opacity=".5" fill="#7b5d41" d="M.7.7h425.2v425.2H.7z"/><g id="note_1_"><path d="M0 425.2L1.4 0l425.2 1.4-1.1 330.1s-3.4 41.7-21.5 52.5c-33.1 20-125.2 47.4-404 41.2z" fill="#fff9dd"/><defs><path id="SVGID_38_" d="M0 425.2L1.4 0l425.2 1.4-1.1 330.1s-3.4 41.7-21.5 52.5c-33.1 20-125.2 47.4-404 41.2z"/></defs><clipPath id="SVGID_2_"><use xlink:href="#SVGID_38_" overflow="visible"/></clipPath><path d="M256 418.4s75.5-2.7 83.8-60.4c0 0 22.9 23.8 82.9.3l-.2 60.7-166.5-.6z" clip-path="url(#SVGID_2_)" fill="#e5d7b5"/></g></g><path id="underline_1_" d="M41.4 83.6c2.2.2 4.2.5 6.2.5 8.5.3 16.9 1.8 25.5 1.4 10-.5 20-.6 30-.9 9.6-.3 19.1-.4 28.7-.7 14.9-.5 29.9-.7 44.8-.6 2.1 0 4.2.4 6.4.7-9.2.6-18.5.8-27.2 4.6 1.4 0 2.9.1 4.4 0 8.7-.8 17.4-1.2 26.1-2.4 3.1-.4 6.2-.7 9.3-1.5.5-.1 1.1-.2 1.6-.5.4-.3 1.2-.3 1.1-.9-.1-.7-.8-.8-1.4-.9-2.1-.2-4.2-.5-6.4-.6-21.2-.5-42.4-.2-63.6-.1-6.4 0-12.8.3-19.2.3-11 0-22 .2-32.9.5-6.7.2-13.4.1-20.1.3l-12.2.3c-.4.1-.7 0-1.1.5z" fill="#10232d"/></g></g></svg>