<?xml version="1.0" encoding="utf-8"?>
<!-- Generator: Adobe Illustrator 24.1.3, SVG Export Plug-In . SVG Version: 6.00 Build 0)  -->
<svg version="1.1" id="Layer_1" xmlns="http://www.w3.org/2000/svg" xmlns:xlink="http://www.w3.org/1999/xlink" x="0px" y="0px"
	 viewBox="0 0 528 217.5" style="enable-background:new 0 0 528 217.5;" xml:space="preserve">
<style type="text/css">
	.st0{opacity:0.35;fill:#10232D;enable-background:new    ;}
	.st1{fill:#161F23;}
	.st2{opacity:0.76;}
	.st3{fill:#EFECD0;}
	.st4{fill:#5EA5A2;}
	.st5{fill:#3A3A3A;}
	.st6{clip-path:url(#SVGID_2_);fill:#4A4A48;}
	.st7{fill:#282828;}
	.st8{fill:#3D3D3D;}
	.st9{fill:#285051;}
	.st10{opacity:0.5;}
	.st11{clip-path:url(#SVGID_4_);fill:#224444;}
	.st12{fill:#403C3B;}
	.st13{clip-path:url(#SVGID_6_);fill:#3D3D3D;}
	.st14{clip-path:url(#SVGID_8_);fill:#595B58;}
</style>
<g id="bc">
	<path class="st0" d="M70.5,4.8l300,15.5l-9.2,177.3l-300-15.5L70.5,4.8z"/>
	<path class="st1" d="M65.8,0l300,15.5l-9.2,177.3l-300-15.5L65.8,0z"/>
	<g id="owl_1_" class="st2">
		<path class="st3" d="M250.8,61.5c-0.2-0.9-0.6-1.7-0.9-2.6c-0.6-1.6-1.5-3.1-1.8-4.8c-0.8-4.4-1.4-8.6-2.1-12.9
			c-0.3-2-2.2-2.8-3.8-1.8c-1.2,0.8-2.2,2-3.2,3c-2.9,3.1-5.6,6.3-8.5,9.2c-1.6,1.7-2.6,1.6-4.7,0.5c-0.8-0.5-1.6-1-2.5-1.2
			c-5.6-2.3-11.5-2-17.2-2.5c-3.4-0.3-6.6,0.9-9.5,2.4c-1.2,0.6-2.1,0.7-3.1-0.6c-3.3-4.6-6.7-9.3-10-13.9c-0.8-1.1-1.9-1.4-2.9-0.5
			c-1,1-2,2.3-2.5,3.6c-1,2.5-1.7,4.9-2.4,7.5c-1,3.9-1.9,7.8-2.7,11.7l0.3,0.1c0,0.8-0.1,1.8,0,2.7c0.1,0.4,0.5,0.9,0.8,1.1
			c2-5.3,3.8-10.4,3.8-16.2c0.1-0.6,0.2-1.1,0.5-1.7c0.2-1,0.7-1.8,1.1-2.8l0.1-0.2c0.1-0.3,0.3-0.5,0.6-0.7l0-0.1
			c0.1-0.4,0.3-0.6,0.7-0.7c0.3-0.3,0.8-0.5,1.2-0.3c0.2,0.1,0.4,0.1,0.5,0.3c2,2.1,3.6,4.4,4.8,6.9c1.6,2.7,3.2,6.2,5.6,7.3
			c0.3,0.1,0.6,0.3,0.8,0.5c0.2,0.1,0.6,0.1,0.8,0.1c0.1-0.1,0.4,0,0.5-0.1c2.5-0.7,5.1-2.4,7.6-2.8c0.5-0.1,1-0.1,1.4,0.1
			c0.4-0.1,0.8-0.1,1.1-0.3c0.8-0.2,1.5-0.3,2.3-0.4c2.5-0.2,5.2,0,7.6,0.5c4.7,0.8,9.7,4.2,14.7,4.2c0.2-0.2,0.4-0.4,0.6-0.4
			c0.7-0.2,1.3-0.3,1.8-0.7c1.8-2.2,3.5-4.5,5.4-6.6c0-0.1,0.1-0.1,0.2-0.2c0.5-0.7,1-1.3,1.6-1.8c0.5-0.8,0.9-1.5,1.5-2.2
			c0.8-1,2.4-0.1,2,0.9c0.1,0.1,0.3,0.3,0.3,0.5c1,3.1,0.6,6.2,0.9,9.4c0.2,0.8,0.5,1.5,0.6,2.2c0.9,2.3,1.4,5.3,3.2,6.6
			c0.4,0,0.8-0.1,1.1-0.3C250.6,63.7,251.2,62.7,250.8,61.5L250.8,61.5z M166.8,97.7c0.6-5.1,0.9-9,1.4-12.9l0.1-0.3
			c0.4-1.3,0.9-2.9,2.6-2.3c1.5,0.5,0.7,2,0.5,3.1c-2.8,10.4-2.8,20.8-1.2,31.3c0.7,4.5,1.2,9.1,2.2,13.5c0.7,3.2,2,6.2,3.1,9.3
			c0.4,1.3,1.2,2.7-0.3,3.8c-0.9,0.6-2-0.6-2.6-2.6c-1.7-5.6-3.7-11-4.9-16.6c-0.8-3.5-0.4-7.3-0.6-11.1
			C167,107.3,167,101.8,166.8,97.7z M226.4,74c-0.6,1.5-1.4,3.1-1.9,4.6c-0.6,2-1,3.9-1.6,5.9c-0.2,0.6-0.6,0.9-1,1.4
			c-0.3-0.5-0.9-1-0.9-1.5c0.2-1.8,0.5-3.6,0.9-5.3c1-3.6,2.4-6.7,4.6-9.7c2.7-3.8,8.1-3.2,9.9,0.8c1.6,3.8,3,7.7,2.1,11.9
			c-0.3,1.2-0.1,2.7-0.4,4c-0.2,0.6-0.8,1-1.3,1.4c-0.3-0.5-0.9-1-1-1.6c-0.1-0.8,0-1.6,0.1-2.4c0.6-3.8,0.3-7.5-1.4-10.9
			c-0.5-1-1.8-1.7-2.8-2.4c-0.2-0.2-1,0.2-1.3,0.4c-0.2,0.2,0.1,0.9,0.3,1.2c2.2,3.6,1.4,10.1-1.6,12.8c-0.5,0.5-1.3,0.6-1.8,0.8
			c-0.2-0.7-0.7-1.3-0.6-2c0.1-2.6,0.3-5.3,0.4-8.1c0-0.5-0.2-0.9-0.3-1.3C226.7,74.1,226.5,74.1,226.4,74L226.4,74z M254.3,110.3
			c0.1,5.6-0.7,10.9-2.2,16.2c-1.5,5.1-2.8,10.4-4.1,15.5c-0.1,0.4-0.3,0.9-0.4,1.1c-0.4,0.4-0.9,0.5-1.3,0.7
			c-0.2-0.4-0.5-0.8-0.6-1.2c-0.1-0.4,0.1-0.8,0.2-1.1c1.8-6.6,3.9-13.2,5.3-19.8c0.8-3.7,1-7.7,1-11.5c0-6.5-0.3-13-0.6-19.5
			c-0.1-2.8-0.8-5.6-1.4-8.3c0-0.4-0.3-0.7-0.2-1c0.2-0.6,0.4-1.1,0.6-1.6c0.5,0.4,1.3,0.6,1.5,1.2c0.6,2,1.2,4,1.3,6
			c0.5,7.8,1,15.5,1.5,23.3C254.6,110.2,254.5,110.2,254.3,110.3L254.3,110.3z M187.4,78.2c0.3,1.4,0.6,3.5,0.8,5.4
			c0.1,0.6-0.3,1.4-0.4,2.2c-0.7-0.5-1.7-0.8-1.9-1.3c-0.5-1.8-0.9-3.8-0.9-5.7c-0.1-4.5,0.3-9,3.1-12.9c0.8-1.2,1.9-1.7,3.4-1.6
			c4,0.4,7.7,1.1,9.8,5c0.7,1.3,1.2,2.8,1.4,4.3c0.2,2.4,0.3,4.8,0.2,7.2c0,0.5-0.7,1-1.1,1.5c-0.5-0.5-1.3-1-1.4-1.5
			c-0.2-2.1-0.2-4.2-0.4-6.3c-0.5-4.7-4-7.6-8.7-7.1c-0.6,0.1-1.7,0.7-1.8,1.3C189,71.5,188.3,74.5,187.4,78.2z M227.4,107.4
			c0.2-0.3,0.5-0.7,0.7-1c0.4,0.2,1.1,0.4,1.2,0.8c0.6,1.7,0.9,3.7,1.5,5.4c0.3,0.7,0.7,1.8,1.1,1.9c0.6,0.2,1.5-0.5,2-1
			c1.6-1.6,3-3.4,4.5-5c0.4-0.4,1-0.4,1.5-0.6c0.1,0.5,0.3,1.1,0.3,1.5c-0.2,0.6-0.6,1.1-1,1.6c-1.8,2-3.6,4-5.5,5.9
			c-0.5,0.5-1.1,0.9-1.7,1.2c-1.4,0.8-2.5,0.3-2.8-1.2C228.5,113.8,228,110.6,227.4,107.4z"/>
		<path class="st3" d="M196.4,78.2c-0.3,1.2-0.4,2.4-0.9,3.6c-0.5,1.8-2.2,2-3.3,0.7c-0.3-0.5-0.7-0.9-0.9-1.5
			c-0.9-3-0.5-6.1,1.2-8.7c0.4-0.6,1.4-0.9,2.1-1.3c0.4,0.7,1,1.4,1.2,2.1C196.1,74.7,196.2,76.4,196.4,78.2L196.4,78.2z"/>
		<path class="st4" d="M209.6,105.5c-0.5-0.6-1.2-1-1.2-1.5c-0.7-3-1.3-6-1.9-8.9c0-0.4-0.1-0.8-0.1-1c0.1-0.3,0.3-0.6,0.6-1
			c0.3,0.2,0.9,0.4,0.9,0.6c0.6,1.7,1.1,3.5,1.6,5.3c0.2,0.8,0.7,1.4,0.9,2.2c0.7-0.4,1.6-0.5,2-1.1c1.5-1.7,2.8-3.7,4.2-5.6
			c0.2-0.4,0.6-0.8,0.9-1c0.3-0.2,0.9-0.1,1.2-0.1c0,0.5,0.2,1,0,1.2c-2.3,3.1-4.4,6-6.7,8.9C211.6,104.4,210.6,104.8,209.6,105.5
			L209.6,105.5z"/>
		<path class="st3" d="M205.9,121.4c0.6,0.9,1.2,1.6,1.6,2.3c0.3,0.9,0.5,1.8,0.7,2.9c0.4,1.9,1.2,2.2,2.7,1.1
			c0.9-0.7,1.8-1.4,2.7-2c0.5-0.3,1.2-0.6,1.8-0.7c0.5,0,1,0.4,1.4,0.5c-0.3,0.5-0.3,1.5-0.7,1.6c-2.8,1-4.7,3.2-6.8,5
			c-1.4,1.3-2.7,0.9-2.9-0.8c-0.4-3-0.7-6.1-0.9-9.2C205.4,122.1,205.5,122,205.9,121.4z M179.9,112.9c0.4,0.6,0.9,1.1,1.2,1.7
			c0.7,1.7,1.2,3.3,1.9,4.9c0.3,0.7,0.8,1.4,1.3,2.1c1.1,1.3,2.4,1,2.9-0.6c0.7-2,1.4-3.9,2.2-6c0.1-0.4,0.3-0.9,0.6-1.3
			c0.2-0.3,0.7-0.4,1.1-0.3c0.1,0,0.3,0.6,0.4,0.8c0,0.3-0.1,0.6-0.1,0.8c-1,2.8-1.9,5.7-3,8.4c-0.4,1-1.4,2-2.4,2.2
			c-1.5,0.4-2-1.1-2.4-2.3c-1.3-3.2-2.7-6.4-3.8-9.6c-0.2-0.3-0.1-0.6-0.1-1C179.5,113.1,179.7,113.1,179.9,112.9L179.9,112.9z
			 M230.7,144c0.2-0.4,0.6-0.9,1-1.4c0.3,0.6,0.7,0.9,0.8,1.6c0.3,0.9,0.2,2,0.6,2.9c0.2,0.5,0.5,1.4,0.9,1.5
			c0.4,0.1,1.2-0.4,1.6-0.8c0.7-0.7,1.2-1.7,1.9-2.4c0.3-0.3,0.9-0.3,1.4-0.5c0.1,0.5,0.5,1.2,0.3,1.5c-1.7,2.3-3.4,4.5-5.2,6.5
			c-0.7,0.9-1.8,0.4-2.1-0.7C231.4,149.5,231.1,146.9,230.7,144L230.7,144z M196.6,155.2c-0.6-0.5-1.2-0.8-1.5-1.4
			c-1.2-2.2-2.3-4.3-3.3-6.6c-0.2-0.4,0.1-1.1,0.1-1.5c0.4,0.2,1.1,0.4,1.3,0.9c0.7,0.9,1.2,2.1,1.7,3.1c1.2,2.1,2,2.1,3.5,0.2
			c0.4-0.6,1-1.2,1.6-1.6c0.3-0.2,0.9-0.1,1.1,0.1c0.2,0.2,0.4,0.8,0.1,1.1c-1,1.6-2,3.4-3,4.9C198.1,154.6,197.4,154.8,196.6,155.2
			L196.6,155.2z"/>
	</g>
</g>
<g id="pen_2_">
	<path class="st0" d="M487.3,145.2l34.4-5.8c3.7-0.6,6.2-4.1,5.6-7.8l-1.7-9.9c-0.6-3.7-4.1-6.2-7.8-5.6l-34.4,5.8l-0.1-1.1
		c-0.7-4.6-5-7.6-9.6-6.9l-28.4,4.7L261,149.6c0,0-220.7,43.3-239.6,56.3l-21,7.7c0,0-1,2,0.5,3.3c0,0,22.6,0.7,22.5,0.7
		c0,0,80.1,0.1,244.5-27.4l183.3-30.7l29.4-4.9C484.9,153.7,487.9,149.6,487.3,145.2z"/>
	<path class="st5" d="M482.4,117.7l36-6c3.7-0.6,7.2,1.9,7.8,5.6l1.7,9.9c0.6,3.7-1.9,7.2-5.6,7.8l-36,6L482.4,117.7z"/>
	<g>
		<g>
			<defs>
				<path id="SVGID_1_" d="M482.4,117.7l36-6c3.7-0.6,7.2,1.9,7.8,5.6l1.7,9.9c0.6,3.7-1.9,7.2-5.6,7.8l-36,6L482.4,117.7z"/>
			</defs>
			<clipPath id="SVGID_2_">
				<use xlink:href="#SVGID_1_"  style="overflow:visible;"/>
			</clipPath>
			<path class="st6" d="M484.3,129.4l35.7-6c0,0,4.8-0.4,5.2,6.6c0,0-0.2,2.4-1.5,4.6l5.2-1.4l-2.6-20.1l-4.5-2l-3.4,0.5l-36,6
				C482.4,117.7,484.3,129.4,484.3,129.4z"/>
		</g>
	</g>
	<path class="st7" d="M21.8,201.4l-21,7.7c0,0-1,2,0.5,3.3c0,0,22.6,0.7,22.5,0.7l0.2-3.6L21.8,201.4z"/>
	<path class="st8" d="M448,134.1l-1.1-6.5l-2.2-13.1l29.4-4.9c4.6-0.7,8.8,2.3,9.6,6.9l2,12.1C485.7,128.5,448,134.1,448,134.1z"/>
	<path class="st7" d="M485.7,128.4l2,12.1c0.7,4.6-2.2,8.8-6.8,9.6l-29.4,4.9l-3.5-20.9C448,134.1,485.7,128.4,485.7,128.4z"/>
	<path class="st9" d="M445.7,114.3l-184.3,30.9c0,0-220.7,43.3-239.6,56.3l1.9,11.7c0,0,80.1,0.1,244.5-27.4l184.3-30.9L445.7,114.3
		z"/>
	<g class="st10">
		<g>
			<g>
				<defs>
					<path id="SVGID_3_" d="M445.7,114.3l-184.3,30.9c0,0-220.7,43.3-239.6,56.3l1.9,11.7c0,0,80.1,0.1,244.5-27.4l184.3-30.9
						L445.7,114.3z"/>
				</defs>
				<clipPath id="SVGID_4_">
					<use xlink:href="#SVGID_3_"  style="overflow:visible;"/>
				</clipPath>
				<path class="st11" d="M449.1,134.5L17.8,206.8l2.7,16L251,196.1l202.7-34L449.1,134.5z"/>
			</g>
		</g>
	</g>
	<path class="st12" d="M272.5,143.4l24.3-4.1l3.7,22.5l-24.3,4.1L272.5,143.4z"/>
	<path class="st7" d="M275.8,163.6l24.3-4.1l3.4,20.2l-24.3,4.1L275.8,163.6z"/>
	<g>
		<g>
			<g>
				<defs>
					<path id="SVGID_5_" d="M452.5,154.8l28.4-4.7c4.6-0.7,7.6-5,6.9-9.6l-4-24c-0.7-4.6-5-7.6-9.6-6.9l-28.4,4.7l-0.9,0.1
						l-183.4,30.7c0,0-220.7,43.3-239.6,56.3l0.7,4.6l-4.8,0.8l2.7,16L251,196.1l202.8-33.9L452.5,154.8L452.5,154.8z"/>
				</defs>
				<clipPath id="SVGID_6_">
					<use xlink:href="#SVGID_5_"  style="overflow:visible;"/>
				</clipPath>
				<path class="st13" d="M334.3,152.7c0,0-0.7,6.6,4.9,5.8l138.6-20.3l4-3.1l-3.2-9.8l-142.4,26.2L334.3,152.7z"/>
			</g>
		</g>
		<g>
			<g>
				<defs>
					<path id="SVGID_7_" d="M452.5,154.8l28.4-4.7c4.6-0.7,7.6-5,6.9-9.6l-4-24c-0.7-4.6-5-7.6-9.6-6.9l-28.4,4.7l-0.9,0.1
						l-183.4,30.7c0,0-220.7,43.3-239.6,56.3l0.7,4.6l-4.8,0.8l2.7,16L251,196.1l202.8-33.9L452.5,154.8L452.5,154.8z"/>
				</defs>
				<clipPath id="SVGID_8_">
					<use xlink:href="#SVGID_7_"  style="overflow:visible;"/>
				</clipPath>
				<path class="st14" d="M472.4,109.8c0,0,9.5,1.4,8.8,12.8l-143.1,26.6c0,0-3.9,0.7-3.7,3.5l140.2-25.8c0,0,4.1-0.7,4.5,4.5
					c0,0,1.7,4.6-1.2,6.8l4.6-0.7c0,0,2.4,0.4,2.6,4.4c0,0,0.4,6.1-3.9,8.2l9.3-1.5l-6.8-40.5L472.4,109.8z"/>
			</g>
		</g>
	</g>
</g>
</svg>
