<?xml version="1.0" encoding="utf-8"?>
<!-- Generator: Adobe Illustrator 24.2.1, SVG Export Plug-In . SVG Version: 6.00 Build 0)  -->
<svg version="1.1" id="Layer_1" xmlns="http://www.w3.org/2000/svg" xmlns:xlink="http://www.w3.org/1999/xlink" x="0px" y="0px"
	 viewBox="0 0 528 217.5" style="enable-background:new 0 0 528 217.5;" xml:space="preserve">
<style type="text/css">
	.st0{opacity:0.5;fill:#7B5D41;enable-background:new    ;}
	.st1{fill:#161F23;}
	.st2{opacity:0.76;}
	.st3{fill:#EFECD0;}
	.st4{fill:#5EA5A2;}
	.st5{opacity:0.8;fill:#7B5D41;enable-background:new    ;}
	.st6{fill:#2A3233;}
	.st7{clip-path:url(#SVGID_2_);fill:#394344;}
	.st8{fill:#1B2021;}
	.st9{fill:#285051;}
	.st10{opacity:0.5;}
	.st11{clip-path:url(#SVGID_4_);fill:#224444;}
	.st12{clip-path:url(#SVGID_6_);fill:#2A3233;}
	.st13{clip-path:url(#SVGID_8_);fill:#394344;}
</style>
<g id="bc">
	<path class="st0" d="M104.5,4.8l300,15.5l-13.9,172.5L95.3,182.1L104.5,4.8z"/>
	<path class="st1" d="M99.8,0l300,15.5l-9.2,177.3l-300-15.5L99.8,0z"/>
	<g id="owl_1_" class="st2">
		<path class="st3" d="M284.8,61.5c-0.2-0.9-0.6-1.7-0.9-2.6c-0.6-1.6-1.5-3.1-1.8-4.8c-0.8-4.4-1.4-8.6-2.1-12.9
			c-0.3-2-2.2-2.8-3.8-1.8c-1.2,0.8-2.2,2-3.2,3c-2.9,3.1-5.6,6.3-8.5,9.2c-1.6,1.7-2.6,1.6-4.7,0.5c-0.8-0.5-1.6-1-2.5-1.2
			c-5.6-2.3-11.5-2-17.2-2.5c-3.4-0.3-6.6,0.9-9.5,2.4c-1.2,0.6-2.1,0.7-3.1-0.6c-3.3-4.6-6.7-9.3-10-13.9c-0.8-1.1-1.9-1.4-2.9-0.5
			c-1,1-2,2.3-2.5,3.6c-1,2.5-1.7,4.9-2.4,7.5c-1,3.9-1.9,7.8-2.7,11.7l0.3,0.1c0,0.8-0.1,1.8,0,2.7c0.1,0.4,0.5,0.9,0.8,1.1
			c2-5.3,3.8-10.4,3.8-16.2c0.1-0.6,0.2-1.1,0.5-1.7c0.2-1,0.7-1.8,1.1-2.8l0.1-0.2c0.1-0.3,0.3-0.5,0.6-0.7v-0.1
			c0.1-0.4,0.3-0.6,0.7-0.7c0.3-0.3,0.8-0.5,1.2-0.3c0.2,0.1,0.4,0.1,0.5,0.3c2,2.1,3.6,4.4,4.8,6.9c1.6,2.7,3.2,6.2,5.6,7.3
			c0.3,0.1,0.6,0.3,0.8,0.5c0.2,0.1,0.6,0.1,0.8,0.1c0.1-0.1,0.4,0,0.5-0.1c2.5-0.7,5.1-2.4,7.6-2.8c0.5-0.1,1-0.1,1.4,0.1
			c0.4-0.1,0.8-0.1,1.1-0.3c0.8-0.2,1.5-0.3,2.3-0.4c2.5-0.2,5.2,0,7.6,0.5c4.7,0.8,9.7,4.2,14.7,4.2c0.2-0.2,0.4-0.4,0.6-0.4
			c0.7-0.2,1.3-0.3,1.8-0.7c1.8-2.2,3.5-4.5,5.4-6.6c0-0.1,0.1-0.1,0.2-0.2c0.5-0.7,1-1.3,1.6-1.8c0.5-0.8,0.9-1.5,1.5-2.2
			c0.8-1,2.4-0.1,2,0.9c0.1,0.1,0.3,0.3,0.3,0.5c1,3.1,0.6,6.2,0.9,9.4c0.2,0.8,0.5,1.5,0.6,2.2c0.9,2.3,1.4,5.3,3.2,6.6
			c0.4,0,0.8-0.1,1.1-0.3C284.6,63.7,285.2,62.7,284.8,61.5L284.8,61.5z M200.8,97.7c0.6-5.1,0.9-9,1.4-12.9l0.1-0.3
			c0.4-1.3,0.9-2.9,2.6-2.3c1.5,0.5,0.7,2,0.5,3.1c-2.8,10.4-2.8,20.8-1.2,31.3c0.7,4.5,1.2,9.1,2.2,13.5c0.7,3.2,2,6.2,3.1,9.3
			c0.4,1.3,1.2,2.7-0.3,3.8c-0.9,0.6-2-0.6-2.6-2.6c-1.7-5.6-3.7-11-4.9-16.6c-0.8-3.5-0.4-7.3-0.6-11.1
			C201,107.3,201,101.8,200.8,97.7z M260.4,74c-0.6,1.5-1.4,3.1-1.9,4.6c-0.6,2-1,3.9-1.6,5.9c-0.2,0.6-0.6,0.9-1,1.4
			c-0.3-0.5-0.9-1-0.9-1.5c0.2-1.8,0.5-3.6,0.9-5.3c1-3.6,2.4-6.7,4.6-9.7c2.7-3.8,8.1-3.2,9.9,0.8c1.6,3.8,3,7.7,2.1,11.9
			c-0.3,1.2-0.1,2.7-0.4,4c-0.2,0.6-0.8,1-1.3,1.4c-0.3-0.5-0.9-1-1-1.6c-0.1-0.8,0-1.6,0.1-2.4c0.6-3.8,0.3-7.5-1.4-10.9
			c-0.5-1-1.8-1.7-2.8-2.4c-0.2-0.2-1,0.2-1.3,0.4c-0.2,0.2,0.1,0.9,0.3,1.2c2.2,3.6,1.4,10.1-1.6,12.8c-0.5,0.5-1.3,0.6-1.8,0.8
			c-0.2-0.7-0.7-1.3-0.6-2c0.1-2.6,0.3-5.3,0.4-8.1c0-0.5-0.2-0.9-0.3-1.3C260.7,74.1,260.5,74.1,260.4,74L260.4,74z M288.3,110.3
			c0.1,5.6-0.7,10.9-2.2,16.2c-1.5,5.1-2.8,10.4-4.1,15.5c-0.1,0.4-0.3,0.9-0.4,1.1c-0.4,0.4-0.9,0.5-1.3,0.7
			c-0.2-0.4-0.5-0.8-0.6-1.2c-0.1-0.4,0.1-0.8,0.2-1.1c1.8-6.6,3.9-13.2,5.3-19.8c0.8-3.7,1-7.7,1-11.5c0-6.5-0.3-13-0.6-19.5
			c-0.1-2.8-0.8-5.6-1.4-8.3c0-0.4-0.3-0.7-0.2-1c0.2-0.6,0.4-1.1,0.6-1.6c0.5,0.4,1.3,0.6,1.5,1.2c0.6,2,1.2,4,1.3,6
			c0.5,7.8,1,15.5,1.5,23.3C288.6,110.2,288.5,110.2,288.3,110.3L288.3,110.3z M221.4,78.2c0.3,1.4,0.6,3.5,0.8,5.4
			c0.1,0.6-0.3,1.4-0.4,2.2c-0.7-0.5-1.7-0.8-1.9-1.3c-0.5-1.8-0.9-3.8-0.9-5.7c-0.1-4.5,0.3-9,3.1-12.9c0.8-1.2,1.9-1.7,3.4-1.6
			c4,0.4,7.7,1.1,9.8,5c0.7,1.3,1.2,2.8,1.4,4.3c0.2,2.4,0.3,4.8,0.2,7.2c0,0.5-0.7,1-1.1,1.5c-0.5-0.5-1.3-1-1.4-1.5
			c-0.2-2.1-0.2-4.2-0.4-6.3c-0.5-4.7-4-7.6-8.7-7.1c-0.6,0.1-1.7,0.7-1.8,1.3C223,71.5,222.3,74.5,221.4,78.2z M261.4,107.4
			c0.2-0.3,0.5-0.7,0.7-1c0.4,0.2,1.1,0.4,1.2,0.8c0.6,1.7,0.9,3.7,1.5,5.4c0.3,0.7,0.7,1.8,1.1,1.9c0.6,0.2,1.5-0.5,2-1
			c1.6-1.6,3-3.4,4.5-5c0.4-0.4,1-0.4,1.5-0.6c0.1,0.5,0.3,1.1,0.3,1.5c-0.2,0.6-0.6,1.1-1,1.6c-1.8,2-3.6,4-5.5,5.9
			c-0.5,0.5-1.1,0.9-1.7,1.2c-1.4,0.8-2.5,0.3-2.8-1.2C262.5,113.8,262,110.6,261.4,107.4z"/>
		<path class="st3" d="M230.4,78.2c-0.3,1.2-0.4,2.4-0.9,3.6c-0.5,1.8-2.2,2-3.3,0.7c-0.3-0.5-0.7-0.9-0.9-1.5
			c-0.9-3-0.5-6.1,1.2-8.7c0.4-0.6,1.4-0.9,2.1-1.3c0.4,0.7,1,1.4,1.2,2.1C230.1,74.7,230.2,76.4,230.4,78.2L230.4,78.2z"/>
		<path class="st4" d="M243.6,105.5c-0.5-0.6-1.2-1-1.2-1.5c-0.7-3-1.3-6-1.9-8.9c0-0.4-0.1-0.8-0.1-1c0.1-0.3,0.3-0.6,0.6-1
			c0.3,0.2,0.9,0.4,0.9,0.6c0.6,1.7,1.1,3.5,1.6,5.3c0.2,0.8,0.7,1.4,0.9,2.2c0.7-0.4,1.6-0.5,2-1.1c1.5-1.7,2.8-3.7,4.2-5.6
			c0.2-0.4,0.6-0.8,0.9-1c0.3-0.2,0.9-0.1,1.2-0.1c0,0.5,0.2,1,0,1.2c-2.3,3.1-4.4,6-6.7,8.9C245.6,104.4,244.6,104.8,243.6,105.5
			L243.6,105.5z"/>
		<path class="st3" d="M239.9,121.4c0.6,0.9,1.2,1.6,1.6,2.3c0.3,0.9,0.5,1.8,0.7,2.9c0.4,1.9,1.2,2.2,2.7,1.1
			c0.9-0.7,1.8-1.4,2.7-2c0.5-0.3,1.2-0.6,1.8-0.7c0.5,0,1,0.4,1.4,0.5c-0.3,0.5-0.3,1.5-0.7,1.6c-2.8,1-4.7,3.2-6.8,5
			c-1.4,1.3-2.7,0.9-2.9-0.8c-0.4-3-0.7-6.1-0.9-9.2C239.4,122.1,239.5,122,239.9,121.4z M213.9,112.9c0.4,0.6,0.9,1.1,1.2,1.7
			c0.7,1.7,1.2,3.3,1.9,4.9c0.3,0.7,0.8,1.4,1.3,2.1c1.1,1.3,2.4,1,2.9-0.6c0.7-2,1.4-3.9,2.2-6c0.1-0.4,0.3-0.9,0.6-1.3
			c0.2-0.3,0.7-0.4,1.1-0.3c0.1,0,0.3,0.6,0.4,0.8c0,0.3-0.1,0.6-0.1,0.8c-1,2.8-1.9,5.7-3,8.4c-0.4,1-1.4,2-2.4,2.2
			c-1.5,0.4-2-1.1-2.4-2.3c-1.3-3.2-2.7-6.4-3.8-9.6c-0.2-0.3-0.1-0.6-0.1-1C213.5,113.1,213.7,113.1,213.9,112.9L213.9,112.9z
			 M264.7,144c0.2-0.4,0.6-0.9,1-1.4c0.3,0.6,0.7,0.9,0.8,1.6c0.3,0.9,0.2,2,0.6,2.9c0.2,0.5,0.5,1.4,0.9,1.5s1.2-0.4,1.6-0.8
			c0.7-0.7,1.2-1.7,1.9-2.4c0.3-0.3,0.9-0.3,1.4-0.5c0.1,0.5,0.5,1.2,0.3,1.5c-1.7,2.3-3.4,4.5-5.2,6.5c-0.7,0.9-1.8,0.4-2.1-0.7
			C265.4,149.5,265.1,146.9,264.7,144L264.7,144z M230.6,155.2c-0.6-0.5-1.2-0.8-1.5-1.4c-1.2-2.2-2.3-4.3-3.3-6.6
			c-0.2-0.4,0.1-1.1,0.1-1.5c0.4,0.2,1.1,0.4,1.3,0.9c0.7,0.9,1.2,2.1,1.7,3.1c1.2,2.1,2,2.1,3.5,0.2c0.4-0.6,1-1.2,1.6-1.6
			c0.3-0.2,0.9-0.1,1.1,0.1c0.2,0.2,0.4,0.8,0.1,1.1c-1,1.6-2,3.4-3,4.9C232.1,154.6,231.4,154.8,230.6,155.2L230.6,155.2z"/>
	</g>
</g>
<g id="pen_2_">
	<path class="st5" d="M487.3,143.2l34.4-5.8c3.7-0.6,6.2-4.1,5.6-7.8l-1.7-9.9c-0.6-3.7-4.1-6.2-7.8-5.6l-34.4,5.8l-0.1-1.1
		c-0.7-4.6-5-7.6-9.6-6.9l-28.4,4.7l-184.3,31c0,0-220.7,43.3-239.6,56.3l-21,7.7c0,0-1,2,0.5,3.3c0,0,22.6,0.7,22.5,0.7
		c0,0,80.1,0.1,244.5-27.4l8-1.3l-11.4-0.6l127.7-23l-0.3,4.3l59.3-9.9l29.4-4.9C484.9,151.7,487.9,147.6,487.3,143.2z"/>
	<path class="st6" d="M482.4,117.7l36-6c3.7-0.6,7.2,1.9,7.8,5.6l1.7,9.9c0.6,3.7-1.9,7.2-5.6,7.8l-36,6L482.4,117.7z"/>
	<g>
		<g>
			<g>
				<g>
					<g>
						<g>
							<defs>
								<path id="SVGID_1_" d="M482.4,117.7l36-6c3.7-0.6,7.2,1.9,7.8,5.6l1.7,9.9c0.6,3.7-1.9,7.2-5.6,7.8l-36,6L482.4,117.7z"/>
							</defs>
							<clipPath id="SVGID_2_">
								<use xlink:href="#SVGID_1_"  style="overflow:visible;"/>
							</clipPath>
							<path class="st7" d="M484.3,129.4l35.7-6c0,0,4.8-0.4,5.2,6.6c0,0-0.2,2.4-1.5,4.6l5.2-1.4l-2.6-20.1l-4.5-2l-3.4,0.5l-36,6
								C482.4,117.7,484.3,129.4,484.3,129.4z"/>
						</g>
					</g>
				</g>
			</g>
		</g>
	</g>
	<path class="st8" d="M21.8,201.4l-21,7.7c0,0-1,2,0.5,3.3c0,0,22.6,0.7,22.5,0.7l0.2-3.6L21.8,201.4z"/>
	<path class="st6" d="M448,134.1l-1.1-6.5l-2.2-13.1l29.4-4.9c4.6-0.7,8.8,2.3,9.6,6.9l2,12.1C485.7,128.5,448,134.1,448,134.1z"/>
	<path class="st8" d="M485.7,128.4l2,12.1c0.7,4.6-2.2,8.8-6.8,9.6l-29.4,4.9l-3.5-20.9C448,134.1,485.7,128.4,485.7,128.4z"/>
	<path class="st9" d="M445.7,114.3l-184.3,30.9c0,0-220.7,43.3-239.6,56.3l1.9,11.7c0,0,80.1,0.1,244.5-27.4l184.3-30.9L445.7,114.3
		z"/>
	<g class="st10">
		<g>
			<g>
				<g>
					<g>
						<g>
							<g>
								<defs>
									<path id="SVGID_3_" d="M445.7,114.3l-184.3,30.9c0,0-220.7,43.3-239.6,56.3l1.9,11.7c0,0,80.1,0.1,244.5-27.4l184.3-30.9
										L445.7,114.3z"/>
								</defs>
								<clipPath id="SVGID_4_">
									<use xlink:href="#SVGID_3_"  style="overflow:visible;"/>
								</clipPath>
								<path class="st11" d="M449.1,134.5L17.8,206.8l2.7,16L251,196.1l202.7-34L449.1,134.5z"/>
							</g>
						</g>
					</g>
				</g>
			</g>
		</g>
	</g>
	<path class="st6" d="M272.5,143.3l24.3-4.1l3.7,22.5l-24.3,4.1L272.5,143.3z"/>
	<path class="st8" d="M275.8,163.9l24.3-4.1l3.5,20.6l-24.3,3.9L275.8,163.9z"/>
	<g>
		<g>
			<g>
				<g>
					<g>
						<g>
							<g>
								<defs>
									<path id="SVGID_5_" d="M452.5,154.8l28.4-4.7c4.6-0.7,7.6-5,6.9-9.6l-4-24c-0.7-4.6-5-7.6-9.6-6.9l-28.4,4.7l-0.9,0.1
										l-183.4,30.7c0,0-220.7,43.3-239.6,56.3l0.7,4.6l-4.8,0.8l2.7,16L251,196.1l202.8-33.9L452.5,154.8L452.5,154.8z"/>
								</defs>
								<clipPath id="SVGID_6_">
									<use xlink:href="#SVGID_5_"  style="overflow:visible;"/>
								</clipPath>
								<path class="st12" d="M334.3,152.7c0,0-0.7,6.6,4.9,5.8l138.6-20.3l4-3.1l-3.2-9.8l-142.4,26.2L334.3,152.7z"/>
							</g>
						</g>
					</g>
				</g>
			</g>
		</g>
		<g>
			<g>
				<g>
					<g>
						<g>
							<g>
								<defs>
									<path id="SVGID_7_" d="M452.5,154.8l28.4-4.7c4.6-0.7,7.6-5,6.9-9.6l-4-24c-0.7-4.6-5-7.6-9.6-6.9l-28.4,4.7l-0.9,0.1
										l-183.4,30.7c0,0-220.7,43.3-239.6,56.3l0.7,4.6l-4.8,0.8l2.7,16L251,196.1l202.8-33.9L452.5,154.8L452.5,154.8z"/>
								</defs>
								<clipPath id="SVGID_8_">
									<use xlink:href="#SVGID_7_"  style="overflow:visible;"/>
								</clipPath>
								<path class="st13" d="M472.4,109.8c0,0,9.5,1.4,8.8,12.8l-143.1,26.6c0,0-3.9,0.7-3.7,3.5l140.2-25.8c0,0,4.1-0.7,4.5,4.5
									c0,0,1.7,4.6-1.2,6.8l4.6-0.7c0,0,2.4,0.4,2.6,4.4c0,0,0.4,6.1-3.9,8.2l9.3-1.5l-6.8-40.5L472.4,109.8z"/>
							</g>
						</g>
					</g>
				</g>
			</g>
		</g>
	</g>
</g>
</svg>
