<?xml version="1.0" encoding="utf-8"?>
<!-- Generator: Adobe Illustrator 24.1.2, SVG Export Plug-In . SVG Version: 6.00 Build 0)  -->
<svg version="1.1" id="Layer_1" xmlns="http://www.w3.org/2000/svg" xmlns:xlink="http://www.w3.org/1999/xlink" x="0px" y="0px"
	 viewBox="0 0 84.3 97.3" style="enable-background:new 0 0 84.3 97.3;" xml:space="preserve">
<style type="text/css">
	.st0{opacity:0.25;fill:#10232D;enable-background:new    ;}
	.st1{fill:#2B2B2B;}
	.st2{fill:#1E1E1E;}
	.st3{fill:#3F3F3F;}
	.st4{fill:#CFCFCF;}
</style>
<g id="Layer_1_1_">
</g>
<g id="Layer_2_1_">
</g>
<g id="Layer_3">
</g>
<g id="Layer_4">
	<g id="binderclip_1_">
		<path class="st0" d="M84.3,58.6L62.5,47.2l3.8-11.9c1.8-6.3,5.9-8.2,7.7-8.7c1.8-0.5,3.5-1.4,4.8-2.6c2.5-2.3,3.5-5.1,3.6-7.4
			c0.1-3.5-1.5-6.8-4.3-9c-2.6-2-5.8-3.8-7.9-4.8S65.9,1.1,63.6,1C50.5,0.3,54,16.4,54,16.4c1,5.6-1.2,9-2.1,10.1
			c-0.4,0.5-0.7,0.9-1.1,1.4c-2.2,2.9-4.6,6.1-7.1,9.4L21.3,25.5L1,64.1l15.8,8.3l1-4.8l0.2,0.1c-0.1,0-0.2-0.1-0.2-0.1l-0.7,3.5
			c1.5,1.3,3.6,0.3,5.3-1.1l2.7,1.5L24,76.2l18.4,9.7l3.4-3.9l1.3,0.7c-0.8,5.3,2.3,6.1,2.3,6.1L49,89.4l15,7.9l18.3-34.7l0,0
			L84.3,58.6z M54,28.8c4.6-5.2,3.8-10.5,3.4-12.1c-0.2-0.9-0.4-1.8-0.5-2.6c-0.8-6.5,1.9-8.7,4.4-9.5c1.6-0.5,3.4-0.3,5,0.3
			c5.7,2.3,9,4.6,10.8,6.2c2.3,2,3,5.2,1.5,7.8c-2.3,4.2-8.6,5.9-8.6,5.9C65.3,25.5,61,40,61,40l-1.8,5.3l-12.7-6.7L54,28.8z"/>
		<g>
			<polygon class="st1" points="63,96.3 48,88.4 51.3,84.4 44.8,81 41.4,84.9 23,75.2 24.1,70.6 16.8,66.7 15.8,71.5 0,63.1 
				20.3,24.5 83.3,57.6 			"/>
			<polygon class="st2" points="16.8,66.7 2.2,59 0,63.1 15.8,71.5 			"/>
			<polygon class="st2" points="24.1,70.6 44.8,81 41.4,84.9 23,75.2 			"/>
			<polygon class="st2" points="51.3,84.4 65.3,91.8 63,96.3 48,88.4 			"/>
			
				<rect x="48.6" y="7.4" transform="matrix(0.4656 -0.885 0.885 0.4656 -10.9496 67.9192)" class="st3" width="4.4" height="71.2"/>
		</g>
		<path class="st4" d="M16.8,66.7c0,0,1.6,1.6,6.9-5.7c0,0,16-20.5,26.1-34c0.4-0.5,0.7-0.9,1.1-1.4C51.8,24.4,54,21,53,15.4
			c0,0-3.5-16.1,9.7-15.4c2.3,0.1,4.5,0.8,6.6,1.8c2.1,1.1,5.3,2.8,7.9,4.8c2.8,2.2,4.5,5.5,4.3,9c-0.1,2.3-1,5.1-3.6,7.4
			c-1.4,1.2-3.1,2.1-4.8,2.6c-1.9,0.5-5.9,2.4-7.7,8.7L50.1,81.6c-0.4,1.1,0.1,2.3,1.2,2.9l0,0l-2.8,3.4c0,0-4.2-1-1.6-9L60,39.1
			c0,0,4.3-14.5,9-15.2c0,0,6.2-1.7,8.6-5.9c1.5-2.6,0.7-5.9-1.5-7.8c-1.8-1.6-5.1-4-10.8-6.3c-1.6-0.7-3.3-0.8-5-0.3
			c-2.5,0.7-5.2,3-4.4,9.5c0.1,0.9,0.3,1.8,0.5,2.6c0.4,1.6,1.2,6.9-3.4,12.1l-28.4,38c0,0-5.3,7-8.4,4.3L16.8,66.7z"/>
	</g>
</g>
</svg>
