<?xml version="1.0" encoding="utf-8"?>
<!-- Generator: Adobe Illustrator 24.1.2, SVG Export Plug-In . SVG Version: 6.00 Build 0)  -->
<svg version="1.1" id="Layer_1" xmlns="http://www.w3.org/2000/svg" xmlns:xlink="http://www.w3.org/1999/xlink" x="0px" y="0px"
	 viewBox="0 0 44.2 431.3" style="enable-background:new 0 0 44.2 431.3;" xml:space="preserve">
<style type="text/css">
	.st0{opacity:0.25;fill:#10232D;enable-background:new    ;}
	.st1{fill:#E0DCBD;}
	.st2{opacity:0.5;fill:#5EA3A0;enable-background:new    ;}
	.st3{fill:#29828A;}
	.st4{fill:#5EA3A0;}
	.st5{fill:#65A8A1;}
	.st6{fill:#ECE9CE;}
</style>
<g id="Layer_4">
	<g id="colorpencil_1_">
		<path class="st0" d="M30.4,82.5v-1.6v-0.3c0-0.5-0.1-1-0.1-1.6v-0.2c-0.1-2.4-0.4-5.3-0.7-6.3c-1.2-8.6-3.1-16.2-3.1-16.2L18.8,25
			L13.1,2L9.6,24.6L4.7,55.8c-0.1,0.9-0.3,1.7-0.5,2.6C3.3,63,2.8,68.5,2.6,73.1C2.5,74,2.5,75,2.5,76v6.8l13.9,345.6l6.7,2.8
			l14.7-0.4l6.5-3.2L30.4,82.5z"/>
		<g id="pencil_2_">
			<path class="st1" d="M0,80.9c0,0-0.2-14.4,1.8-24.5c0.2-0.9,0.3-1.7,0.5-2.6l4.9-31.2l9.2,0.4l7.7,31.3c0,0,3.8,14.4,4,26.2
				L0,80.9z"/>
			<path class="st2" d="M27.6,73.2c0.3,2.4,0.4,4.9,0.5,7.2l13.8,344.2l-6.4,4.3l-14.7-1.2l-6.8-4.9L0,80.9c0,0-0.1-4.3,0.2-9.8
				l2.9,5.2L7,65.2l6.7,8.7l6.5-8.9l4.6,10.4L27.6,73.2z"/>
			<path class="st3" d="M7,65.2l13.7,364.1l14.7-0.4l-15.2-364l-6.5,9L7,65.2z M7.2,22.6c0,0,4.2,2.2,9.2,0.4L10.7,0L7.2,22.6z"/>
			<path class="st4" d="M0.2,71l2.9,5.2l3.9-11l13.7,364.1l-6.7-2.8L0,80.9C0,80.9,0,74.6,0.2,71z"/>
			<path class="st5" d="M35.4,428.9l6.5-3.2L28,80.5c0,0-0.2-8.1-0.7-10.1l-2.5,5l-4.6-10.5L35.4,428.9z"/>
			<path class="st6" d="M7,65.2l6.7,8.7l6.6-9l-6.1-41.3c0,0-2.5,0.4-4.7-0.2L7,65.2z"/>
		</g>
	</g>
</g>
</svg>
