<?xml version="1.0" encoding="utf-8"?>
<!-- Generator: Adobe Illustrator 24.2.0, SVG Export Plug-In . SVG Version: 6.00 Build 0)  -->
<svg version="1.1" id="Layer_1" xmlns="http://www.w3.org/2000/svg" xmlns:xlink="http://www.w3.org/1999/xlink" x="0px" y="0px"
	 viewBox="0 0 1278.2 25.2" style="enable-background:new 0 0 1278.2 25.2;" xml:space="preserve">
<style type="text/css">
	.st0{fill:#AD8351;}
	.st1{opacity:0.4;}
	.st2{clip-path:url(#SVGID_2_);fill:#CCA171;}
	.st3{clip-path:url(#SVGID_4_);fill:#CCA171;}
	.st4{clip-path:url(#SVGID_6_);fill:#CCA171;}
	.st5{clip-path:url(#SVGID_8_);fill:#CCA171;}
	.st6{clip-path:url(#SVGID_10_);fill:#CCA171;}
</style>
<g id="Layer_1_1_">
	<g id="table_1_">
		<path class="st0" d="M1268.4,25.2H9.8c-5.4,0-9.8-4.4-9.8-9.8V9.8C0,4.4,4.4,0,9.8,0h1258.5c5.4,0,9.8,4.4,9.8,9.8v5.6
			C1278.2,20.8,1273.8,25.2,1268.4,25.2z"/>
		<g id="lines_1_" class="st1">
			<g>
				<defs>
					<path id="SVGID_1_" d="M1268.4,25.2H9.8c-5.4,0-9.8-4.4-9.8-9.8V9.8C0,4.4,4.4,0,9.8,0h1258.5c5.4,0,9.8,4.4,9.8,9.8v5.6
						C1278.2,20.8,1273.8,25.2,1268.4,25.2z"/>
				</defs>
				<clipPath id="SVGID_2_">
					<use xlink:href="#SVGID_1_"  style="overflow:visible;"/>
				</clipPath>
				<polygon class="st2" points="1055.3,14.5 975.9,12.8 886.6,11.9 782.5,12.5 725.5,13.6 686.5,12.4 559.7,10.2 508.4,12.1 
					457.6,13.6 355.9,11.9 303,13.6 222.2,10.2 0,13.2 0,12 222.2,8.9 303,12.4 355.9,10.6 457.6,12.4 508.3,10.9 559.7,8.9 
					686.5,11.1 725.5,12.4 782.5,11.3 886.6,10.6 975.9,11.6 1055.3,13.3 1185.7,11.9 1225.7,10.1 1278.2,12 1278.2,13.2 
					1225.7,11.4 1185.7,13.1 				"/>
			</g>
			<g>
				<defs>
					<path id="SVGID_3_" d="M1268.4,25.2H9.8c-5.4,0-9.8-4.4-9.8-9.8V9.8C0,4.4,4.4,0,9.8,0h1258.5c5.4,0,9.8,4.4,9.8,9.8v5.6
						C1278.2,20.8,1273.8,25.2,1268.4,25.2z"/>
				</defs>
				<clipPath id="SVGID_4_">
					<use xlink:href="#SVGID_3_"  style="overflow:visible;"/>
				</clipPath>
				<polygon class="st3" points="1055.3,7.2 975.9,5.5 886.6,4.6 782.5,5.2 725.5,6.3 686.5,5 559.7,2.8 508.4,4.8 457.6,6.3 
					355.9,4.6 303,6.3 222.2,2.8 0,5.9 0,4.7 222.2,1.6 303,5 355.9,3.3 457.6,5 508.3,3.5 559.7,1.6 686.5,3.8 725.5,5 782.5,4 
					886.6,3.3 975.9,4.2 1055.3,6 1185.7,4.6 1225.7,2.8 1278.2,4.7 1278.2,5.9 1225.7,4.1 1185.7,5.8 				"/>
			</g>
			<g>
				<defs>
					<path id="SVGID_5_" d="M1268.4,25.2H9.8c-5.4,0-9.8-4.4-9.8-9.8V9.8C0,4.4,4.4,0,9.8,0h1258.5c5.4,0,9.8,4.4,9.8,9.8v5.6
						C1278.2,20.8,1273.8,25.2,1268.4,25.2z"/>
				</defs>
				<clipPath id="SVGID_6_">
					<use xlink:href="#SVGID_5_"  style="overflow:visible;"/>
				</clipPath>
				<polygon class="st4" points="1055.3,22.9 975.9,21.2 886.6,20.3 782.5,20.9 725.5,22 686.5,20.8 559.7,18.6 508.4,20.5 
					457.6,22 355.9,20.3 303,22 222.2,18.6 0,21.6 0,20.4 222.2,17.3 303,20.7 355.9,19 457.6,20.7 508.3,19.3 559.7,17.3 
					686.5,19.5 725.5,20.7 782.5,19.7 886.6,19 975.9,20 1055.3,21.7 1185.7,20.3 1225.7,18.5 1278.2,20.4 1278.2,21.6 1225.7,19.8 
					1185.7,21.5 				"/>
			</g>
			<g>
				<defs>
					<path id="SVGID_7_" d="M1268.4,25.2H9.8c-5.4,0-9.8-4.4-9.8-9.8V9.8C0,4.4,4.4,0,9.8,0h1258.5c5.4,0,9.8,4.4,9.8,9.8v5.6
						C1278.2,20.8,1273.8,25.2,1268.4,25.2z"/>
				</defs>
				<clipPath id="SVGID_8_">
					<use xlink:href="#SVGID_7_"  style="overflow:visible;"/>
				</clipPath>
				<polygon class="st5" points="223,20.8 92.5,19.3 52.5,17.6 0.1,19.4 0,18.2 52.5,16.3 92.6,18.1 223,19.5 302.3,17.8 
					391.6,16.8 495.8,17.5 552.8,18.6 591.7,17.3 718.5,15.1 769.9,17.1 820.7,18.6 922.3,16.8 975.3,18.6 1055.9,15.1 1278.2,18.2 
					1278.2,19.4 1056,16.4 975.3,19.8 922.3,18.1 820.7,19.8 769.9,18.3 718.5,16.4 591.7,18.6 552.8,19.8 495.7,18.7 391.6,18.1 
					302.3,19 				"/>
			</g>
			<g>
				<defs>
					<path id="SVGID_9_" d="M1268.4,25.2H9.8c-5.4,0-9.8-4.4-9.8-9.8V9.8C0,4.4,4.4,0,9.8,0h1258.5c5.4,0,9.8,4.4,9.8,9.8v5.6
						C1278.2,20.8,1273.8,25.2,1268.4,25.2z"/>
				</defs>
				<clipPath id="SVGID_10_">
					<use xlink:href="#SVGID_9_"  style="overflow:visible;"/>
				</clipPath>
				<polygon class="st6" points="223,10.7 92.5,9.2 52.5,7.5 0.1,9.4 0,8.1 52.5,6.3 92.6,8 223,9.5 302.3,7.7 391.6,6.8 495.8,7.4 
					552.8,8.5 591.7,7.3 718.5,5.1 769.9,7 820.7,8.5 922.3,6.8 975.3,8.5 1055.9,5.1 1278.2,8.1 1278.2,9.4 1056,6.3 975.3,9.7 
					922.3,8 820.7,9.7 769.9,8.2 718.5,6.3 591.7,8.5 552.8,9.7 495.7,8.6 391.6,8 302.3,8.9 				"/>
			</g>
		</g>
	</g>
</g>
<g id="Layer_2_1_">
</g>
<g id="Layer_3">
</g>
<g id="Layer_4">
</g>
</svg>
