<?xml version="1.0" encoding="utf-8"?>
<!-- Generator: Adobe Illustrator 24.1.2, SVG Export Plug-In . SVG Version: 6.00 Build 0)  -->
<svg version="1.1" xmlns="http://www.w3.org/2000/svg" xmlns:xlink="http://www.w3.org/1999/xlink" x="0px" y="0px"
	 viewBox="0 0 1278.2 25.2" style="enable-background:new 0 0 1278.2 25.2;" xml:space="preserve">
<style type="text/css">
	.st0{fill:#EDE0C1;}
	.st1{fill:#787878;}
	.st2{fill:#FFFFFF;}
	.st3{fill:#E2CFB5;}
	.st4{fill:#D0BAA2;}
	.st5{opacity:0.7;clip-path:url(#SVGID_2_);}
	.st6{fill:#C1C0C0;}
	.st7{fill:#7B7B7B;}
	.st8{fill:#BAD6CE;}
	.st9{fill:#797979;}
	.st10{opacity:0.3;}
	.st11{fill:#0A1D28;}
	.st12{fill:#5EA5A2;}
	.st13{opacity:0.5;fill:#5EA3A0;}
	.st14{opacity:0.5;fill:#87C1B4;}
	.st15{opacity:0.5;fill:#8E5825;}
	.st16{opacity:0.5;fill:#B49262;}
	.st17{clip-path:url(#SVGID_4_);fill:#10232D;}
	.st18{clip-path:url(#SVGID_4_);}
	.st19{opacity:0.6;}
	.st20{fill:#FBF7D6;}
	.st21{clip-path:url(#SVGID_6_);fill:#E7E2C8;}
	.st22{clip-path:url(#SVGID_8_);fill:#E7E2C8;}
	.st23{clip-path:url(#SVGID_10_);fill:#E7E2C8;}
	.st24{fill:#E7E2C8;}
	.st25{opacity:0.6;clip-path:url(#SVGID_4_);}
	.st26{opacity:0.58;fill:#ECE9CE;}
	.st27{fill:#ECE9CE;}
	.st28{opacity:0.8;fill:#ECE9CE;}
	.st29{opacity:0.95;fill:#ECE9CE;}
	.st30{opacity:0.55;fill:#ECE9CE;}
	.st31{opacity:0.7;fill:#ECE9CE;}
	.st32{opacity:0.85;clip-path:url(#SVGID_4_);fill:#FBF7D6;}
	.st33{opacity:0.24;fill:#F9F6E8;}
	.st34{fill:#354548;}
	.st35{fill:#4E5726;}
	.st36{fill:#728638;}
	.st37{fill:#4D5F2B;}
	.st38{fill:#637D37;}
	.st39{fill:#627C37;}
	.st40{fill:none;stroke:#4D5F2B;stroke-width:0.5;stroke-miterlimit:10;}
	.st41{fill:#8E5825;}
	.st42{fill:#5A4A42;}
	.st43{fill:#63361D;}
	.st44{clip-path:url(#SVGID_12_);fill:#493C37;}
	.st45{fill:#AE875A;}
	.st46{clip-path:url(#SVGID_14_);fill:#CCA171;}
	.st47{fill:#C1A781;}
	.st48{clip-path:url(#SVGID_16_);fill:#A0896D;}
	.st49{fill:#F2D69B;}
	.st50{clip-path:url(#SVGID_18_);fill:#E4C794;}
	.st51{clip-path:url(#SVGID_18_);fill:#CCB186;}
	.st52{clip-path:url(#SVGID_18_);fill:#FFF6E2;}
	.st53{fill:#7A756A;}
	.st54{fill:#E4B559;}
	.st55{fill:#493C37;}
	.st56{fill:#7D5923;}
	.st57{opacity:0.4;fill:#532B16;}
	.st58{fill:#84491F;}
	.st59{fill:#CA6B2A;}
	.st60{fill:#9C5725;}
	.st61{fill:#D67A33;}
	.st62{fill:#532B16;}
	.st63{fill:#673718;}
	.st64{fill:#924E22;}
	.st65{fill:#CC6C28;}
	.st66{fill:#E27630;}
	.st67{fill:#9D4728;}
	.st68{fill:#B8552D;}
	.st69{fill:#BCB099;}
	.st70{fill:#FFF9DD;}
	.st71{fill:#29828A;}
	.st72{clip-path:url(#SVGID_20_);fill:#CECECD;}
	.st73{clip-path:url(#SVGID_20_);}
	.st74{fill:#818282;}
	.st75{fill:#2B3A3A;}
	.st76{fill:#1A2323;}
	.st77{fill:#767576;}
	.st78{fill:#3A5251;}
	.st79{fill:#5EA3A0;}
	.st80{fill:#99999A;}
	.st81{fill:#353535;}
	.st82{fill:#0F0F10;}
	.st83{fill:#10232D;}
	.st84{fill:#57657B;}
	.st85{opacity:0.2;clip-path:url(#SVGID_22_);fill:#FFFFFF;}
	.st86{clip-path:url(#SVGID_24_);fill:#CECECD;}
	.st87{clip-path:url(#SVGID_24_);}
	.st88{fill:#272A2F;}
	.st89{clip-path:url(#SVGID_26_);fill:#2C2F34;}
	.st90{fill:#030203;}
	.st91{fill:#DBE3F3;}
	.st92{fill:#757C83;}
	.st93{fill:#8D8C8E;}
	.st94{fill:#B6B1B5;}
	.st95{opacity:0.2;fill:#FFFFFF;}
	.st96{fill:#222830;}
	.st97{fill:#292F38;}
	.st98{fill:none;stroke:#000000;stroke-miterlimit:10;}
	.st99{fill:none;stroke:#10232D;stroke-miterlimit:10;}
	.st100{fill:#8CC3B7;}
	.st101{fill:#5B918D;}
	.st102{clip-path:url(#SVGID_28_);fill:#5B918D;}
	.st103{clip-path:url(#SVGID_30_);fill:#5B918D;}
	.st104{fill:#2A3837;}
	.st105{fill:#C1BDA7;}
	.st106{clip-path:url(#SVGID_32_);fill:#A29E8D;}
	.st107{fill:url(#SVGID_33_);}
	.st108{clip-path:url(#SVGID_35_);fill:#8CC3B7;}
	.st109{clip-path:url(#SVGID_35_);fill:#5B918D;}
	.st110{fill:#305556;}
	.st111{clip-path:url(#SVGID_37_);fill:#8CC3B7;}
	.st112{display:none;}
	.st113{display:inline;fill:#29828A;}
	.st114{clip-path:url(#SVGID_39_);fill:#CCA171;}
	.st115{fill:#0E1C23;}
	.st116{fill:#0C1514;}
	.st117{clip-path:url(#SVGID_41_);fill:#285051;}
	.st118{clip-path:url(#SVGID_41_);}
	.st119{fill:#F9F6E8;}
	.st120{clip-path:url(#SVGID_43_);fill:#E5E2D7;}
	.st121{clip-path:url(#SVGID_45_);fill:#E5E2D7;}
	.st122{clip-path:url(#SVGID_47_);fill:#E5E2D7;}
	.st123{fill:#E5E2D7;}
	.st124{clip-path:url(#SVGID_41_);fill:#F9F6E8;}
	.st125{fill:#3B421F;}
	.st126{clip-path:url(#SVGID_49_);fill:#493C37;}
	.st127{fill:#2D3F3F;}
	.st128{opacity:0.7;fill:#EAD6B5;}
	.st129{clip-path:url(#SVGID_51_);fill:#2D3F3F;}
	.st130{clip-path:url(#SVGID_53_);fill:#2D3F3F;}
	.st131{fill:#22302F;}
	.st132{fill:#FFDBA3;}
	.st133{fill:#FFE1B7;}
	.st134{clip-path:url(#SVGID_55_);fill:#FFD399;}
	.st135{fill:url(#SVGID_56_);}
	.st136{clip-path:url(#SVGID_58_);fill:#3A5251;}
	.st137{clip-path:url(#SVGID_58_);fill:#22302F;}
	.st138{clip-path:url(#SVGID_60_);fill:#3A5251;}
	.st139{fill:#F0EAC6;}
	.st140{fill:#0D1D28;}
	.st141{display:inline;fill:#5EA3A0;}
	.st142{clip-path:url(#SVGID_62_);fill:#2D3F3F;}
	.st143{clip-path:url(#SVGID_64_);fill:#2D3F3F;}
	.st144{display:inline;fill:#FFDBA3;}
	.st145{display:inline;}
	.st146{clip-path:url(#SVGID_66_);fill:#FFD399;}
	.st147{fill:#111A1D;}
	.st148{fill:#9F9B8A;}
	.st149{clip-path:url(#SVGID_68_);fill:#828072;}
	.st150{fill:url(#SVGID_69_);}
	.st151{clip-path:url(#SVGID_71_);fill:#3A5251;}
	.st152{clip-path:url(#SVGID_71_);fill:#22302F;}
	.st153{clip-path:url(#SVGID_73_);fill:#3A5251;}
	.st154{opacity:0.5;clip-path:url(#SVGID_75_);}
	.st155{fill:#BE976A;}
	.st156{opacity:0.5;fill:#7B5D41;}
	.st157{clip-path:url(#SVGID_77_);fill:#E5D7B5;}
	.st158{fill:#B9B9BA;}
	.st159{opacity:0.25;fill:#5EA3A0;}
	.st160{clip-path:url(#SVGID_79_);}
	.st161{opacity:0.35;fill:#10232D;}
	.st162{fill:#161F23;}
	.st163{opacity:0.76;}
	.st164{fill:#EFECD0;}
	.st165{fill:#3A3A3A;}
	.st166{clip-path:url(#SVGID_81_);fill:#4A4A48;}
	.st167{fill:#282828;}
	.st168{fill:#3D3D3D;}
	.st169{fill:#285051;}
	.st170{opacity:0.5;}
	.st171{clip-path:url(#SVGID_83_);fill:#224444;}
	.st172{fill:#403C3B;}
	.st173{clip-path:url(#SVGID_85_);fill:#3D3D3D;}
	.st174{clip-path:url(#SVGID_85_);fill:#595B58;}
	.st175{fill:#191C1F;}
	.st176{clip-path:url(#SVGID_87_);fill:#4A4A48;}
	.st177{clip-path:url(#SVGID_89_);fill:#224444;}
	.st178{clip-path:url(#SVGID_91_);fill:#3D3D3D;}
	.st179{clip-path:url(#SVGID_91_);fill:#595B58;}
	.st180{opacity:0.5;clip-path:url(#SVGID_93_);}
	.st181{opacity:0.25;fill:#10232D;}
	.st182{fill:#E5D7B5;}
	.st183{fill:none;stroke:#CABB9A;stroke-miterlimit:10;}
	.st184{fill:#E2D1AC;}
	.st185{fill:#F4F0E9;}
	.st186{opacity:0.1;fill:#10232D;}
	.st187{fill:#C5B99D;}
	.st188{fill:#F8F4ED;}
	.st189{fill:#2B2B2B;}
	.st190{fill:#1E1E1E;}
	.st191{fill:#3F3F3F;}
	.st192{fill:#CFCFCF;}
	.st193{fill:#E0DCBD;}
	.st194{fill:#65A8A1;}
	.st195{fill:#BAAE95;}
	.st196{opacity:0.25;fill:#10232D;enable-background:new    ;}
	.st197{opacity:0.1;fill:#10232D;enable-background:new    ;}
</style>
<g id="Layer_1">
	<g id="table_1_">
		<path class="st45" d="M1268.4,25.2H9.8c-5.4,0-9.8-4.4-9.8-9.8V9.8C0,4.4,4.4,0,9.8,0l1258.5,0c5.4,0,9.8,4.4,9.8,9.8v5.6
			C1278.2,20.8,1273.8,25.2,1268.4,25.2z"/>
		<g id="lines_1_">
			<defs>
				<path id="SVGID_38_" d="M1268.4,25.2H9.8c-5.4,0-9.8-4.4-9.8-9.8V9.8C0,4.4,4.4,0,9.8,0l1258.5,0c5.4,0,9.8,4.4,9.8,9.8v5.6
					C1278.2,20.8,1273.8,25.2,1268.4,25.2z"/>
			</defs>
			<clipPath id="SVGID_2_">
				<use xlink:href="#SVGID_38_"  style="overflow:visible;"/>
			</clipPath>
			<polygon style="clip-path:url(#SVGID_2_);fill:#CCA171;" points="1055.3,14.5 975.9,12.8 886.6,11.9 782.5,12.5 725.5,13.6 
				686.5,12.4 559.7,10.2 508.4,12.1 457.6,13.6 355.9,11.9 303,13.6 222.2,10.2 0,13.2 0,12 222.2,8.9 303,12.4 355.9,10.6 
				457.6,12.4 508.3,10.9 559.7,8.9 686.5,11.1 725.5,12.4 782.5,11.3 886.6,10.6 975.9,11.6 1055.3,13.3 1185.7,11.9 1225.7,10.1 
				1278.2,12 1278.2,13.2 1225.7,11.4 1185.7,13.1 			"/>
			<polygon style="clip-path:url(#SVGID_2_);fill:#CCA171;" points="1055.3,7.2 975.9,5.5 886.6,4.6 782.5,5.2 725.5,6.3 686.5,5 
				559.7,2.8 508.4,4.8 457.6,6.3 355.9,4.6 303,6.3 222.2,2.8 0,5.9 0,4.7 222.2,1.6 303,5 355.9,3.3 457.6,5 508.3,3.5 559.7,1.6 
				686.5,3.8 725.5,5 782.5,4 886.6,3.3 975.9,4.2 1055.3,6 1185.7,4.6 1225.7,2.8 1278.2,4.7 1278.2,5.9 1225.7,4.1 1185.7,5.8 			
				"/>
			<polygon style="clip-path:url(#SVGID_2_);fill:#CCA171;" points="1055.3,22.9 975.9,21.2 886.6,20.3 782.5,20.9 725.5,22 
				686.5,20.8 559.7,18.6 508.4,20.5 457.6,22 355.9,20.3 303,22 222.2,18.6 0,21.6 0,20.4 222.2,17.3 303,20.7 355.9,19 
				457.6,20.7 508.3,19.3 559.7,17.3 686.5,19.5 725.5,20.7 782.5,19.7 886.6,19 975.9,20 1055.3,21.7 1185.7,20.3 1225.7,18.5 
				1278.2,20.4 1278.2,21.6 1225.7,19.8 1185.7,21.5 			"/>
			<polygon style="clip-path:url(#SVGID_2_);fill:#CCA171;" points="223,20.8 92.5,19.3 52.5,17.6 0.1,19.4 0,18.2 52.5,16.3 
				92.6,18.1 223,19.5 302.3,17.8 391.6,16.8 495.8,17.5 552.8,18.6 591.7,17.3 718.5,15.1 769.9,17.1 820.7,18.6 922.3,16.8 
				975.3,18.6 1055.9,15.1 1278.2,18.2 1278.2,19.4 1056,16.4 975.3,19.8 922.3,18.1 820.7,19.8 769.9,18.3 718.5,16.4 591.7,18.6 
				552.8,19.8 495.7,18.7 391.6,18.1 302.3,19 			"/>
			<polygon style="clip-path:url(#SVGID_2_);fill:#CCA171;" points="223,10.7 92.5,9.2 52.5,7.5 0.1,9.4 0,8.1 52.5,6.3 92.6,8 
				223,9.5 302.3,7.7 391.6,6.8 495.8,7.4 552.8,8.5 591.7,7.3 718.5,5.1 769.9,7 820.7,8.5 922.3,6.8 975.3,8.5 1055.9,5.1 
				1278.2,8.1 1278.2,9.4 1056,6.3 975.3,9.7 922.3,8 820.7,9.7 769.9,8.2 718.5,6.3 591.7,8.5 552.8,9.7 495.7,8.6 391.6,8 
				302.3,8.9 			"/>
		</g>
	</g>
</g>
<g id="Layer_2">
</g>
<g id="Layer_3">
</g>
<g id="Layer_4">
</g>
</svg>
