<svg id="file" xmlns="http://www.w3.org/2000/svg" xmlns:xlink="http://www.w3.org/1999/xlink" x="0px" y="0px"
	 viewBox="0 0 1190.1 564">
<style type="text/css">
	.st0{opacity:0.25;fill:#10232D;enable-background:new    ;}
	.st1{fill:#E5D7B5;}
	.st2{fill:none;stroke:#CABB9A;stroke-miterlimit:10;}
	.st3{fill:#E2D1AC;}
	.st4{fill:#F4F0E9;}
	.st5{opacity:0.1;fill:#10232D;enable-background:new    ;}
	.st6{fill:#E0DCBD;}
	.st7{opacity:0.5;fill:#5EA3A0;enable-background:new    ;}
	.st8{fill:#29828A;}
	.st9{fill:#5EA3A0;}
	.st10{fill:#65A8A1;}
	.st11{fill:#ECE9CE;}
	.st12{fill:#2B2B2B;}
	.st13{fill:#1E1E1E;}
	.st14{fill:#3F3F3F;}
	.st15{fill:#CFCFCF;}
</style>
<g id="Layer_4">
	<g id="file_3_">
		<path class="st0" d="M175.6,8.8h899.6c3.1,11.3,10.4,12.1,10.4,12.1c4.7,0.6,8.3,1.5,11,2.4c4.8,1.7,8,5.8,8.2,10.3l6.3,149.3
			c-3.9,9.4-12.5,8.6-17.6,12.6c-9.3,7.4-8,16.3-8,16.3l0.2,313.5c0,15-14.1,27.2-31.5,27.2l-901.8,2.7c-20.7,0-37.3-14.3-37.3-31.9
			V208c0,0,0-10,15.2-11c1.9-0.1,3.6-0.7,5.2-1.5c4.5-2.3,7-6.6,7.1-11l3.6-150.3c0,0-0.9-11,20.2-14.2
			C175.1,18.7,175.6,8.8,175.6,8.8z"/>
		<g id="folder_1_">
			<path class="st1" d="M171.7,4.8h900.7c3.1,11.3,10.4,12.2,10.4,12.2c4.7,0.6,8.3,1.5,11,2.4c4.8,1.7,8,5.8,8.2,10.3l6.3,149.5
				c-3.9,9.4-12.6,8.6-17.7,12.6c-9.4,7.4-8,16.3-8,16.3l0.2,313.9c0,15-14.1,27.2-31.6,27.2l-903,2.7c-20.4,0-37.1-14.3-37.1-32
				V204.3c0,0,0-10,15.2-11c1.9-0.1,3.7-0.7,5.2-1.5c4.5-2.3,7-6.6,7.1-11.1l3.6-150.5c0,0-0.9-11,20.2-14.2
				C171.2,14.8,171.7,4.8,171.7,4.8L171.7,4.8z"/>
			<path class="st2" d="M612.4,550.5V4.8"/>
			<path class="st3" d="M606.9,550.5l-458.6,1.3c-20.5,0.1-37.2-14.2-37.2-31.9V204.3c0,0,0-10,15.2-11c1.9-0.1,3.7-0.7,5.2-1.5
				c4.5-2.3,7-6.6,7.1-11.1l3.6-150.5c0,0-0.9-11,20.2-14.2c8.8-1.3,9.3-11.3,9.3-11.3h435.2V550.5L606.9,550.5z"/>
		</g>
		<g id="papers_3_">
			<path id="bottom_3_" class="st4" d="M657.2,1.9l370.1,16.6L1002.9,564l-370.1-16.6L657.2,1.9z"/>
			<g id="top_3_">
				<path class="st5" d="M643.2,4.2h370.5v546.1H643.2V4.2z"/>
				<path class="st4" d="M638.7,0.2h370.5v546.1H638.7V0.2z"/>
			</g>
		</g>
	</g>
</g>
<g id="Layer_4_1_">
	<g id="colorpencil_1_">
		<path class="st0" d="M1176.2,172.7v-1.6v-0.3c0-0.5-0.1-1-0.1-1.6V169c-0.1-2.4-0.4-5.3-0.7-6.3c-1.2-8.6-3.1-16.2-3.1-16.2
			l-7.7-31.3l-5.7-23l-3.5,22.6l-4.9,31.2c-0.1,0.9-0.3,1.7-0.5,2.6c-0.9,4.6-1.4,10.1-1.6,14.7c-0.1,0.9-0.1,1.9-0.1,2.9v6.8
			l13.9,345.6l6.7,2.8l14.7-0.4l6.5-3.2L1176.2,172.7z"/>
		<g id="pencil_2_">
			<path class="st6" d="M1145.8,171.1c0,0-0.2-14.4,1.8-24.5c0.2-0.9,0.3-1.7,0.5-2.6l4.9-31.2l9.2,0.4l7.7,31.3
				c0,0,3.8,14.4,4,26.2L1145.8,171.1z"/>
			<path class="st7" d="M1173.4,163.4c0.3,2.4,0.4,4.9,0.5,7.2l13.8,344.2l-6.4,4.3l-14.7-1.2l-6.8-4.9l-14-341.9
				c0,0-0.1-4.3,0.2-9.8l2.9,5.2l3.9-11.1l6.7,8.7l6.5-8.9l4.6,10.4L1173.4,163.4z"/>
			<path class="st8" d="M1152.8,155.4l13.7,364.1l14.7-0.4l-15.2-364l-6.5,9L1152.8,155.4z M1153,112.8c0,0,4.2,2.2,9.2,0.4l-5.7-23
				L1153,112.8z"/>
			<path class="st9" d="M1146,161.2l2.9,5.2l3.9-11l13.7,364.1l-6.7-2.8l-14-345.6C1145.8,171.1,1145.8,164.8,1146,161.2z"/>
			<path class="st10" d="M1181.2,519.1l6.5-3.2l-13.9-345.2c0,0-0.2-8.1-0.7-10.1l-2.5,5l-4.6-10.5L1181.2,519.1z"/>
			<path class="st11" d="M1152.8,155.4l6.7,8.7l6.6-9l-6.1-41.3c0,0-2.5,0.4-4.7-0.2L1152.8,155.4z"/>
		</g>
	</g>
</g>
<g id="Layer_4_2_">
	<g id="binderclip_1_">
		<path class="st0" d="M84.3,133.2l-21.8-11.4l3.8-11.9c1.8-6.3,5.9-8.2,7.7-8.7c1.8-0.5,3.5-1.4,4.8-2.6c2.5-2.3,3.5-5.1,3.6-7.4
			c0.1-3.5-1.5-6.8-4.3-9c-2.6-2-5.8-3.8-7.9-4.8s-4.3-1.7-6.6-1.8C50.5,74.9,54,91,54,91c1,5.6-1.2,9-2.1,10.1
			c-0.4,0.5-0.7,0.9-1.1,1.4c-2.2,2.9-4.6,6.1-7.1,9.4l-22.4-11.8L1,138.7l15.8,8.3l1-4.8l0.2,0.1c-0.1,0-0.2-0.1-0.2-0.1l-0.7,3.5
			c1.5,1.3,3.6,0.3,5.3-1.1l2.7,1.5l-1.1,4.7l18.4,9.7l3.4-3.9l1.3,0.7c-0.8,5.3,2.3,6.1,2.3,6.1L49,164l15,7.9l18.3-34.7l0,0
			L84.3,133.2z M54,103.4c4.6-5.2,3.8-10.5,3.4-12.1c-0.2-0.9-0.4-1.8-0.5-2.6c-0.8-6.5,1.9-8.7,4.4-9.5c1.6-0.5,3.4-0.3,5,0.3
			c5.7,2.3,9,4.6,10.8,6.2c2.3,2,3,5.2,1.5,7.8c-2.3,4.2-8.6,5.9-8.6,5.9c-4.7,0.7-9,15.2-9,15.2l-1.8,5.3l-12.7-6.7L54,103.4z"/>
		<g>
			<polygon class="st12" points="63,170.9 48,163 51.3,159 44.8,155.6 41.4,159.5 23,149.8 24.1,145.2 16.8,141.3 15.8,146.1 
				0,137.7 20.3,99.1 83.3,132.2 			"/>
			<polygon class="st13" points="16.8,141.3 2.2,133.6 0,137.7 15.8,146.1 			"/>
			<polygon class="st13" points="24.1,145.2 44.8,155.6 41.4,159.5 23,149.8 			"/>
			<polygon class="st13" points="51.3,159 65.3,166.4 63,170.9 48,163 			"/>
			
				<rect x="48.6" y="82" transform="matrix(0.4656 -0.885 0.885 0.4656 -76.9302 107.7539)" class="st14" width="4.4" height="71.2"/>
		</g>
		<path class="st15" d="M16.8,141.3c0,0,1.6,1.6,6.9-5.7c0,0,16-20.5,26.1-34c0.4-0.5,0.7-0.9,1.1-1.4C51.8,99,54,95.6,53,90
			c0,0-3.5-16.1,9.7-15.4c2.3,0.1,4.5,0.8,6.6,1.8c2.1,1.1,5.3,2.8,7.9,4.8c2.8,2.2,4.5,5.5,4.3,9c-0.1,2.3-1,5.1-3.6,7.4
			c-1.4,1.2-3.1,2.1-4.8,2.6c-1.9,0.5-5.9,2.4-7.7,8.7l-15.3,47.3c-0.4,1.1,0.1,2.3,1.2,2.9l0,0l-2.8,3.4c0,0-4.2-1-1.6-9L60,113.7
			c0,0,4.3-14.5,9-15.2c0,0,6.2-1.7,8.6-5.9c1.5-2.6,0.7-5.9-1.5-7.8c-1.8-1.6-5.1-4-10.8-6.3c-1.6-0.7-3.3-0.8-5-0.3
			c-2.5,0.7-5.2,3-4.4,9.5c0.1,0.9,0.3,1.8,0.5,2.6c0.4,1.6,1.2,6.9-3.4,12.1l-28.4,38c0,0-5.3,7-8.4,4.3L16.8,141.3z"/>
	</g>
</g>
<path id="nextarrow" class="st8" d="M916.3,511.6c0.1-1.8,1.3-2.4,2.8-2.7c3.4-0.8,6.8-1.2,10.2-1.5c3.3-0.3,6.6-0.5,10-0.6
	c2.9,0,5.7,0.1,8.6,0.3c6.8,0.3,13.5,1.4,20.2,2.1c0.2,0,0.3,0,0.6-0.2c-0.4-0.2-0.9-0.4-1.3-0.6c-2.5-1-5-1.9-7.5-2.9
	c-1.5-0.6-1.8-2-0.6-3.1c0.6-0.5,1.1-0.2,1.7,0c3.1,1.3,6.1,2.6,9.2,3.9l7.8,3.3c0.7,0.3,1.3,0.7,1.5,1.5v0.6
	c-0.2,0.7-0.7,1-1.4,1.2c-3.3,0.9-6.5,1.9-9.8,2.8c-3.1,0.8-6,2-8.9,3.1c-2.4,0.9-2.8-0.6-2.6-2.2c0.1-0.8,0.7-1.1,1.4-1.3
	c3.2-0.9,6.3-1.8,9.5-2.7c0.4-0.1,0.7-0.2,1.1-0.6c-1.9-0.2-3.8-0.4-5.6-0.6c-5.5-0.6-11-0.8-16.6-0.9c-8.9-0.2-17.7,0.4-26.3,2.8
	c-1.7,0.5-3,0.4-4-1.1C916.3,512.2,916.3,511.6,916.3,511.6z"/>
<path id="replayarrow" class="st8" d="M964.5,494.9c-1.4,0.2-1.8-0.7-2.3-1.3c-5.8-6.4-12.7-7.2-20.5-4.1c-7.4,2.8-11.6,8.2-12.3,16
	c-0.7,8.2,2.2,15,9.5,19.5c4.4,2.7,9.3,3.6,14.4,3.3c1.2-0.1,2.5-0.4,2.6-1.9s-1.1-1.8-2.3-2c-3.4-0.6-6.9-1.1-10.1-2.5
	c-7.6-3.2-11.4-10.1-9.8-17.7c1.6-7.4,9.3-13.8,16.5-13.6c4.6,0.1,7.7,2.6,10.4,7.4c-2.8-1.1-4.7-2-6.8-2.7c-1.8-0.6-3.8-1-4.7,1.2
	c-1.2,2.7,1.3,2.9,2.9,3.5c3,1.2,5.6,2.9,8,4.9c1.7,1.4,2.4,3.1,2,5.3c-0.3,1.9,0.8,2.8,2.5,3c1.8,0.2,2.3-1.1,2.4-2.5
	c0.6-7,1.2-13.9,3.6-20.6c0.5-1.3,0.1-2.3-1.3-2.7c-1.5-0.4-2.7,0-3.2,1.5C965.4,490.9,965,492.9,964.5,494.9z"/>
<rect x="890" y="465" fill="#000" opacity="0.5" width="10%" height="15%"/>
</svg>
