<svg id="laptop" xmlns="http://www.w3.org/2000/svg" xmlns:xlink="http://www.w3.org/1999/xlink" x="0px" y="0px"
	 viewBox="0 0 447.4 259.5" alt="Open laptop">
<style type="text/css">
	.st0{fill:#030203;}
	.st1{fill:#757C83;}
	.st2{fill:#FFFFFF;}
	.st3{fill:#8D8C8E;}
	.st4{fill:#B6B1B5;}
	.st5{fill:#222830;}
	.st6{fill:#292F38;}
	.st7{fill:#DBE3F3;}
	.st8{fill:#5EA3A0;}
	.st9{fill:#29828A;}
	.st10{fill:#10232D;}
	.st11{opacity:0.2;fill:#FFFFFF;enable-background:new    ;}
</style>
<path class="st0" d="M398.1,245.3H50.5c-4.4,0-7.9-3.5-7.9-7.9V7.9c0-4.4,3.5-7.9,7.9-7.9h347.6c4.4,0,7.9,3.5,7.9,7.9v229.5
	C406,241.7,402.5,245.3,398.1,245.3L398.1,245.3z"/>
<circle class="st1" cx="224.3" cy="8.1" r="3.1"/>
<path class="st2" d="M0,245.3h447.4v8.5H0V245.3z"/>
<path class="st3" d="M249.3,251.1h-51.2c-2.9,0-5.2-2.3-5.2-5.2v-0.6h61.6v0.6C254.5,248.7,252.2,251.1,249.3,251.1z"/>
<path class="st4" d="M434.3,259.5H10.8C7.7,259.5,0,257,0,253.8h447.4C447.4,256.9,437.4,259.5,434.3,259.5z"/>
<g id="off">
	<path class="st5" d="M54.9,15.1H394v212.5H54.9V15.1z"/>
	<path id="glare_6_" class="st6" d="M235.5,15.1l142,212.6H394V15.1H235.5z"/>
</g>
<g id="on">
	<path class="st7" d="M54.9,15.1H394v212.5H54.9V15.1z"/>
	<path class="st8" d="M292.9,119.6H155.3l0.4-75c0-3.5,2.8-6.3,6.3-6.3h31.1c6.8,0.6,7.6,4,9.3,7c2.1,3.7,6.4,4,6.4,4h78.4
		c3.4,0,6.1,2.7,6.1,6.1L292.9,119.6L292.9,119.6z"/>
	<path class="st9" d="M285.9,146.3H162.6c-4,0-7.3-3.3-7.3-7.3V67.1c0-6.4,5.2-11.5,11.5-11.5h112.4c7.7,0,14,6.3,14,14v69.3
		C293.3,143,290,146.3,285.9,146.3L285.9,146.3z"/>
	<path class="st8" d="M162.8,133h123v1h-123L162.8,133z M162.8,136.9h123v1h-123L162.8,136.9z"/>
	<path class="st10" d="M113.5,180.9v-3.8h7.6v13.6c-0.7,0.2-2.1,0.4-4.3,0.6c-2.1,0.2-3.7,0.3-4.7,0.3c-4.1,0-6.9-1.1-8.4-3.4
		c-1.5-2.2-2.3-5.7-2.3-10.5s0.8-8.2,2.4-10.4s4.3-3.3,8.2-3.3c2.3,0,4.9,0.3,7.7,0.8l1.4,0.3l-0.2,3.4c-3.1-0.4-6-0.6-8.5-0.6
		s-4.2,0.7-5.1,2.1c-0.9,1.4-1.4,4-1.4,7.8s0.4,6.4,1.3,7.9s2.6,2.2,5.3,2.2c1.9,0,3.3-0.1,4.2-0.4V181h-3.2V180.9z M126,191.2
		v-19.5h4.2v2.3c2.2-1.4,4.4-2.4,6.6-2.8v4.3c-2.2,0.4-4.1,1-5.7,1.7l-0.9,0.4v13.6H126z M154.6,177.7v8.9c0,0.6,0.2,1,0.4,1.3
		c0.3,0.3,0.7,0.4,1.3,0.5l-0.1,3.2c-2.2,0-4-0.5-5.2-1.4c-2.1,1-4.2,1.4-6.3,1.4c-3.9,0-5.8-2.1-5.8-6.2c0-2,0.5-3.4,1.6-4.3
		c1.1-0.9,2.7-1.4,4.9-1.6l5-0.4v-1.4c0-1-0.2-1.8-0.7-2.2s-1.1-0.6-2-0.6c-1.7,0-3.7,0.1-6.2,0.3l-1.2,0.1l-0.2-3
		c2.8-0.7,5.4-1,7.8-1s4.1,0.5,5.1,1.5S154.6,175.4,154.6,177.7L154.6,177.7z M145.8,182.5c-1.8,0.2-2.7,1.1-2.7,2.9
		s0.8,2.7,2.4,2.7c1.3,0,2.7-0.2,4.1-0.6l0.7-0.2v-5.2L145.8,182.5L145.8,182.5z M159.9,199.5v-27.9h4.2v1.2c1.8-1.1,3.5-1.6,5-1.6
		c2.6,0,4.5,0.8,5.7,2.4s1.8,4.2,1.8,7.9s-0.7,6.3-2,7.8c-1.4,1.5-3.6,2.3-6.7,2.3c-1.1,0-2.3-0.1-3.7-0.4v8.3H159.9z M168.4,175
		c-1.2,0-2.4,0.3-3.7,0.8l-0.6,0.3v11.5c1,0.2,2.2,0.3,3.4,0.3c1.8,0,3-0.5,3.7-1.5s1-2.7,1-5.2C172.3,177.1,171,175,168.4,175
		L168.4,175z M185.1,191.2h-4.3v-27.6h4.3v9.1c1.9-1,3.7-1.4,5.3-1.4c2.6,0,4.4,0.7,5.3,2.2c0.9,1.5,1.4,3.9,1.4,7.3v10.5h-4.3V181
		c0-2.1-0.2-3.6-0.7-4.5c-0.4-0.9-1.4-1.3-2.8-1.3c-1.2,0-2.5,0.2-3.7,0.6L185,176v15.2H185.1z M202.1,168.3v-4.5h4.3v4.5H202.1z
		 M202.1,191.2v-19.5h4.3v19.5H202.1z M218.8,171.2c1.4,0,3,0.2,4.9,0.5l1,0.2l-0.2,3.4c-2.1-0.2-3.6-0.3-4.6-0.3
		c-2,0-3.3,0.4-4,1.3c-0.7,0.9-1,2.5-1,5c0,2.4,0.3,4.1,1,5.1c0.6,0.9,2,1.4,4.1,1.4l4.6-0.3l0.1,3.4c-2.6,0.5-4.6,0.7-5.9,0.7
		c-3,0-5.1-0.8-6.3-2.4c-1.2-1.6-1.8-4.2-1.8-7.9c0-3.6,0.6-6.2,1.9-7.8C213.9,172,215.9,171.2,218.8,171.2L218.8,171.2z
		 M247.1,191.2h-9.2v-26.7h9.2c4.1,0,6.9,1,8.4,3.1s2.3,5.3,2.3,9.8c0,2.3-0.2,4.2-0.4,5.8c-0.3,1.6-0.8,3-1.6,4.3
		C254.3,189.9,251.4,191.2,247.1,191.2L247.1,191.2z M253.3,177.3c0-3.2-0.4-5.6-1.2-7s-2.5-2.1-5-2.1h-4.9v19.1h4.9
		c2.6,0,4.3-0.9,5.1-2.8c0.4-1,0.7-2,0.8-3.1S253.3,179,253.3,177.3L253.3,177.3z M276.2,187.6l1.1-0.1l0.1,3.2
		c-3,0.6-5.6,0.9-7.9,0.9c-2.9,0-5-0.8-6.2-2.4c-1.3-1.6-1.9-4.1-1.9-7.6c0-6.9,2.8-10.4,8.5-10.4c5.5,0,8.2,3,8.2,8.9l-0.3,3h-12.1
		c0,1.6,0.4,2.8,1.1,3.5c0.7,0.8,1.9,1.1,3.8,1.1C272.4,187.9,274.3,187.8,276.2,187.6L276.2,187.6z M273.9,179.9
		c0-1.9-0.3-3.3-0.9-4c-0.6-0.8-1.6-1.2-3.1-1.2s-2.5,0.4-3.2,1.2s-1,2.1-1,4H273.9z M295.7,175.7c-3.1-0.4-5.3-0.6-6.7-0.6
		c-1.4,0-2.3,0.2-2.9,0.5c-0.5,0.3-0.8,0.8-0.8,1.5s0.3,1.2,0.9,1.5s2,0.6,4.1,1s3.7,1,4.6,1.8s1.4,2.2,1.4,4.3s-0.7,3.6-2,4.5
		c-1.3,1-3.2,1.4-5.8,1.4c-1.6,0-3.6-0.2-6-0.7l-1.2-0.2l0.2-3.5c3.1,0.4,5.4,0.6,6.7,0.6c1.4,0,2.4-0.2,2.9-0.5
		c0.6-0.3,0.9-0.9,0.9-1.7s-0.3-1.3-0.8-1.6c-0.6-0.3-1.9-0.6-4-1s-3.7-0.9-4.7-1.7s-1.5-2.1-1.5-4.1s0.7-3.5,2-4.5
		c1.4-1,3.1-1.5,5.2-1.5c1.7,0,3.7,0.2,6.1,0.6l1.2,0.2L295.7,175.7L295.7,175.7z M300.4,168.3v-4.5h4.2v4.5H300.4z M300.4,191.2
		v-19.5h4.2v19.5H300.4z M326.9,193.8c0,4.3-3.1,6.4-9.2,6.4c-3,0-5.2-0.4-6.6-1.2s-2.1-2.3-2.1-4.4c0-1,0.2-1.8,0.7-2.5
		s1.2-1.4,2.3-2.2c-0.9-0.6-1.3-1.5-1.3-2.8c0-0.5,0.4-1.4,1.1-2.5l0.4-0.6c-1.9-1.1-2.8-3.1-2.8-5.8c0-2.3,0.7-4.1,2.1-5.1
		c1.4-1.1,3.3-1.6,5.7-1.6c1.1,0,2.3,0.1,3.4,0.4l0.6,0.1l6-0.2v3.4L324,175c0.7,0.9,1.1,2,1.1,3.2c0,2.5-0.6,4.3-1.9,5.3
		s-3.3,1.5-6,1.5c-0.7,0-1.2-0.1-1.7-0.2c-0.4,0.9-0.5,1.6-0.5,2c0,0.5,0.2,0.8,0.7,1s1.6,0.3,3.5,0.3c3.1,0,5.2,0.4,6.4,1.2
		C326.3,190,326.9,191.6,326.9,193.8L326.9,193.8z M313.1,194.2c0,0.9,0.4,1.6,1.1,2s2,0.6,3.7,0.6c3.1,0,4.7-0.9,4.7-2.7
		c0-1-0.3-1.7-0.8-1.9c-0.6-0.3-1.7-0.4-3.3-0.4l-3.8-0.2c-0.6,0.5-1,0.9-1.2,1.3S313.1,193.6,313.1,194.2L313.1,194.2z
		 M314.3,180.7c0.6,0.6,1.5,0.8,2.8,0.8s2.2-0.3,2.8-0.8c0.6-0.6,0.8-1.4,0.8-2.6c0-1.2-0.3-2.1-0.9-2.6c-0.6-0.6-1.5-0.8-2.8-0.8
		c-2.4,0-3.6,1.2-3.6,3.5C313.4,179.2,313.7,180.1,314.3,180.7L314.3,180.7z M334.6,191.2h-4.3v-19.5h4.2v1.2
		c1.9-1.1,3.7-1.6,5.4-1.6c2.6,0,4.4,0.7,5.3,2.2s1.4,3.9,1.4,7.3v10.5h-4.2V181c0-2.1-0.2-3.6-0.7-4.5s-1.4-1.3-2.8-1.3
		c-1.3,0-2.6,0.3-3.8,0.8l-0.6,0.2v15H334.6z"/>
	<path id="glare_4_" class="st11" d="M235.5,15.1l142,212.6H394V15.1H235.5z"/>
</g>
</svg>
