<?xml version="1.0" encoding="utf-8"?>
<!-- Generator: Adobe Illustrator 24.2.0, SVG Export Plug-In . SVG Version: 6.00 Build 0)  -->
<svg version="1.1" id="ipad" xmlns="http://www.w3.org/2000/svg" xmlns:xlink="http://www.w3.org/1999/xlink" x="0px" y="0px"
	 viewBox="0 0 254.2 173" style="enable-background:new 0 0 254.2 173;" xml:space="preserve">
<style type="text/css">
	.st0{opacity:0.4;fill:#28130B;}
	.st1{fill:#FFFFFF;}
	.st2{fill:#CECECD;}
	.st3{fill:#818282;}
	.st4{fill:#2B3A3A;}
	.st5{fill:#1A2323;}
	.st6{fill:#767576;}
	.st7{fill:#3A5251;}
	.st8{fill:#5EA3A0;}
	.st9{fill:#99999A;}
	.st10{fill:#353535;}
	.st11{fill:#0F0F10;}
	.st12{fill:#272A2F;}
	.st13{fill:#2C2F34;}
	.st14{fill:#29828A;}
	.st15{fill:#10232D;}
	.st16{fill:#FFF9DD;}
	.st17{opacity:0.2;fill:#FFFFFF;enable-background:new    ;}
	.st18{fill:#57657B;}
</style>
<path class="st0" d="M254.1,170.1c-2.3-8.3-8.2-40.8-10.3-47.9c-0.5-1.4-1-2.8-1.8-4.1c-0.8-1.4-2.1-3.4-2.9-4.7l14.4-89.8
	c0.9-4.5-3.4-9.6-3.9-10.1c-1.3-3.2-4.5-5.4-8.2-5.1l-21.7,1.5c1-1.8-0.6-2.9-0.6-2.9l-9.8-2.7c-3.7-1.2-9.9-1.3-9.9-1.3L73.5,12.1
	c-4.6,0.9-4.6,7.1-4.6,8l-19.4,1.3c-6,0.4-11.2,4.6-12.7,10.5L3.3,159c-0.9,3.4,0.4,6.8,2.8,8.8l0,0c0,0,4.8,5.2,9.4,5.2h6l-1.9-3.2
	l-0.2,0l0.2,0l1.9,3.2l184.9-0.7h11.1l21.9,0.1h13C253.6,172.4,254.4,171.2,254.1,170.1z"/>
<path class="st1" d="M65.9,17.2c0,0-0.4-7.1,4.6-8.1L196.4,0c0,0,6.2,0.1,9.9,1.3l9.8,2.7c0,0,1.6,1.1,0.5,3L65.9,17.2z"/>
<path class="st2" d="M215.4,6.1l-8-0.1c-5.1-0.6-11-0.4-11-0.4L66.6,15.1c-0.2,0-0.4,0.1-0.6,0.1c-0.1,1.1-0.1,2-0.1,2L216.6,7
	C217,6.1,215.4,6.1,215.4,6.1L215.4,6.1z"/>
<path class="st3" d="M207.9,1.7l-0.3-0.1c-0.8,1.4-0.7,5.8-0.7,6h0.3C207.2,6.3,207.3,2.7,207.9,1.7z"/>
<path class="st4" d="M235,108.8c0,0,2.6,3.9,4,6.3c0.8,1.3,1.3,2.7,1.8,4.1c2.1,7.1,8,39.6,10.3,47.9c0.3,1.1-0.5,2.3-1.7,2.3h-13
	l-21.9-0.1L235,108.8L235,108.8z"/>
<path class="st5" d="M233.8,117.1h1.1l0.2,42.6c-0.2,2.2-0.8,4.4-1.7,6.4c-1.7,3.6-12,3.9-16.5,2.5
	C216.9,168.6,233.8,117.1,233.8,117.1z"/>
<path class="st6" d="M18.5,170l184.9-0.7V166l-186.8,0.7L18.5,170z"/>
<path class="st7" d="M3.1,164.8c0,0,4.8,5.2,9.4,5.2h6l-1.9-3.2L3.1,164.8z M246.6,10.5c0,0,4.8,5.4,3.9,10.1l-21.9,136.1
	c-0.4,2.4-1.3,4.8-2.7,6.8c-1.9,2.8-6.1,5-11.1,5.8h-11.5l-1.3-1.1V166L246.6,10.5z"/>
<path class="st8" d="M211.7,166l-203,0.8c-5.7,0-9.8-5.3-8.4-10.8L33.8,28.9c1.5-5.9,6.7-10.1,12.7-10.5l191.9-13
	c5.3-0.4,9.6,4.4,8.8,9.6l-22.8,140.1C223.4,161.4,218.1,166,211.7,166z"/>
<path class="st9" d="M237.4,78.8l0.9,1.5l-1.6,9.2l-1.1-1.3L237.4,78.8z"/>
<path class="st10" d="M237.3,81.2l0.3,0.1l-1.3,6.4l-0.3-0.1L237.3,81.2z"/>
<path id="_x3C_Path_x3E__2_" class="st11" d="M208.5,164.4L10.6,165c-5.2,0-8.9-4.9-7.6-9.8l32.9-126c1.3-4.9,5.6-8.5,10.7-8.8
	L238.2,7.7c3.8-0.3,6.9,3.1,6.3,6.9L222.8,152C221.8,159.1,215.7,164.3,208.5,164.4z"/>
<g id="ipadoff">
	<path id="screen_5_" class="st12" d="M206.7,157.2l-191,1c-1.4,0-2.5-1.3-2.1-2.7l32-123.6c0.5-2.2,2.4-3.7,4.6-3.8L232,16.3
		c1.4-0.1,2.5,1.2,2.3,2.5l-22.5,134C211.4,155.4,209.2,157.2,206.7,157.2z"/>
	<path class="st13" d="M213.8,141.1l20.5-122.2c0.2-1.4-0.9-2.6-2.3-2.5L84.1,25.8L213.8,141.1L213.8,141.1z"/>
</g>
<g id="ipadon">
	<path class="st14" d="M206.7,157.2l-191,1c-1.4,0-2.5-1.3-2.1-2.7l32-123.6c0.5-2.2,2.4-3.7,4.6-3.8L232,16.3
		c1.4-0.1,2.5,1.2,2.3,2.5l-22.5,134C211.4,155.4,209.2,157.2,206.7,157.2z"/>
	<path class="st15" d="M53.6,60.1c0,0,3.5-44.1,68.8-21.2c0,0,33,8.4,48.7,3c0,0,39.7-14.2,40,37.7c0,0-2,38.9-51.8,50.7
		c-6.3,1.5-12.8,2.2-19.3,2.4c-9,0.3-26.6,1.7-38.4,8.7c-8.9,5.3-19.2,8.7-30,8.8c-12.1,0.1-25.9-3.3-34.7-17.1
		c0,0-10.6-16.2,8.1-40.3C45,92.8,53.3,79,53.6,60.1L53.6,60.1z"/>
	<path class="st16" d="M61,54.3c2.6,0,4.8,0.5,6.6,1.5c1.8,1,3,2.5,3.6,4.5c0.6,1.9,0.6,4,0,6.3s-1.7,4.4-3.4,6.3
		c-1.6,1.9-3.6,3.4-6,4.4c-2.3,1-4.8,1.5-7.5,1.5h-12l6.5-24.5C48.8,54.3,61,54.3,61,54.3z M55.6,69.5h0.3c1.3,0,2.3-0.2,3-0.7
		s1.2-1.2,1.5-2.2c0.2-0.9,0.1-1.6-0.3-2.1s-1.2-0.7-2.3-0.7h-0.6C57.2,63.8,55.6,69.5,55.6,69.5z M90.3,54.3l-6.5,24.5H73l6.5-24.5
		C79.5,54.3,90.3,54.3,90.3,54.3z M109.8,54c2,0,4,0.3,6,0.9c1,0.3,1.9,0.6,2.7,1s1.6,0.8,2.3,1.3l-7.2,7.4c-1.9-1-3.8-1.6-5.6-1.6
		c-1.2,0-2.3,0.3-3.2,1c-0.9,0.6-1.5,1.5-1.8,2.5s-0.2,1.8,0.3,2.3s1.4,0.7,2.8,0.7l1-3.8H118l-3.5,13.2l-5.4,0.3
		c-0.9,0-1.6,0.1-2.2,0.1h-1.4c-3.5,0-6.3-0.4-8.2-1.3c-2-0.8-3.4-2.3-4.2-4.4c-0.8-2.1-0.9-4.4-0.2-7.1c0.6-2.4,1.7-4.5,3.4-6.5
		c1.6-1.9,3.6-3.4,5.9-4.5C104.5,54.5,107,54,109.8,54z M137.4,54.3L131,78.8h-10.8l6.5-24.5C126.7,54.3,137.4,54.3,137.4,54.3z
		 M163.9,54.3L161,65.2h-5.5L152,78.8h-10.9l3.6-13.6h-5.5l2.9-10.9L163.9,54.3L163.9,54.3z M190.1,54.3l2,24.5h-10.8l-0.3-4.1h-8
		l-2.5,4.1h-10.9l15-24.5C174.6,54.3,190.1,54.3,190.1,54.3z M176.5,68.9h4l-0.4-6H180L176.5,68.9z M213.5,54.3l-4.8,18.3h9.5
		l-1.6,6.1h-20.4l6.5-24.5h10.8V54.3z M104.2,93.8l2,24.5H95.4l-0.3-4.1h-8l-2.5,4.1H73.8l15-24.5H104.2z M90.7,108.4h4l-0.4-6h-0.1
		L90.7,108.4z M133,93.8c1.7,0,3.2,0.3,4.4,1s2,1.5,2.4,2.7c0.4,1.1,0.4,2.3,0.1,3.7c-0.3,1.1-0.8,2.2-1.5,3.1s-1.6,1.7-2.7,2.3
		c0.9,1.5,1.5,3.2,1.8,5.2s0.2,4.1-0.2,6.5H126c0.6-3.2,0.8-5.5,0.4-7c-0.4-1.4-1.3-2.1-2.7-2.1h-0.1l-2.4,9.1h-10.8l6.5-24.5
		C116.9,93.8,133,93.8,133,93.8z M125.1,103.6h0.3c1,0,1.8-0.2,2.4-0.5c0.6-0.4,1-0.9,1.2-1.7c0.2-0.7,0.1-1.3-0.2-1.8
		c-0.3-0.4-0.9-0.7-1.8-0.7h-0.6L125.1,103.6z M167.9,93.8l-2.9,10.9h-5.5l-3.6,13.6H145l3.6-13.6h-5.5l2.9-10.9H167.9z"/>
	<path class="st17" d="M213.8,141.1l20.5-122.2c0.2-1.4-0.9-2.6-2.3-2.5L84.1,25.8L213.8,141.1L213.8,141.1z"/>
</g>
<circle class="st18" cx="25.5" cy="89.6" r="0.9"/>
<path class="st10" d="M229.3,84.9l-2.4-0.3c-0.7-0.1-1.1-0.7-1-1.3l0.3-2.4c0.1-0.7,0.7-1.1,1.3-1l2.4,0.3c0.7,0.1,1.1,0.7,1,1.3
	l-0.3,2.4C230.6,84.5,230,85,229.3,84.9z"/>
</svg>
