<svg id="mobilefile" xmlns="http://www.w3.org/2000/svg" xmlns:xlink="http://www.w3.org/1999/xlink" x="0px" y="0px" viewBox="0 0 261.7 368.8">
<style type="text/css">
	.st20{fill:#BAAE95;}
	.st21{opacity:0.25;fill:#10232D;enable-background:new    ;}
	.st22{fill:#E5D7B5;}
	.st23{fill:#F4F0E9;}
	.st24{opacity:0.1;fill:#10232D;enable-background:new    ;}
	.st25{fill:#29828A;}
	#mprevarrow{fill:#29828A;}
	#mnextarrow{fill:#29828A;}

</style>
<g id="Layer_4">
	<g id="Layer_4_2_">
		<g id="file_3_">
			<g id="folder_1_">
				<path class="st20" d="M0,3h243c1.6,7.4,5.4,8,5.4,8c2.5,0.3,4.3,0.9,5.7,1.6c2.5,1.2,4.2,3.8,4.3,6.7l3.3,97.8
					c-2,6.1-6.6,5.7-9.2,8.2c-4.9,4.9-4.2,10.6-4.2,10.6l0.1,205.1c0,9.8-7.4,17.8-16.5,17.8L0,359.8V3z"/>
				<path class="st21" d="M1.2,361.2l239.4,0.9c10.7,0,19.4-9.4,19.4-20.8V134.9c0,0,0-6.6-8-7.2c-1-0.1-1.9-0.5-2.7-0.9
					c-2.3-1.5-3.7-4.3-3.7-7.2l-1.9-98.3c0,0,0.5-7.2-10.5-9.3c-4.6-0.9-4.8-7.4-4.8-7.4L1.2,4.5V361.2L1.2,361.2z"/>
				<path class="st22" d="M0,359.8l239.4,0.9c10.7,0,19.4-9.4,19.4-20.8V133.5c0,0,0-6.6-8-7.2c-1-0.1-1.9-0.5-2.7-0.9
					c-2.3-1.5-3.7-4.3-3.7-7.2l-1.9-98.3c0,0,0.5-7.2-10.5-9.3c-4.6-0.9-4.8-7.4-4.8-7.4L0,3V359.8z"/>
			</g>
			<g id="papers_3_">
				<path id="bottom_3_" class="st23" d="M11.7,357.9L25.5,1.2L234.7,12l-13.8,356.7L11.7,357.9z"/>
				<g id="top_3_">
					<path id="shadow_5_" class="st24" d="M17.6,2.7H227v357.1H17.6V2.7z"/>
					<path class="st23" d="M15,0h209.4v357.1H15V0z"/>
				</g>
			</g>
		</g>
	</g>
</g>
<path id="mnextarrow" d="M169.7,335.2c0.1-1.1,0.8-1.4,1.6-1.6c2-0.5,4-0.7,6-0.9c1.9-0.2,3.9-0.3,5.9-0.4
	c1.7,0,3.3,0.1,5.1,0.2c4,0.2,7.9,0.8,11.9,1.2c0.1,0,0.2,0,0.4-0.1c-0.2-0.1-0.5-0.2-0.8-0.4c-1.5-0.6-2.9-1.1-4.4-1.7
	c-0.9-0.4-1.1-1.2-0.4-1.8c0.4-0.3,0.6-0.1,1,0c1.8,0.8,3.6,1.5,5.4,2.3l4.6,1.9c0.4,0.2,0.8,0.4,0.9,0.9v0.4
	c-0.1,0.4-0.4,0.6-0.8,0.7c-1.9,0.5-3.8,1.1-5.8,1.6c-1.8,0.5-3.5,1.2-5.2,1.8c-1.4,0.5-1.6-0.4-1.5-1.3c0.1-0.5,0.4-0.6,0.8-0.8
	c1.9-0.5,3.7-1.1,5.6-1.6c0.2-0.1,0.4-0.1,0.6-0.4c-1.1-0.1-2.2-0.2-3.3-0.4c-3.2-0.4-6.5-0.5-9.8-0.5c-5.2-0.1-10.4,0.2-15.5,1.6
	c-1,0.3-1.8,0.2-2.4-0.6C169.7,335.5,169.7,335.2,169.7,335.2z"/>
<rect id="mnextarrowspace" x="155" y="309" class="st6" width="70.7" height="47.8" opacity="0"/>
<path id="mprevarrow" d="M71.1,335.3c-0.6,0.8-1.4,0.9-2.4,0.6c-5.1-1.4-10.3-1.7-15.5-1.6c-3.3,0-6.6,0.1-9.8,0.5
	c-1.1,0.2-2.2,0.3-3.3,0.4c0.2,0.3,0.4,0.3,0.6,0.4c1.9,0.5,3.7,1.1,5.6,1.6c0.4,0.2,0.7,0.3,0.8,0.8c0.1,0.9-0.1,1.8-1.5,1.3
	c-1.7-0.6-3.4-1.3-5.2-1.8c-2-0.5-3.9-1.1-5.8-1.6c-0.4-0.1-0.7-0.3-0.8-0.7v-0.4c0.1-0.5,0.5-0.7,0.9-0.9l4.6-1.9
	c1.8-0.8,3.6-1.5,5.4-2.3c0.4-0.1,0.6-0.3,1,0c0.7,0.6,0.5,1.4-0.4,1.8c-1.5,0.6-2.9,1.1-4.4,1.7c-0.3,0.2-0.6,0.3-0.8,0.4
	c0.2,0.1,0.3,0.1,0.4,0.1c4-0.4,7.9-1,11.9-1.2c1.8-0.1,3.4-0.2,5.1-0.2c2,0.1,4,0.2,5.9,0.4c2,0.2,4,0.4,6,0.9
	c0.8,0.2,1.5,0.5,1.6,1.6C71,335.2,71,335.5,71.1,335.3z"/>
<rect id="mprevarrowspace" x="15" y="309" class="st6" width="70.7" height="47.8" opacity="0"/>
</svg>
