<?xml version="1.0" encoding="utf-8"?>
<!-- Generator: Adobe Illustrator 24.2.0, SVG Export Plug-In . SVG Version: 6.00 Build 0)  -->
<svg version="1.1" id="canvas" xmlns="http://www.w3.org/2000/svg" xmlns:xlink="http://www.w3.org/1999/xlink" x="0px" y="0px"
	 viewBox="0 0 334.1 512" style="enable-background:new 0 0 334.1 512;" xml:space="preserve">
<style type="text/css">
	.st0{opacity:0.2;fill:#28130B;enable-background:new    ;}
	.st1{fill:#84491F;}
	.st2{fill:#CA6B2A;}
	.st3{fill:#9C5725;}
	.st4{fill:#D67A33;}
	.st5{fill:#532B16;}
	.st6{fill:#673718;}
	.st7{fill:#924E22;}
	.st8{fill:#CC6C28;}
	.st9{fill:#E27630;}
	.st10{fill:#9D4728;}
	.st11{fill:#B8552D;}
	.st12{fill:#BCB099;}
	.st13{fill:#FFF9DD;}
	.st14{fill:#29828A;}
</style>
<path class="st0" d="M286.1,512.1l-2-34.7l-1.4-30.4h23.5v-16.9l6.3-13.5h20.6l-5.5-26.1h-19.2V93c0-1.6-1.3-3-3-3h-21.3V50.8h-28.3
	V88h-42.4V59.1h-27.6V6.4H153v52.7h-26.6V88h-43V50.8H55.1V88H32.8v302.5H10.5l5.5,28.1l3.8,1.6l3.8,9.9L41.1,442l2.2,5l-2.2,65.1
	H73l3-65.1h71.6v65.1h38.5l-1-65.1h62.5l2.6,65.1H286.1z"/>
<path class="st1" d="M298.2,423.1V442h4.2v-18.3l8.7-12.1h-4.6L298.2,423.1z"/>
<path class="st2" d="M18.6,421.9h280.6V442H18.6V421.9z"/>
<path class="st3" d="M307.5,411.6l-1.3-1H11.6l-2.1,1l9.1,11.5h280.6L307.5,411.6z"/>
<path class="st4" d="M323.6,383.5H5.5L0,411.6h329.1L323.6,383.5z"/>
<path class="st5" d="M279.8,442h-3.1l3.4,66.1h3.2L279.8,442z"/>
<path class="st6" d="M245,442l4.3,66.1h31.8l-3.4-66.1H245z"/>
<path class="st5" d="M277.9,442H245l1.8,28.4h32.5L277.9,442z M179.1,470.4v37.7h3.8l-0.6-66.1h-3.2V470.4z"/>
<path class="st6" d="M142.6,469.6h37.5v38.6h-37.5V469.6z"/>
<path class="st5" d="M180.1,442h-37.5v28.4h37.5V442z M70,442l-4.2,66.1h3.5l3.9-66.1H70z"/>
<path class="st6" d="M63.4,442H38.3l-3.1,66.1h31.6L71,442H63.4z"/>
<path class="st5" d="M69.2,470.4L71,442H38.3l-1.4,28.4H69.2z"/>
<path class="st7" d="M78.4,43.8l-4,37.2h6V47.8L78.4,43.8z"/>
<path class="st8" d="M50.1,43.8h28.3V81H50.1V43.8z"/>
<path class="st7" d="M279.1,43.8l-5,37.2h6.9V47.8L279.1,43.8z"/>
<path class="st8" d="M250.8,43.8h28.3V81h-28.3V43.8z"/>
<path class="st7" d="M180.5,0l-9,52.7h10.7v-47L180.5,0z"/>
<path class="st9" d="M147.6,0h32.9v52.7h-32.9V0z"/>
<path class="st10" d="M121.4,69h87.1v4.4h-87.1V69z"/>
<path class="st11" d="M121.4,72.5h87.1V81h-87.1V72.5z"/>
<path class="st7" d="M208.4,52.1V81h1.6V66L208.4,52.1z"/>
<path class="st8" d="M121.4,52.1h87.1v17.6h-87.1V52.1z"/>
<path class="st12" d="M301.2,83.4c0-0.1-0.4-0.8-0.5-0.8c0.3,0.5,0.6,1,0.6,1.7v299.2h3.8V96.7L301.2,83.4z"/>
<path class="st13" d="M300.9,82.6c-0.6-0.9-1.6-1.6-2.8-1.6H31.6c-2.1,0-3.8,1.7-3.8,3.8v298.6h273.6V84.3
	C301.4,83.7,301.2,83.1,300.9,82.6z"/>
<g id="art_2_">
	<path class="st14" d="M137.1,243.6c0,0.1-0.1,0.7-0.3,1.8s-0.4,1.8-0.5,2.4l-1.5,0.1c-0.6-1.2-1.1-2.1-1.7-2.5s-1.4-0.6-2.4-0.5
		c-1.3,0.1-2.3,0.3-2.9,0.7c-0.7,0.4-1,1.3-0.8,2.7c0-0.1,0.3,0.7,0.9,2.4c0.6,1.7,1.3,3.5,2.1,5.6c0.8,2.1,1.5,4,2.1,5.7
		c0.6,1.8,1,2.8,1,3c0.1,0.9-0.1,1.7-0.4,2.5c-0.4,0.8-0.8,1.5-1.3,2.2s-0.9,1.3-1.3,1.8s-0.5,1-0.5,1.5l3.2,6.4l0.2,2.3l-0.9,0.5
		c-0.7-0.4-1.3-1-1.8-1.9c-0.6-0.9-1-1.9-1.5-3c-0.4-1.1-0.8-2.3-1.2-3.5c-0.4-1.2-0.8-2.3-1.1-3.3c-1.3-0.5-2.6-1.3-3.8-2.4
		c-1.2-1.1-2.3-2.4-3.3-3.9s-1.9-3-2.7-4.5c-0.8-1.6-1.5-3-2.1-4.4c-1.3-3.4-2.6-5-3.8-4.9c-0.4,0-1.8,0.2-4,0.6
		c-2.3,0.3-5.3,0.9-9.3,1.7c-8,1.5-12.2,2.4-12.8,2.7c-0.1,0.5-0.5,1.5-1.1,3c-0.7,1.5-1.5,3.2-2.4,5.1c-0.9,1.8-1.8,3.7-2.8,5.5
		s-1.8,3.3-2.5,4.5c-1.7-0.6-3.1-0.8-4.2-0.7c-1.1,0.1-2,0.5-2.6,1.3s-1,1.7-1.3,2.7c-0.3,1.1-0.5,2.2-0.6,3.4
		c-0.1,1.2-0.2,2.3-0.4,3.4c-0.3,0.5-1.1,1-2.2,1.4s-2,1.2-2.5,2.4l-1.2,0.1l-0.7-8.1c-0.1-0.7,0.2-2.1,0.6-4c0.5-2,1-4.2,1.7-6.5
		c0.6-2.4,1.3-4.6,1.9-6.8c0.7-2.2,1.1-3.8,1.4-4.8c1.3-4.5,2.4-8.3,3.4-11.2c0.9-2.9,2-5.9,3.2-8.9c0.7-2,1.5-4.1,2.4-6.1
		s1.7-4,2.6-6.1c0.5-1.2,1.1-2.6,1.8-4.1c0.6-1.6,1.4-3.3,2.3-5.2c0.4-0.9,0.9-1.8,1.4-2.8s0.9-1.9,1.3-2.8c1.8-4.4,3.1-7.6,3.8-9.6
		c0.5-1.5,1.1-2.8,1.8-4.1c0.7-1.3,1.5-2,2.5-2c1-0.1,1.8,0.2,2.4,0.8s1.4,0.8,2.5,0.8l2-0.2c0.4,0,0.9,0,1.4,0.1s0.9,0.3,1.2,0.4
		c1,0.4,2.2,1.6,3.6,3.6s2.8,4.3,4.2,6.8c1.4,2.6,2.7,5.1,3.8,7.5c1.1,2.5,1.9,4.4,2.2,5.7c0.2,0.9,0.5,1.9,1,3.2
		c0.5,1.2,1,2.5,1.6,3.9l1.8,4.2c0.6,1.4,1.1,2.8,1.5,4c0.5,1.4,1.6,2.3,3.2,2.9c1.7,0.6,3.4,1,5.2,1.4s3.4,0.8,4.9,1.4
		C136.2,241.3,137,242.3,137.1,243.6L137.1,243.6z M70.2,289.1l-2.6,0.4c0-0.1,0.2-0.5,0.5-1.2c0.4-0.7,0.6-1.1,0.6-1.2
		C69.2,287.5,69.7,288.2,70.2,289.1L70.2,289.1z M89,244.7l18.8-3.6c0,0.1-0.2-0.5-0.6-1.7s-0.9-2.8-1.4-4.6
		c-0.6-1.9-1.2-3.9-1.9-6.1c-0.7-2.2-1.3-4.2-1.9-6.1c-0.6-1.9-1.3-4.1-2.1-6.7c-0.1,0.3-0.6,0.6-1.4,0.9c-0.7,0.3-1.3,1.1-1.9,2.4
		s-1.1,2.7-1.5,4.2s-0.8,3-1.1,4.5c-0.3,1.4-0.6,2.5-0.8,3C90.7,239.7,89.3,244.3,89,244.7L89,244.7z M126.5,285.7
		c0,0.6-0.2,1.2-0.7,1.8l-1.1,0.1c-1.5-1.2-2.3-2.3-2.4-3.3c-0.1-1.1,0.1-1.9,0.4-2.2c0.4-0.3,0.9-0.3,1.4-0.1
		c0.6,0.2,1.1,0.7,1.6,1.4C126.1,284.2,126.4,284.9,126.5,285.7L126.5,285.7z M125.5,274.2c0,0.5-0.1,1.3-0.5,2.3
		c-0.2,0.9-0.4,1.4-0.8,1.3c-0.3,0-0.6-0.3-0.9-0.7c-0.3-0.5-0.5-1.1-0.7-1.8c-0.2-0.7-0.4-1.3-0.4-1.8c0-0.6,0.2-1,0.7-1.3
		s1-0.5,1.5-0.7c0.1,0.2,0.2,0.3,0.2,0.5c0.1,0.1,0.2,0.4,0.4,0.8C125.3,273.3,125.5,273.7,125.5,274.2L125.5,274.2z M136.6,251.2
		l0.1,1l-1.5,0.1l-0.3-3.1C136,250.1,136.6,250.7,136.6,251.2z M204.6,258.7l0.7,8.6l-1.1,0.3c-0.5,0.1-1.1-0.7-1.8-2.4
		c-0.5-1.5-1-2.3-1.5-2.4s-0.8,0.2-1.1,0.8c-0.3,0.6-0.5,1.4-0.7,2.4s-0.2,1.8-0.2,2.4c0.1,0.9,0.1,1.4,0.2,1.5l0.2,2
		c-0.3-0.2-0.7-0.9-1.1-1.9l-1.2-3.3c-0.4-1.2-0.7-2.2-0.9-3.1s-0.3-1.3-0.1-1.1c0-0.1-0.4-0.2-1-0.4c-0.7-0.2-1.6-0.5-2.6-0.8
		s-2.1-0.7-3.2-1c-1.1-0.4-2-0.7-2.8-1c-0.7-0.3-2.1-1.2-4.3-2.7s-4.5-3.1-6.8-4.7c-2.4-1.7-5.4-3.9-9.2-6.6l-0.8,0.1l0.3,3.9
		c0.1,1.3,0.3,2.7,0.5,4.1c1,7.1,1.5,11.4,1.6,12.9c0.1,1.3,0.1,2.5-0.1,3.7s-0.5,2.5-1.1,4.1c-0.8-0.3-1.4-0.5-1.8-0.9
		c-0.4-0.3-0.6-0.8-0.7-1.5c0-0.3,0-0.8,0.2-1.5s0.2-1.2,0.2-1.4c-0.1-1-0.5-1.7-1.1-2c-0.7-0.3-1.7-0.6-3.1-0.7
		c-2.1,0-4-0.6-5.5-1.8c-1.6-1.2-3.2-2.4-4.9-3.5c-0.4,0.3-0.7,0.5-0.9,0.6c-0.1,0.1-0.3,0.6-0.3,1.3c-0.6-0.1-1.1-0.3-1.5-0.5
		s-0.7-0.6-0.7-1.3c-0.1-1.5-0.3-3.7-0.5-6.6s-0.5-6.5-0.7-10.8c-0.1-1.7-0.3-3-0.3-4c-0.1-0.9-0.1-1.7-0.2-2.4s-0.1-1.3-0.2-2
		c-0.1-0.6-0.1-1.5-0.2-2.6c-0.2-0.6-0.7-1.2-1.5-1.8c-0.8-0.7-1.3-1.2-1.3-1.6c1.6-1.2,2.7-2.9,3.3-5.3c0.6-2.4,0.7-5.1,0.5-8.3
		c0-0.3-0.2-0.5-0.6-0.8l-1.4,0.1c-0.2,1-0.4,2.3-0.6,3.7c-0.2,1.4-0.2,2.8-0.1,4.2c-0.7,0.4-1.3,0.4-1.9,0
		c-0.5-0.5-0.8-0.9-0.9-1.3c-0.5-5.4-0.1-9,1-10.6c3.3-2.4,5.1-3.7,5.5-3.9c0.5-0.4,0.9-0.8,1.2-1.2l0.6-1.2c0.2-0.4,0.4-0.7,0.7-1
		s0.8-0.5,1.5-0.5h5.4c-0.3,0,0.3-0.1,1.7-0.5c1.4-0.3,2.9-0.7,4.7-1.2s3.3-0.8,4.7-1.2c1.4-0.3,1.9-0.5,1.7-0.5
		c6.4-0.5,12.8,0.9,19,4.3c5.3,2.9,8.1,6.9,8.5,12c0.3,3.1,0.1,5.7-0.5,7.7s-1.7,3.8-3.2,5.2c-1.5,1.5-3.6,2.8-6,4.1
		c-2.5,1.3-5.4,2.7-8.9,4.3c0.4,0.4,1.5,1.1,3.4,2.2s3.9,2.3,6.2,3.6s4.4,2.6,6.5,3.8c2.1,1.3,3.6,2.2,4.4,2.9
		C202,253,204.4,256.1,204.6,258.7L204.6,258.7z M148.9,268.9c0,0.5-0.1,1-0.5,1.5s-0.6,1-0.5,1.5c0,0.3,0.1,0.7,0.3,1.2
		s0,0.8-0.5,0.8c-0.7,0.1-1.2-0.2-1.5-0.6c-0.3-0.5-0.4-1.2-0.5-2c0-0.1,0.1-0.3,0.2-0.7c0.1-0.4,0.2-0.9,0.3-1.5s0.2-1.2,0.3-1.9
		c0.1-0.6,0.1-1.2,0.1-1.6c0.7,0.4,1.2,0.8,1.6,1.3C148.6,267.3,148.9,268,148.9,268.9L148.9,268.9z M180.2,212.2
		c-0.1-1.6-1-2.6-2.5-3.1c-1.9-0.4-4.2-0.4-7-0.2c-1.3,0.1-2.5,0.3-3.5,0.5c-1.1,0.2-2.1,0.5-3.1,0.8c-3,0.9-4.4,2.2-4.3,4
		c0.1,1.7,0.6,3.8,1.3,6.2s1.4,4.4,1.9,6.1c6.3-2.9,9.7-4.5,10.1-4.7C178.1,218.9,180.5,215.7,180.2,212.2z M166,276.9l0.6,3.2
		l-1.1,0.1l-1.4-1c0.1,0.1,0.3-0.1,0.3-0.5c0.1-0.5,0.1-1,0.1-1.6L166,276.9L166,276.9z M207.2,273.8l0.1,1.4
		c-0.5,0.4-1.1,0.4-1.6,0.1s-1-0.7-1.4-1.1c-0.4-0.5-0.8-1-1-1.6s-0.4-1-0.4-1.4c-0.1-1.4,0-2.1,0.4-2.1s0.8,0.3,1.3,1
		c0.5,0.6,1,1.3,1.5,2.1C206.5,273.1,206.9,273.6,207.2,273.8L207.2,273.8z M269.6,200.9c0,0.3,0,1.2-0.2,2.7
		c-0.2,1.6-0.4,3.2-0.6,5c-0.3,1.8-0.6,3.5-0.9,5s-0.6,2.4-0.8,2.6c-1.8-0.5-2.7-1.2-2.8-2.1c0-0.2,0.6-1.9,2-5
		c0.6-1.6,0.9-2.6,0.9-3c-0.1-1.3-0.7-1.9-1.7-2c-1,0-1.5,0.4-1.4,1.3c0.1,1.1,0,1.9-0.2,2.2l-1.2,0.1l-0.1-1.6
		c-0.1-1.8-0.6-2.8-1.5-3c-0.8-0.2-2.3-0.2-4.4,0l-14.4,1.2l0.7,8l4.6,20.8l0.6,7.1v1.4c0,0.7,0,1.3,0.1,1.9
		c0.1,1.8,0.3,2.9,0.5,3.2c0.1,1.2,0,2.3-0.3,3.3s-0.5,1.8-0.7,2.4c-1.1,3.5-2.5,6.6-4.1,9.4c-0.2,0.4-0.2,0.8-0.2,1.1
		c0,0.4,0.2,1,0.5,2c0.3,0.9,0.5,1.8,0.6,2.6c0.1,0.7,0.1,1.3,0.1,1.8v1.2c-0.2,0.9-0.9,1.4-2,1.5c-0.6,0.1-1.1-0.3-1.5-1.1
		c-0.4-0.8-0.6-1.5-0.7-2.2c-0.1-0.6,0.1-1.3,0.4-2c0.3-0.7,0.7-1.3,1-1.9c0.4-0.6,0.7-1.1,1.1-1.6c0.3-0.5,0.5-0.9,0.5-1.2
		c-0.1-1.2-0.6-2.2-1.6-2.9c-1-0.7-2.3-1.2-3.8-1.5c-0.8,1-1.1,1.8-1,2.2c0.2,0.4,0.3,1.1,0.4,1.9c0.1,1,0,1.4-0.4,1.3
		c-0.3-0.2-0.8-0.8-1.5-1.8s-1.5-2.5-2.5-4.3c-1-1.8-2.1-3.9-3.4-6.3c-1.6-2.8-2.6-6.4-2.9-10.8l0.7-35.5c-5,0.4-9.6,0.3-13.7-0.3
		c-4.9-0.7-8.2-2.3-9.8-4.7l-0.1-1c0.9-0.3,2.1-0.6,3.6-0.9c1.4-0.3,3-0.7,4.6-1s3.2-0.6,4.9-0.8c1.6-0.3,3.1-0.5,4.4-0.6
		c2.1-0.2,4-0.3,5.8-0.5c1.8-0.1,3.3-0.3,4.7-0.5s3-0.4,4.8-0.5s3.7-0.3,5.8-0.5c9.6-0.8,15.9-0.9,19-0.3
		C266.4,193.9,269.2,196.5,269.6,200.9L269.6,200.9z M238.3,276.6l0.1,1.3l-1.8,0.2c-1.1-1.3-1.3-2.1-0.6-2.4
		C236.8,275.4,237.5,275.7,238.3,276.6z M237.5,266.7l0.2,2.9l-1.4,0.3c-0.1-0.8-0.3-1.5-0.4-1.9c-0.1-0.4-0.2-1.1-0.3-1.9
		C236.2,266,236.8,266.2,237.5,266.7z M263.2,209.6l0.8,2.2l-2.1,0.2c0-0.5,0.1-0.9,0.1-1.3c0.1-0.3,0.1-0.6,0.1-1L263.2,209.6
		L263.2,209.6z"/>
</g>
</svg>
