<?xml version="1.0" encoding="utf-8"?>
<!-- Generator: Adobe Illustrator 25.2.0, SVG Export Plug-In . SVG Version: 6.00 Build 0)  -->
<svg version="1.1" id="laptop" xmlns="http://www.w3.org/2000/svg" xmlns:xlink="http://www.w3.org/1999/xlink" x="0px" y="0px"
	 viewBox="0 0 451.4 263.5" style="enable-background:new 0 0 451.4 263.5;" xml:space="preserve">
<style type="text/css">
	.st0{opacity:0.2;fill:#28130B;enable-background:new    ;}
	.st1{fill:#030203;}
	.st2{fill:#757C83;}
	.st3{fill:#FFFFFF;}
	.st4{fill:#8D8C8E;}
	.st5{fill:#B6B1B5;}
	.st6{fill:#222830;}
	.st7{fill:#292F38;}
	.st8{fill:#DBE3F3;}
	.st9{fill:#29828A;}
	.st10{fill:#5EA3A0;}
	.st11{fill:#10232D;}
	.st12{opacity:0.2;fill:#FFFFFF;enable-background:new    ;}
</style>
<path class="st0" d="M402.1,249.3c4.4,0,7.9-3.6,7.9-7.9V11.9c0-4.4-3.5-7.9-7.9-7.9H54.5c-4.4,0-7.9,3.5-7.9,7.9v229.5
	c0,4.4,3.5,7.9,7.9,7.9H4v8.5c0,3.2,7.7,5.7,10.8,5.7h423.5c3.1,0,13.1-2.6,13.1-5.7v-8.5L402.1,249.3L402.1,249.3z"/>
<path class="st1" d="M398.1,245.3H50.5c-4.4,0-7.9-3.5-7.9-7.9V7.9c0-4.4,3.5-7.9,7.9-7.9h347.6c4.4,0,7.9,3.5,7.9,7.9v229.5
	C406,241.7,402.5,245.3,398.1,245.3L398.1,245.3z"/>
<circle class="st2" cx="224.3" cy="8.1" r="3.1"/>
<path class="st3" d="M0,245.3h447.4v8.5H0V245.3z"/>
<path class="st4" d="M249.3,251.1h-51.2c-2.9,0-5.2-2.3-5.2-5.2v-0.6h61.6v0.6C254.5,248.7,252.2,251.1,249.3,251.1z"/>
<path class="st5" d="M434.3,259.5H10.8C7.7,259.5,0,257,0,253.8h447.4C447.4,256.9,437.4,259.5,434.3,259.5z"/>
<g id="off">
	<path class="st6" d="M54.9,15.1H394v212.5H54.9V15.1z"/>
	<path id="glare_6_" class="st7" d="M235.5,15.1l142,212.6H394V15.1H235.5z"/>
</g>
<g id="on">
	<path class="st8" d="M54.9,15.1H394v212.5H54.9V15.1z"/>
	<path class="st9" d="M292.9,119.6H155.3l0.4-75c0-3.5,2.8-6.3,6.3-6.3h31.1c6.8,0.6,7.6,4,9.3,7c2.1,3.7,6.4,4,6.4,4h78.4
		c3.4,0,6.1,2.7,6.1,6.1L292.9,119.6L292.9,119.6z"/>
	<path class="st10" d="M285.9,146.3H162.6c-4,0-7.3-3.3-7.3-7.3V67.1c0-6.4,5.2-11.5,11.5-11.5h112.4c7.7,0,14,6.3,14,14v69.3
		C293.3,143,290,146.3,285.9,146.3L285.9,146.3z"/>
	<path class="st9" d="M162.8,133h123v1h-123L162.8,133z M162.8,136.9h123v1h-123L162.8,136.9z"/>
	<path class="st11" d="M179.3,163.9h-9.2v26.7h9.2c4.3,0,7.2-1.3,8.7-3.8c0.8-1.3,1.3-2.7,1.6-4.3c0.3-1.6,0.4-3.5,0.4-5.7
		c0-4.4-0.8-7.7-2.3-9.8C186.2,164.9,183.4,163.9,179.3,163.9z M185.3,180.8c-0.1,1.1-0.4,2.1-0.8,3.1c-0.9,1.9-2.6,2.8-5.1,2.8
		h-4.9v-19.1h4.9c2.5,0,4.2,0.7,5,2.1c0.8,1.4,1.2,3.8,1.2,7C185.5,178.4,185.4,179.7,185.3,180.8z M202.1,170.7
		c-5.6,0-8.5,3.5-8.5,10.4c0,3.5,0.6,6,1.9,7.6c1.3,1.6,3.3,2.4,6.2,2.4c2.3,0,4.9-0.3,7.9-0.9l-0.1-3.2l-1.1,0.1
		c-1.9,0.2-3.8,0.2-5.7,0.2c-1.8,0-3.1-0.4-3.8-1.1c-0.7-0.8-1-1.9-1.1-3.5H210l0.3-3C210.3,173.6,207.5,170.7,202.1,170.7z
		 M197.9,179.4c0-1.8,0.4-3.2,1-4c0.7-0.8,1.7-1.2,3.2-1.2c1.5,0,2.5,0.4,3.1,1.1c0.6,0.8,0.9,2.1,0.9,4H197.9z M227.2,180.8
		c0.9,0.8,1.4,2.2,1.4,4.3c0,2.1-0.7,3.6-2,4.5c-1.3,1-3.2,1.4-5.7,1.4c-1.6,0-3.6-0.2-6-0.7l-1.2-0.2l0.2-3.5
		c3.1,0.4,5.4,0.6,6.7,0.6s2.4-0.2,2.9-0.5c0.6-0.3,0.9-0.9,0.9-1.7c0-0.8-0.3-1.3-0.8-1.6c-0.6-0.3-1.9-0.6-4-1
		c-2.1-0.4-3.7-0.9-4.7-1.7c-1-0.8-1.5-2.1-1.5-4.1c0-2,0.7-3.5,2-4.5c1.4-1,3.1-1.5,5.2-1.5c1.7,0,3.7,0.2,6.1,0.6l1.2,0.2
		l-0.1,3.5c-3.1-0.4-5.3-0.6-6.7-0.6c-1.4,0-2.3,0.2-2.9,0.5c-0.5,0.3-0.8,0.8-0.8,1.5c0,0.7,0.3,1.2,0.9,1.5c0.6,0.3,2,0.6,4.1,1
		C224.7,179.4,226.3,180,227.2,180.8z M232.6,163.3h4.2v4.5h-4.2V163.3z M232.6,171.1h4.2v19.5h-4.2V171.1z M252.6,171.1
		c-1.1-0.3-2.2-0.4-3.4-0.4c-2.4,0-4.3,0.5-5.7,1.6c-1.4,1.1-2.1,2.8-2.1,5.1c0,2.8,0.9,4.7,2.8,5.8l-0.4,0.6
		c-0.7,1.2-1.1,2-1.1,2.5c0,1.3,0.4,2.3,1.3,2.8c-1,0.8-1.8,1.6-2.3,2.2s-0.7,1.5-0.7,2.5c0,2.1,0.7,3.6,2.1,4.4
		c1.4,0.8,3.6,1.2,6.6,1.2c6.2,0,9.2-2.1,9.2-6.4c0-2.2-0.6-3.8-1.7-4.6c-1.1-0.8-3.3-1.2-6.4-1.2c-1.8,0-3-0.1-3.5-0.3
		c-0.5-0.2-0.7-0.5-0.7-1c0-0.5,0.2-1.2,0.5-2c0.5,0.1,1,0.2,1.7,0.2c2.7,0,4.7-0.5,6-1.5c1.3-1,1.9-2.7,1.9-5.3
		c0-1.2-0.4-2.3-1.1-3.2l3.2,0.2v-3.4l-6,0.2L252.6,171.1z M246.8,190.8l3.8,0.2c1.7,0,2.8,0.2,3.3,0.4c0.6,0.3,0.8,0.9,0.8,1.9
		c0,1.8-1.6,2.7-4.7,2.7c-1.8,0-3-0.2-3.7-0.6s-1.1-1-1.1-1.9c0-0.6,0.1-1.1,0.4-1.5C245.8,191.8,246.3,191.3,246.8,190.8z
		 M251.9,180.1c-0.6,0.6-1.5,0.8-2.7,0.8c-1.3,0-2.2-0.3-2.8-0.8s-0.9-1.4-0.9-2.6c0-2.3,1.2-3.5,3.6-3.5c1.3,0,2.2,0.3,2.8,0.8
		c0.6,0.6,0.9,1.4,0.9,2.6C252.8,178.7,252.5,179.6,251.9,180.1z M278.8,180.1v10.4h-4.2v-10.3c0-2.1-0.2-3.6-0.7-4.5
		c-0.5-0.9-1.4-1.3-2.8-1.3c-1.3,0-2.6,0.3-3.8,0.8l-0.6,0.2v15.1h-4.2v-19.5h4.2v1.2c1.9-1.1,3.7-1.6,5.4-1.6
		c2.6,0,4.4,0.7,5.3,2.2C278.3,174.3,278.8,176.8,278.8,180.1z"/>
	<path id="glare_4_" class="st12" d="M235.5,15.1l142,212.6H394V15.1H235.5z"/>
</g>
</svg>
