<svg xmlns="http://www.w3.org/2000/svg" xmlns:xlink="http://www.w3.org/1999/xlink" viewBox="0 0 90.4 108.3"><style>.st56{fill:#7d5923}</style><g id="Layer_1"><g id="tea_mug_1_"><g id="mug_1_"><g id="handle_1_"><path d="M25.2 13.2s-17.8.7-23.9 15.5c-.8 1.9-1.2 3.9-1.3 6-.3 6.6.3 22.9 12.7 33.5 0 0 4.4 3.8 12.4 6.7h2.1l-2.1-8.8S11.6 61.3 8 44c0 0-2.2-8.5 2.8-15.5 1.9-2.7 4.8-4.5 7.9-5.4 1.9-.5 4.4-1.1 7.3-1.2l-.8-8.7z" fill="#c1a781"/><defs><path id="SVGID_38_" d="M25.2 13.2s-17.8.7-23.9 15.5c-.8 1.9-1.2 3.9-1.3 6-.3 6.6.3 22.9 12.7 33.5 0 0 4.4 3.8 12.4 6.7h2.1l-2.1-8.8S11.6 61.3 8 44c0 0-2.2-8.5 2.8-15.5 1.9-2.7 4.8-4.5 7.9-5.4 1.9-.5 4.4-1.1 7.3-1.2l-.8-8.7z"/></defs><clipPath id="SVGID_2_"><use xlink:href="#SVGID_38_" overflow="visible"/></clipPath><path d="M21.4 13.2s-1.4-.2-4.8.6l.5 10.3s3.1-.7 4.4-.6l-.1-10.3zM17.2 60.1l-.9 11.1s2.9 1.4 5.2 2.1L20.9 62s-1.4-.5-3.7-1.9z" clip-path="url(#SVGID_2_)" fill="#a0896d"/></g><path d="M44.1 108.3h22.5c13.1 0 23.7-10.6 23.7-23.7V3.4c0-1.2-1-2.2-2.2-2.2H22.6c-1.2 0-2.2 1-2.2 2.2v81.1c0 13.1 10.6 23.8 23.7 23.8z" fill="#f2d69b"/><g id="shadows_1_"><defs><path id="SVGID_40_" d="M44.1 108.3h22.5c13.1 0 23.7-10.6 23.7-23.7V3.4c0-1.2-1-2.2-2.2-2.2H22.6c-1.2 0-2.2 1-2.2 2.2v81.1c0 13.1 10.6 23.8 23.7 23.8z"/></defs><clipPath id="SVGID_4_"><use xlink:href="#SVGID_40_" overflow="visible"/></clipPath><path d="M49.2 1.4s-1.2 105.7 26.6 105l-10 8.2-45.5-6.3L18.7-2.1l30.5 3.5z" clip-path="url(#SVGID_4_)" fill="#e4c794"/><path d="M27 1.2l2.1 89.4c1.9 12 12.6 16.7 13.5 17.7 1.6 1.8-22.2-6.4-22.2-6.4L18.5-1 27 1.2z" clip-path="url(#SVGID_4_)" fill="#ccb186"/><path d="M82.2 9.3s1.7 42.3-2.9 45l-3.1 1.6-.9-.7V8l6.9 1.3z" clip-path="url(#SVGID_4_)" fill="#fff6e2"/></g></g><g id="teabag_1_"><path fill="#7a756a" d="M37.7 85.6h15.4l2.3-2.4V63.6l-2.3-2.4H37.7l-2.3 2.4v19.6z"/><path fill="#e4b559" d="M38.7 84.6h15.4l2.3-2.4V62.6l-2.3-2.4H38.7l-2.3 2.4v19.6z"/><path d="M53.4 83.2h-14l-2-2.1V63.8l2.1-2.2h14l2.1 2.2v17.3l-2.2 2.1zm-13.9-.3h13.7l1.9-2V63.8l-1.9-2H39.5l-1.9 2v17.1l1.9 2z" fill="#493c37"/><path class="st56" d="M43 69.5h-2.3v-.8-2-1.1-1.4h2.2v.5h-1.6v1.8h1.6v.5h-1.6v2.1h1.6v.4zM46.6 69.4l-.5.1c0-.1-.1-.3-.2-.7-.1-.4-.2-.8-.3-1.3h-1.3c-.1.5-.3 1-.4 1.3-.1.4-.2.6-.2.7l-.5-.1c0-.1.2-.8.5-1.9s.6-2.3.9-3.3h.5c.3 1.2.6 2.3.9 3.4s.6 1.7.6 1.8zm-1.1-2.2c-.1-.3-.2-.7-.3-1s-.2-.6-.2-.9c-.1.2-.2.6-.3.9-.1.4-.2.7-.3 1h1.1zM49.8 69.3l-.5.3c0-.1-.2-.4-.6-1-.3-.6-.6-1.1-.8-1.5.1 0 .2-.1.3-.2l.3-.3c.1-.1.1-.2.2-.4 0-.1.1-.3.1-.5s0-.4-.1-.5l-.3-.3c-.1 0-.2-.1-.3-.1h-.3-.2v4.8h-.5v-.8-1.9-1.2-1.4H47.7c.2 0 .4 0 .6.1.1 0 .3.1.4.2.2.1.3.3.4.5.1.2.2.4.2.7 0 .3-.1.5-.2.8s-.3.5-.6.7c.1.2.4.6.7 1.2.4.4.6.7.6.8zM52.5 69.5h-2.2v-.7-2-1.1-1.4h.5v4.8h1.5v.4zM43.1 76.5V79.1h-.4c-.4 0-.8-.1-1.1-.2-.3-.1-.6-.4-.8-.7-.1-.2-.3-.5-.4-.8-.1-.3-.1-.6-.1-1 0-.5.1-.9.2-1.3.2-.4.4-.7.7-.9.2-.1.4-.3.6-.3.2-.1.5-.1.8-.1h.2v.5h-.1-.1c-.2 0-.5 0-.7.1-.2.1-.4.2-.5.3-.2.2-.4.4-.5.7-.1.3-.2.6-.2 1s.1.8.2 1.1c.1.3.3.6.5.7.1.1.3.2.5.3.2.1.4.1.6.1v-.9-1.2h.6zM46.7 78.9l-.5.3c0-.1-.2-.4-.6-1-.3-.6-.6-1.1-.8-1.5.1 0 .2-.1.3-.2l.3-.3c.1-.1.1-.2.2-.4 0-.1.1-.3.1-.5s0-.4-.1-.5l-.3-.3c-.1 0-.2-.1-.3-.1h-.3-.2v4.8H44v-.8-1.9-1.2-1.4H44.6c.2 0 .4 0 .6.1.1 0 .3.1.4.2.2.1.3.3.4.5.1.2.2.4.2.7 0 .3-.1.5-.2.8s-.3.5-.6.7c.1.2.4.6.7 1.2.4.4.6.7.6.8zM49.5 79.1h-2.3v-.8-2-1.1-1.4h2.2v.5h-1.6v1.8h1.6v.5h-1.6v2.1h1.6v.4zM52.7 74c0 .1-.2.4-.5 1s-.5 1.1-.7 1.6V79H51v-.7-1.8c-.2-.4-.4-1-.7-1.6-.3-.6-.4-1-.5-1.1l.5-.2c0 .1.1.3.3.8l.6 1.5c.2-.4.4-.9.6-1.4.2-.5.3-.8.4-.9l.5.4z"/><path d="M46 60.2c-.8-49.5 2.4-58.9 4.4-60 .4-.2.8-.2 1.1 0 .4.2.6.7.6 1h-1 .5-.5c0-.1-.1-.2-.1-.2-.2 0-4.9 1.1-4 59.2h-1z" fill="#5a4a42"/></g></g></g></svg>