<?xml version="1.0" encoding="utf-8"?>
<!-- Generator: Adobe Illustrator 24.1.2, SVG Export Plug-In . SVG Version: 6.00 Build 0)  -->
<svg version="1.1" id="Layer_1" xmlns="http://www.w3.org/2000/svg" xmlns:xlink="http://www.w3.org/1999/xlink" x="0px" y="0px"
	 viewBox="0 0 63.2 16.9" style="enable-background:new 0 0 63.2 16.9;" xml:space="preserve">
<style type="text/css">
	.st0{fill:#29828A;}
</style>
<path id="Layer_4" class="st0" d="M0,9.5c0.1-1.8,1.3-2.4,2.8-2.7C6.2,6,9.6,5.6,13,5.3c3.3-0.3,6.6-0.5,10-0.6
	c2.9,0,5.7,0.1,8.6,0.3c6.8,0.3,13.5,1.4,20.2,2.1c0.2,0,0.3,0,0.6-0.2c-0.4-0.2-0.9-0.4-1.3-0.6c-2.5-1-5-1.9-7.5-2.9
	c-1.5-0.6-1.8-2-0.6-3.1c0.6-0.5,1.1-0.2,1.7,0c3.1,1.3,6.1,2.6,9.2,3.9l7.8,3.3C62.4,7.8,63,8.2,63.2,9v0.6c-0.2,0.7-0.7,1-1.4,1.2
	c-3.3,0.9-6.5,1.9-9.8,2.8c-3.1,0.8-6,2-8.9,3.1c-2.4,0.9-2.8-0.6-2.6-2.2c0.1-0.8,0.7-1.1,1.4-1.3c3.2-0.9,6.3-1.8,9.5-2.7
	c0.4-0.1,0.7-0.2,1.1-0.6c-1.9-0.2-3.8-0.4-5.6-0.6c-5.5-0.6-11-0.8-16.6-0.9C21.4,8.2,12.6,8.8,4,11.2c-1.7,0.5-3,0.4-4-1.1
	C0,10.1,0,9.5,0,9.5z"/>
</svg>
