<?xml version="1.0" encoding="utf-8"?>
<!-- Generator: Adobe Illustrator 24.1.2, SVG Export Plug-In . SVG Version: 6.00 Build 0)  -->
<svg version="1.1" id="Layer_1" xmlns="http://www.w3.org/2000/svg" xmlns:xlink="http://www.w3.org/1999/xlink" x="0px" y="0px"
	 viewBox="0 0 23.7 76.7" style="enable-background:new 0 0 23.7 76.7;" xml:space="preserve">
<style type="text/css">
	.st0{opacity:0.25;fill:#10232D;enable-background:new    ;}
	.st1{fill:#29828A;}
</style>
<g id="Layer_4">
	<g id="paperclip_1_">
		<path id="shadow_5_" class="st0" d="M8.6,3.3C9.1,2.8,9.7,2.4,10.4,2c2.1-1.1,4.4-1.3,6.7-0.6c2.5,0.8,4.4,2.3,5.5,4.8
			c0.5,1.2,0.5,2.5,0.6,3.7c0,3.1,0.1,6.2,0.1,9.3c0,4,0.1,8,0.1,12.1c0,3.9,0.1,7.9,0.1,11.8c0,3.8,0.1,7.5,0.1,11.3
			c0,3.7,0.1,7.4,0.1,11.1c-0.1,4.1-1.9,7.3-5.3,9.5c-3,1.9-6.1,2.1-9.5,1.1c-0.4-0.1-0.7-0.3-1-0.5c-4.1-2-6.4-5.2-6.6-9.9
			c-0.1-2.6-0.1-5.1-0.1-7.7c0-3.3-0.1-6.6-0.1-9.9C1.1,42.2,1,36.2,1,30.3v-5.2v-0.4c0-0.6,0.5-1.1,1-1.1c0.6,0,1,0.4,1,1v3.1
			c0,4.2,0.1,8.5,0.1,12.7c0,3.9,0.1,7.9,0.1,11.8c0,4.4,0,8.9,0.1,13.3c0.1,4,2.1,6.9,5.8,8.4c1.9,0.8,3.8,0.9,5.8,0.2
			c4.1-1.3,6.6-4.8,6.6-9.1c0-6.7-0.1-13.3-0.2-20c0-6.2-0.1-12.4-0.1-18.7c0-4.6-0.1-9.1-0.1-13.7V8.8C21,5.4,17.8,3,14.6,3
			c-0.7,0-1.4,0.1-2,0.3H8.6z"/>
		<path class="st1" d="M6.6,3.3C7.4,2.4,8.3,1.6,9.4,1c2.1-1.1,4.4-1.3,6.7-0.6c2.5,0.8,4.4,2.3,5.5,4.8c0.5,1.2,0.5,2.5,0.6,3.7
			c0,3.1,0.1,6.2,0.1,9.3c0,4,0.1,8,0.1,12.1c0,3.9,0.1,7.9,0.1,11.8c0,3.8,0.1,7.5,0.1,11.3c0,3.7,0.1,7.4,0.1,11.1
			c-0.1,4.1-1.9,7.3-5.3,9.5c-3,1.9-6.1,2.1-9.5,1.1c-0.4-0.1-0.7-0.3-1-0.5c-4.1-2-6.4-5.2-6.6-9.9c-0.1-2.6-0.1-5.1-0.1-7.7
			c0-3.3-0.1-6.6-0.1-9.9C0.1,41.2,0,35.2,0,29.3v-5.2v-0.4c0-0.6,0.5-1.1,1-1.1c0.6,0,1,0.4,1,1v3.1c0,4.2,0.1,8.5,0.1,12.7
			c0,3.9,0.1,7.9,0.1,11.8c0,4.4,0,8.9,0.1,13.3c0.1,4,2.1,6.9,5.8,8.4c1.9,0.8,3.8,0.9,5.8,0.2c4.1-1.3,6.6-4.8,6.6-9.1
			c0-6.7-0.1-13.3-0.2-20c0-6.2-0.1-12.4-0.1-18.7c0-4.6-0.1-9.1-0.1-13.7V7.8C20,4.4,16.8,2,13.6,2C12,2,10.7,2.4,9.5,3.3H6.6z"/>
	</g>
</g>
</svg>
