<?xml version="1.0" encoding="utf-8"?>
<!-- Generator: Adobe Illustrator 24.2.0, SVG Export Plug-In . SVG Version: 6.00 Build 0)  -->
<svg version="1.1" id="Layer_1" xmlns="http://www.w3.org/2000/svg" xmlns:xlink="http://www.w3.org/1999/xlink" x="0px" y="0px"
	 viewBox="0 0 70 534.2" style="enable-background:new 0 0 70 534.2;" xml:space="preserve">
<style type="text/css">
	.st0{opacity:0.8;fill:#7B5D41;enable-background:new    ;}
	.st1{fill:#3A3A3A;}
	.st2{clip-path:url(#SVGID_2_);fill:#4A4A48;}
	.st3{fill:#282828;}
	.st4{fill:#3D3D3D;}
	.st5{fill:#285051;}
	.st6{opacity:0.5;}
	.st7{clip-path:url(#SVGID_4_);fill:#224444;}
	.st8{fill:#403C3B;}
	.st9{clip-path:url(#SVGID_6_);fill:#3D3D3D;}
	.st10{clip-path:url(#SVGID_8_);fill:#595B58;}
</style>
<g id="Layer_1_1_">
	<g id="pen_2_">
		<path class="st0" d="M62.6,44.6l2.9-34.8c0.3-3.7-2.5-7-6.2-7.3l-10-0.8c-3.7-0.3-7,2.5-7.3,6.2l-2.9,34.8L38,42.5
			c-4.6-0.4-8.6,3-9,7.6l-2.4,28.7L11.2,265c0,0-12.3,224.6-4.4,246.1l2.3,22.3c0,0,1.7,1.5,3.3,0.3c0,0,6.2-21.7,6.2-21.6
			c0,0,19.8-77.6,33.6-243.7L67.5,83.2L70,53.5C70.3,49,67,45.1,62.6,44.6z"/>
		<path class="st1" d="M34.8,42.6l3-36.4c0.3-3.7,3.6-6.5,7.3-6.2l10,0.8c3.7,0.3,6.5,3.6,6.2,7.3l-3,36.4L34.8,42.6z"/>
		<g>
			<g>
				<defs>
					<path id="SVGID_1_" d="M34.8,42.6l3-36.4c0.3-3.7,3.6-6.5,7.3-6.2l10,0.8c3.7,0.3,6.5,3.6,6.2,7.3l-3,36.4L34.8,42.6z"/>
				</defs>
				<clipPath id="SVGID_2_">
					<use xlink:href="#SVGID_1_"  style="overflow:visible;"/>
				</clipPath>
				<path class="st2" d="M46.6,43.6l3-36.1c0,0,0.8-4.7,7.7-3.4c0,0,2.3,0.8,4.1,2.6l-0.1-5.4L41.2-1.1l-3.1,3.9l-0.3,3.4l-3,36.4
					C34.8,42.6,46.6,43.6,46.6,43.6z"/>
			</g>
		</g>
		<path class="st3" d="M2.6,509.6l2.3,22.3c0,0,1.7,1.5,3.3,0.3c0,0,6.2-21.7,6.2-21.6l-3.4-1.1L2.6,509.6z"/>
		<path class="st4" d="M42.2,79.9l-6.6-0.5l-13.2-1.1l2.5-29.7c0.4-4.6,4.4-8,9-7.6l12.2,1C46.1,42,42.2,79.9,42.2,79.9z"/>
		<path class="st3" d="M46,42l12.2,1c4.6,0.4,8,4.3,7.6,8.9l-2.5,29.7l-21.1-1.7C42.2,79.9,46,42,46,42z"/>
		<path class="st5" d="M22.4,77.3L7,263.5c0,0-12.3,224.6-4.4,246.1l11.8,1c0,0,19.8-77.6,33.6-243.7L63.4,80.7L22.4,77.3z"/>
		<g class="st6">
			<g>
				<g>
					<defs>
						<path id="SVGID_3_" d="M22.4,77.3L7,263.5c0,0-12.3,224.6-4.4,246.1l11.8,1c0,0,19.8-77.6,33.6-243.7L63.4,80.7L22.4,77.3z"/>
					</defs>
					<clipPath id="SVGID_4_">
						<use xlink:href="#SVGID_3_"  style="overflow:visible;"/>
					</clipPath>
					<path class="st7" d="M42.9,79L6.8,514.8l16.2,1.3l30.8-230L70.7,81.3L42.9,79z"/>
				</g>
			</g>
		</g>
		<path class="st8" d="M8,252.3l2-24.6l22.7,1.9l-2,24.6L8,252.3z"/>
		<path class="st3" d="M28.4,254.1l2-24.6l20.4,1.7l-2,24.6L28.4,254.1z"/>
		<g>
			<g>
				<g>
					<defs>
						<path id="SVGID_5_" d="M63.4,80.7L65.8,52c0.4-4.6-3-8.6-7.6-9l-24.3-2c-4.6-0.4-8.6,3-9,7.6l-2.4,28.7l-0.1,0.9L7,263.5
							c0,0-12.3,224.6-4.4,246.1l4.6,0.4l-0.4,4.8l16.2,1.3l30.8-230l17-204.9L63.4,80.7L63.4,80.7z"/>
					</defs>
					<clipPath id="SVGID_6_">
						<use xlink:href="#SVGID_5_"  style="overflow:visible;"/>
					</clipPath>
					<path class="st9" d="M32.3,194.7c0,0,6.2,2.3,6.8-3.3L53.5,52.1l-2-4.6l-10.3,0.7l-9.6,144.5L32.3,194.7z"/>
				</g>
			</g>
			<g>
				<g>
					<defs>
						<path id="SVGID_7_" d="M63.4,80.7L65.8,52c0.4-4.6-3-8.6-7.6-9l-24.3-2c-4.6-0.4-8.6,3-9,7.6l-2.4,28.7l-0.1,0.9L7,263.5
							c0,0-12.3,224.6-4.4,246.1l4.6,0.4l-0.4,4.8l16.2,1.3l30.8-230l17-204.9L63.4,80.7L63.4,80.7z"/>
					</defs>
					<clipPath id="SVGID_8_">
						<use xlink:href="#SVGID_7_"  style="overflow:visible;"/>
					</clipPath>
					<path class="st10" d="M24.7,50.3c0,0,3.7-8.9,14.6-5.4l-9.4,145.3c0,0-0.3,3.9,2.5,4.5l9.5-142.2c0,0,0.3-4.2,5.5-3.2
						c0,0,4.9-0.5,6.3,2.8l0.4-4.6c0,0,1-2.2,4.9-1.4c0,0,6,1.1,7,5.8l0.8-9.4l-40.9-3.4L24.7,50.3z"/>
				</g>
			</g>
		</g>
	</g>
</g>
</svg>
