<?xml version="1.0" encoding="utf-8"?>
<!-- Generator: Adobe Illustrator 24.1.2, SVG Export Plug-In . SVG Version: 6.00 Build 0)  -->
<svg version="1.1" id="Layer_1" xmlns="http://www.w3.org/2000/svg" xmlns:xlink="http://www.w3.org/1999/xlink" x="0px" y="0px"
	 viewBox="0 0 145.5 243.5" style="enable-background:new 0 0 145.5 243.5;" xml:space="preserve">
<style type="text/css">
	.st0{fill:#787878;}
	.st1{fill:#BAD6CE;}
	.st2{fill:#797979;}
	.st3{fill:#C1C0C0;}
	.st4{fill:#7B7B7B;}
	.st5{fill:#FFFFFF;}
	.st6{opacity:0.3;}
	.st7{fill:#0A1D28;}
	.st8{fill:#5EA5A2;}
	.st9{opacity:0.5;fill:#5EA3A0;enable-background:new    ;}
	.st10{opacity:0.5;fill:#87C1B4;enable-background:new    ;}
	.st11{opacity:0.5;fill:#8E5825;enable-background:new    ;}
	.st12{opacity:0.5;fill:#B49262;enable-background:new    ;}
</style>
<g id="Layer_1_1_">
	<path id="shadow_12_" class="st0" d="M9.1,183l60.5-6.1l6.1,60.5l-60.5,6.1L9.1,183z"/>
	<path class="st1" d="M7.9,181.8l60.5-6.1l6.1,60.5L14,242.3L7.9,181.8z"/>
	<path class="st2" d="M27.8,203.6c0.5,0.5,0.7,1.2,1.3,1.6c0.6,0.4,1,0.3,1.1-0.4c0.1-0.6,0-1.1-0.2-1.7c-0.4-1.4,0.2-2.1,1.6-2.4
		c1.2-0.2,2.2,0.1,3.1,1c0.5,0.5,1,1,1.6,1.3c0.4,0.2,0.8,0.3,1.2,0s0-0.6,0-0.9c-0.1-0.5-0.6-1.1,0.1-1.4c0.7-0.3,0.8,0.5,1,1
		c0.4,1.2,1.1,1.5,2.3,1c1.3-0.5,2-1.8,1.8-3.2c0-0.1-0.1-0.3,0.1-0.4c0.3,0,0.3,0.2,0.4,0.4c0.5,1.3,1.7,1.9,2.9,2.3
		c0.3,0.1,0.5,0,0.7-0.2c1.2-0.9,2.3-2,3.4-3.1c0.4-0.4,0.8-0.2,1.1,0.1c0.5,0.5,1,1.1,1.5,1.6c0.7,0.7,1.4,1.3,2.5,1.2
		c-0.6-0.2-1.2-0.3-1.5-0.9c-0.2-0.3-0.3-0.6-0.1-0.9c0.2-0.3,0.5-0.4,0.9-0.3c0.6,0.1,1.1,0.3,1.5,0.8s0.8,0.5,1.3,0.4
		c1.7-0.5,3.1-1.3,3.7-3.1c0.4,0.3,0.4,0.7,0.3,1.1c-0.2,0.7,0,1.3,0.5,1.9c0.7,0.8,1.4,0.7,2-0.1c0.2-0.2,0.2-0.6,0.6-0.4
		c0.3,0.2,0.1,0.5,0,0.7c-0.6,1.2-1.7,1.4-2.6,0.4c-0.5-0.5-0.6-1.1-0.9-1.8c-1.1,1.2-2.4,1.9-3.9,2.3c-0.2,0-0.3,0.1-0.4,0.3
		c-0.5,0.9-1.2,0.8-2,0.5c-1.2-0.5-2-1.4-2.8-2.4c-0.7-0.8-0.8-0.8-1.6-0.1c-0.6,0.6-1.3,1.2-1.9,1.8c-0.1,0.1-0.3,0.3-0.2,0.5
		c0.1,0.8-0.4,0.8-1,0.8c-1.1-0.1-2.2-0.6-3-1.3c-0.4-0.4-0.6-0.5-0.9,0.2c-0.6,1.7-2.3,2.5-4.1,1.9c-0.3-0.1-0.5-0.1-0.8,0.1
		c-0.6,0.5-1.2,0.4-1.8,0c-0.6-0.3-1-0.8-1.5-1.3c-1-1-2.1-1.2-3.4-0.8c-0.6,0.2-0.9,0.6-0.8,1.2c0.1,0.7,0.2,1.5,0.2,2.2
		c0,0.4,0,0.9-0.5,1.1c-0.5,0.2-0.8-0.1-1.2-0.4C28.4,205.3,28,204.5,27.8,203.6L27.8,203.6z M18.7,194.3c0.4,0.3,0.5,0.8,0.8,1.1
		c0.6,0.7,1.4,1.1,2.4,1.2c0.5,0,0.7-0.1,0.5-0.6c-0.2-0.6-0.6-1.2-0.4-2c0.2-0.7,0.5-1.2,1.3-1.3s1.1,0.4,1.4,1
		c0.4,0.9,0.4,1.8-0.2,2.6c-0.4,0.5-0.2,0.6,0.4,0.6c1.3,0,2.3-0.5,3-1.6c0.3-0.4,0.3-0.7-0.1-1.1c-0.6-0.5-0.8-1.2-0.9-1.9
		c-0.1-0.6,0-1,0.6-1.3c0.6-0.2,0.9,0.2,1.1,0.6c0.3,0.6,0.4,1.2,0.4,1.9c0,0.6,0.3,0.9,0.9,1.1c0.8,0.2,1.5,0.3,2.3,0.1
		c0.5-0.1,1-0.3,1.3-0.8c0.5-1,1.4-1.2,2.4-1.1c0.3,0,0.5,0.1,0.8,0.1c0.5,0.1,0.9,0,0.9-0.6s0.4-1.1,1.1-1.1c0.7-0.1,1,0.4,1.1,1
		c0.2,0.6,0,1.2-0.6,1.5s-1.3,0.3-1.9,0.2c-0.5-0.1-0.9-0.2-1.4-0.2c-0.9-0.1-1.6,0.1-2,1c-0.3,0.6-0.8,0.8-1.4,0.9
		c-1,0.2-2.1,0.1-3-0.3c-0.5-0.2-0.8-0.2-1,0.3c-1.1,2-2.7,2.5-4.8,1.7c-0.2-0.1-0.4-0.1-0.6-0.1C21,197.7,19.1,196.4,18.7,194.3
		L18.7,194.3z M22.4,195.2c0.1,0.4,0.2,0.9,0.8,1c0.6,0,1.3-1.1,1.3-1.9c0-0.6-0.4-0.8-1-0.8C22.8,193.5,22.3,194.2,22.4,195.2z
		 M44.4,190.7c0.3,0.3,0.2,0.7,0.2,1c0.1,1.5,1.3,2.9,2.8,3.2c1.2,0.2,2.3-0.8,2.3-2c0-0.4-0.1-0.6-0.5-0.8l-0.6-0.3
		c-0.3-0.3-0.6-0.7-0.4-1c0.3-0.4,0.6,0,0.9,0.3c0.3,0.3,0.8,0.4,1.2,0.4c0.8,0,1.6-0.1,2.3-0.3c1-0.3,1.9-0.1,2.9,0.3
		c0.3,0.1,0.5,0.3,0.4,0.6c0,0.2-0.2,0.2-0.4,0.2c-1.5-0.7-3,0-4.5,0.1h-0.7c-0.3,0-0.4,0.1-0.3,0.5c0.3,1.1,0,2-1,2.6
		c-0.9,0.5-2,0.4-3-0.4c-1.2-1-1.7-2.4-1.9-3.8C44.1,191,44.1,190.8,44.4,190.7z M23.8,202.8c0.5,0.8,0.4,1.3-0.3,2
		c-1.6,1.4-4.7,1.5-6.8,0.2c-0.6-0.4-1-0.9-1.2-1.6c-0.1-0.4-0.2-0.9,0.3-1s0.7,0.2,0.8,0.6c0.1,0.2,0.2,0.4,0.2,0.5
		c-0.2,1,0.5,1.1,1.1,1.3c1.4,0.4,2.8,0.4,4.2-0.1C23,204.3,23.5,203.8,23.8,202.8z"/>
	<path class="st2" d="M18.7,194.3c-0.2-0.1-0.2-0.7-0.6-0.2c-0.6,0.9-1.5,1.7-2.2,2.5c-0.2,0.2-0.4,0.4-0.5,0.7c0,0.1,0,0.4-0.2,0.4
		s-0.3-0.2-0.3-0.4c-0.2-0.4,0-0.7,0.3-1c0.9-1,1.9-2,2.7-3.1c0.3-0.4,0.6-0.3,0.7,0.1C18.6,193.6,18.6,194,18.7,194.3z M33.5,214
		c-0.5,0.9-0.4,1.8-1.2,2.3s-1.7,0.8-2.7,0.8c-0.9,0-1.5-0.3-1.7-1.4c0.7,0.7,1.4,0.6,2.1,0.5s1.5-0.2,2-0.7c0.8-0.8,1-1.9,0.9-3.1
		c0-0.3-0.4-0.6,0-0.7c0.3-0.1,0.4,0.4,0.4,0.7c0.2,1.8,1.4,2.8,2.7,3.8c0.6,0.4,1.3,0.7,2,0.7c0.6,0,1-0.3,1-0.9
		c0-0.6,0.1-1.2-0.8-1.3c-0.7-0.1-1.4-0.3-1.9-0.9c-0.2-0.3-0.5-0.7-0.3-1c0.3-0.4,0.7-0.2,1.1-0.1c0.3,0.1,0.6,0.3,0.7,0.5
		c0.9,1.3,2.2,0.9,3.4,0.7c0.4-0.1,0.8-0.2,1.2-0.4c0.6-0.2,1.1-0.5,1.6,0.2c0.2,0.3,0.5,0.1,0.5-0.2c0-0.4,0.2-0.4,0.4-0.1
		c0.8,0.9,1.7,1,2.8,0.5c1.3-0.7,2.3-1.6,2.4-3.2c0.3,0.1,0.3,0.4,0.4,0.6c0.5,1.4,1.5,2.4,2.8,3.1c0.3,0.2,0.6,0.4,0.9,0
		c0.2-0.3-0.1-0.5-0.3-0.8c-0.3-0.4-0.8-0.8-1.1-1.2c-0.4-0.6-0.3-1,0.3-1.1c1.6-0.3,3.1-0.8,4.7-0.8c1.3,0,2.4,1,2.6,2.3
		c-0.2,0-0.3-0.2-0.4-0.3c-0.6-1.1-1.6-1.3-2.7-1.2c-1.2,0.2-2.4,0.5-3.6,0.7c-0.5,0.1-0.6,0.3-0.2,0.7c0.4,0.4,0.9,0.9,1,1.5
		c0.1,0.3,0.2,0.7-0.1,1s-0.7,0.2-1.1,0c-1.1-0.6-1.9-1.5-2.6-2.6c-0.1-0.2-0.2-0.3-0.3-0.5c-0.3,0-0.3,0.3-0.4,0.5
		c-0.7,1.4-2.8,2.9-4.8,2.2c-0.6-0.2-1.4,0-1.9-0.6c-0.1-0.1-0.4,0-0.6,0.1c-1,0.5-2.1,0.6-3.2,0.7c-0.6,0-0.7,0.3-0.5,0.8
		c0.2,0.6,0.2,1.3-0.3,1.8s-1.1,0.4-1.7,0.2c-1.5-0.5-2.5-1.5-3.4-2.7C33.9,214.6,33.8,214.3,33.5,214z M22.2,225.6
		c-0.1-0.7-0.4-1.2-0.9-1.6c-0.1-0.2-0.2-0.4,0-0.6c0.1-0.1,0.3,0,0.3,0.1c1.1,1.3,2.6,1,4,1c0.9,0,1.9-0.1,2.4-1.1
		c0.2-0.3,0.7-0.6,1.1-0.2c0.4,0.4,0.3,0.9-0.2,1.2c-0.2,0.2-0.5,0.3-0.7,0.4c-0.2,0.1-0.5,0.2-0.4,0.5c0,0.3,0.3,0.5,0.5,0.5
		c0.7,0.2,1.3,0.1,1.9-0.3c1.2-0.6,2-1.7,2.6-2.9c0.1-0.3,0.1-0.5,0-0.8c-0.1-0.6-0.3-1.3-0.2-1.9c0.1-0.3,0.1-0.6,0.5-0.7
		c0.3,0,0.4,0.3,0.5,0.5c0.4,0.8,0.3,1.6,0,2.4c-0.2,0.5-0.1,0.9,0.2,1.3c0.6,1,1.4,1.8,2.5,2.3c1.3,0.6,2.6-0.1,2.8-1.6
		c0.1-0.9-0.3-1.4-1.1-1.5c-0.5-0.1-0.9-0.2-1.4-0.5c-0.4-0.2-0.7-0.6-0.4-1c0.2-0.4,0.7-0.3,1-0.1c1.7,1.4,3.6,0.5,5.4,0.3
		c1-0.1,1.6,0.1,2,0.9c0.1,0.1,0.1,0.3,0,0.4c-0.1,0.1-0.3,0-0.3-0.1c-0.4-0.5-0.9-0.4-1.5-0.4c-1.1,0.1-2.2,0.6-3.3,0.5
		c-0.6,0-0.3,0.4-0.2,0.7c0.4,1.1,0.4,2-0.5,2.9c-0.4,0.4-0.9,0.6-1.5,0.5c-1.6-0.3-2.6-1.4-3.4-2.6c-0.5-0.8-0.5-0.8-1.1,0
		c-0.7,1-1.6,2-2.9,2.4c-1.1,0.3-1.9,0-2.4-1c-0.2-0.4-0.4-0.6-0.9-0.5c-1.3,0.2-2.5,0.2-3.8-0.2C22.5,224.9,22.5,225.4,22.2,225.6
		L22.2,225.6z M56.7,219.9c0.7,0.6,1,1.4,0.7,2.1c-0.2,0.7-1,1.2-1.9,1.2c-1.3,0-2.4-0.6-3.1-1.7c-0.4-0.5-0.5-0.6-1-0.1
		c-0.7,0.8-1.7,1.3-2.8,1.5c-0.6,0.1-1-0.1-1.5-0.4c-0.2-0.2-0.3-0.4-0.2-0.6c0.2-0.3,0.4-0.2,0.6,0c0.5,0.5,1,0.2,1.5,0.1
		c0.9-0.3,1.6-0.9,2.3-1.6c0.3-0.3,0.3-0.7,0.2-1.1c0-0.2,0-0.4,0.2-0.4s0.3,0.2,0.3,0.3c0,0.2,0.1,0.4,0.1,0.6
		c-0.2,1.2,0.7,1.7,1.5,2.1c0.9,0.5,1.9,0.6,2.8,0c0.6-0.3,0.8-0.9,0.3-1.5C56.7,220.4,56.5,220.2,56.7,219.9L56.7,219.9z M19.5,216
		c-0.2,1-0.1,2-0.5,2.8c-0.1,0.2-0.1,0.6-0.5,0.5s-0.3-0.5-0.1-0.8c0.4-1,0.6-2.1,0.5-3.2c0-0.2-0.1-0.4,0.1-0.5s0.3,0.1,0.4,0.3
		c0.9,1.2,2,1.4,3.4,0.8c0.7-0.3,1.3-0.4,2-0.2c0.2,0,0.3,0.2,0.5-0.1c0.4-0.5,0.8-0.2,1.1,0c0.3,0.2,0.6,0.5,0.4,0.9
		s-0.6,0.2-0.9,0.1c-1.2-0.4-2.3-0.4-3.4,0.1C21.5,217.3,20.4,216.9,19.5,216L19.5,216z"/>
	<path class="st3" d="M35.5,181.2c-1.4-1.1-1.6-3.1-0.4-4.5c1.1-1.4,3.1-1.6,4.5-0.4L35.5,181.2z"/>
	<path class="st4" d="M39.6,176.3c1.4,1.1,1.6,3.1,0.4,4.5c-1.1,1.4-3.1,1.6-4.5,0.4L39.6,176.3z"/>
	<path id="shadow_11_" class="st0" d="M81.7,116.7l60.7-3.1l3.1,60.7l-60.7,3.1L81.7,116.7z"/>
	<path class="st5" d="M80.5,115.5l60.7-3.1l3.1,60.7l-60.7,3.1L80.5,115.5z"/>
	<g class="st6">
		<path class="st7" d="M124.7,129.4c-0.1-0.3-0.3-0.5-0.5-0.8c-0.3-0.5-0.7-0.9-0.9-1.4c-0.6-1.4-1.1-2.8-1.6-4.2
			c-0.3-0.6-0.9-0.8-1.4-0.3c-0.3,0.4-0.6,0.8-0.8,1.2c-0.7,1.2-1.4,2.5-2.1,3.7c-0.4,0.7-0.7,0.7-1.5,0.5c-0.3-0.1-0.6-0.2-0.9-0.2
			c-2-0.4-4,0.2-5.9,0.4c-1.1,0.2-2.1,0.8-3,1.5c-0.4,0.3-0.7,0.4-1.1,0c-1.4-1.3-2.9-2.6-4.3-3.9c-0.3-0.3-0.7-0.3-1,0
			c-0.3,0.4-0.5,0.9-0.6,1.4c-0.1,0.9-0.2,1.8-0.2,2.7c0,1.4,0,2.7-0.1,4.1h0.1c0.1,0.3,0.1,0.6,0.2,0.9l0.3,0.3
			c0.3-1.9,0.5-3.8,0.1-5.7c0-0.2,0-0.4,0.1-0.6c0-0.3,0.1-0.7,0.2-1v-0.1c0-0.1,0.1-0.2,0.1-0.3c0-0.1,0.1-0.2,0.2-0.3
			c0.1-0.1,0.2-0.2,0.4-0.2c0.1,0,0.1,0,0.2,0.1c0.8,0.5,1.5,1.2,2.1,1.9c0.7,0.8,1.5,1.8,2.4,2c0.1,0,0.2,0.1,0.3,0.1h0.3
			c0.1,0,0.1,0,0.2-0.1c0.8-0.4,1.5-1.2,2.3-1.5c0.2-0.1,0.3-0.1,0.5-0.1c0.1-0.1,0.2-0.1,0.3-0.2c0.2-0.1,0.5-0.2,0.7-0.3
			c0.8-0.3,1.7-0.4,2.6-0.4c1.6-0.1,3.5,0.7,5.2,0.3c0-0.1,0.1-0.1,0.2-0.2l0.6-0.3c0.4-0.9,0.9-1.7,1.3-2.6v-0.1
			c0.1-0.3,0.2-0.5,0.4-0.7c0.1-0.3,0.2-0.6,0.4-0.9c0.2-0.4,0.8-0.2,0.8,0.1l0.1,0.1c0.6,0.9,0.7,2,1,3.1c0.1,0.2,0.3,0.5,0.4,0.7
			c0.5,0.7,0.8,1.6,1.6,2c0.1,0,0.2-0.1,0.3-0.2C124.8,130.1,124.9,129.8,124.7,129.4L124.7,129.4z M99.4,147.5
			c-0.2-1.7-0.3-3.1-0.5-4.4V143c0.1-0.5,0.1-1,0.7-1c0.6,0.1,0.4,0.6,0.4,1c-0.2,3.6,0.6,7.1,1.9,10.5c0.6,1.4,1.1,2.9,1.7,4.3
			c0.5,1,1.1,1.9,1.7,2.9c0.2,0.4,0.6,0.8,0.2,1.3c-0.3,0.3-0.7,0-1.1-0.7c-1-1.7-2-3.4-2.8-5.2c-0.5-1.1-0.7-2.4-1-3.6
			C100.2,150.7,99.8,148.9,99.4,147.5z M117.4,135.3c-0.1,0.6-0.2,1.1-0.3,1.7c-0.1,0.7,0,1.4-0.1,2.1c0,0.2-0.2,0.4-0.2,0.5
			c-0.1-0.1-0.4-0.3-0.4-0.4c-0.1-0.6-0.1-1.2-0.1-1.8c0-1.2,0.3-2.4,0.8-3.6c0.6-1.4,2.5-1.6,3.4-0.4c0.8,1.1,1.5,2.3,1.6,3.8
			c0,0.5,0.2,0.9,0.2,1.4c0,0.2-0.2,0.4-0.3,0.6c-0.2-0.1-0.4-0.3-0.5-0.5s-0.1-0.5-0.1-0.8c-0.1-1.3-0.4-2.5-1.3-3.5
			c-0.2-0.3-0.7-0.5-1.1-0.6c-0.1,0-0.3,0.1-0.4,0.3c0,0.1,0.1,0.3,0.2,0.4c1,1,1.2,3.2,0.4,4.4c-0.1,0.2-0.4,0.3-0.5,0.4
			c-0.1-0.2-0.3-0.4-0.4-0.6c-0.2-0.9-0.3-1.8-0.5-2.7c0-0.1-0.1-0.3-0.2-0.4C117.6,135.3,117.5,135.3,117.4,135.3L117.4,135.3z
			 M129.4,145.3c0.4,1.8,0.6,3.7,0.4,5.6c-0.1,1.8-0.2,3.6-0.2,5.5c0,0.1,0,0.3-0.1,0.4c-0.1,0.1-0.2,0.2-0.4,0.3l-0.3-0.3v-0.4
			c0.1-2.3,0.3-4.6,0.3-7c0-1.3-0.2-2.6-0.5-3.9c-0.5-2.2-1-4.3-1.6-6.4c-0.3-0.9-0.7-1.8-1-2.7c0-0.1-0.1-0.2-0.1-0.3
			c0-0.2,0.1-0.4,0.1-0.6c0.2,0.1,0.5,0.1,0.6,0.3c0.3,0.6,0.7,1.2,0.9,1.9c0.8,2.5,1.5,5.1,2.2,7.6L129.4,145.3L129.4,145.3z
			 M104.9,139.5c0.2,0.5,0.5,1.1,0.7,1.7c0.1,0.2,0,0.5,0,0.7c-0.2-0.1-0.6-0.1-0.7-0.3c-0.3-0.6-0.6-1.2-0.7-1.8
			c-0.3-1.5-0.5-3,0.1-4.5c0.2-0.5,0.5-0.7,1-0.8c1.3-0.2,2.6-0.2,3.6,0.9c0.3,0.4,0.6,0.8,0.8,1.3c0.3,0.8,0.4,1.6,0.6,2.4
			c0,0.2-0.2,0.4-0.2,0.6c-0.2-0.1-0.5-0.2-0.6-0.4l-0.6-2.1c-0.5-1.5-1.9-2.2-3.4-1.7c-0.2,0.1-0.5,0.4-0.5,0.5
			C104.9,137.2,104.9,138.2,104.9,139.5L104.9,139.5z M120.3,146.3c0-0.1,0.1-0.3,0.1-0.4c0.2,0.1,0.4,0.1,0.4,0.2
			c0.3,0.5,0.6,1.1,0.9,1.7c0.1,0.2,0.3,0.5,0.5,0.5s0.4-0.3,0.6-0.5c0.4-0.7,0.8-1.3,1.2-2c0.1-0.1,0.3-0.2,0.4-0.3
			c0.1,0.2,0.2,0.3,0.2,0.5s-0.1,0.4-0.2,0.6c-0.5,0.8-0.9,1.6-1.4,2.4c-0.1,0.2-0.3,0.4-0.5,0.5c-0.4,0.3-0.8,0.3-1-0.2
			L120.3,146.3z"/>
		<path class="st7" d="M107.8,138.9v1.2c-0.1,0.6-0.6,0.8-1.1,0.5c-0.2-0.1-0.3-0.3-0.4-0.4c-0.5-1-0.6-2-0.2-3
			c0.1-0.2,0.4-0.4,0.6-0.6c0.2,0.2,0.4,0.4,0.5,0.6C107.5,137.7,107.6,138.3,107.8,138.9z"/>
		<path class="st8" d="M114.2,147c-0.2-0.2-0.5-0.2-0.5-0.4c-0.4-0.9-0.9-1.9-1.3-2.8c0-0.1-0.1-0.2-0.1-0.3s0.1-0.2,0.1-0.4
			c0.1,0,0.3,0.1,0.4,0.1c0.3,0.5,0.6,1.1,0.9,1.6c0.1,0.2,0.3,0.4,0.5,0.7c0.2-0.2,0.5-0.3,0.6-0.5c0.4-0.7,0.7-1.4,1-2.1
			c0.1-0.1,0.1-0.3,0.2-0.4c0.1-0.1,0.3-0.1,0.4-0.1c0,0.1,0.1,0.3,0.1,0.4c-0.5,1.2-1,2.3-1.6,3.5
			C114.8,146.5,114.5,146.7,114.2,147z"/>
		<path class="st7" d="M114.1,152.5c0.3,0.3,0.5,0.4,0.7,0.7s0.3,0.6,0.5,0.9c0.3,0.6,0.6,0.6,1,0.1c0.2-0.3,0.5-0.6,0.7-0.8
			c0.1-0.2,0.3-0.3,0.5-0.4c0.2,0,0.3,0.1,0.5,0.1c0,0.2,0,0.5-0.1,0.6c-0.9,0.5-1.3,1.4-1.9,2.2c-0.4,0.5-0.8,0.5-1-0.1
			c-0.4-1-0.7-2-1-3C114,152.8,114,152.7,114.1,152.5z M104.9,151.6c0.2,0.2,0.4,0.3,0.5,0.5c0.3,0.5,0.6,1,1,1.5l0.6,0.6
			c0.5,0.3,0.9,0.2,0.9-0.4l0.3-2.1c0-0.2,0-0.3,0.1-0.5c0.1-0.1,0.2-0.2,0.3-0.2c0.1,0,0.1,0.2,0.2,0.3v0.3c-0.1,1-0.2,2-0.4,3
			c-0.1,0.3-0.3,0.8-0.6,0.9c-0.5,0.2-0.7-0.2-1-0.6c-0.7-1-1.3-1.9-2-2.9c-0.1-0.1-0.1-0.2-0.1-0.3
			C104.8,151.7,104.8,151.6,104.9,151.6z M124,158.2c0.1-0.1,0.1-0.3,0.2-0.5c0.1,0.1,0.3,0.3,0.4,0.5c0.2,0.3,0.2,0.6,0.4,0.9
			c0.1,0.2,0.3,0.4,0.4,0.4c0.2,0,0.4-0.2,0.5-0.4c0.2-0.3,0.3-0.7,0.5-1c0.1-0.1,0.3-0.2,0.4-0.3c0.1,0.2,0.2,0.4,0.2,0.5
			c-0.4,0.9-0.8,1.7-1.3,2.5c-0.2,0.3-0.6,0.3-0.7-0.1C124.6,160,124.3,159.1,124,158.2L124,158.2z M113.5,164.4
			c-0.2-0.1-0.5-0.2-0.6-0.4c-0.5-0.6-1.1-1.3-1.6-1.9c-0.1-0.1,0-0.4-0.1-0.5c0.2,0.1,0.4,0.1,0.5,0.2c0.3,0.3,0.5,0.6,0.8,0.9
			c0.5,0.6,0.8,0.5,1.2-0.2c0.1-0.2,0.2-0.5,0.4-0.6c0.1-0.1,0.3-0.1,0.4-0.1c0.1,0.1,0.2,0.2,0.1,0.3c-0.2,0.6-0.4,1.2-0.6,1.9
			C114,164.1,113.7,164.2,113.5,164.4L113.5,164.4z"/>
	</g>
	<path class="st3" d="M108,116.1c-1.3-1.2-1.4-3.2-0.2-4.5s3.2-1.4,4.5-0.2L108,116.1z"/>
	<path class="st4" d="M112.3,111.4c1.3,1.2,1.4,3.2,0.2,4.5c-1.2,1.3-3.2,1.4-4.5,0.2L112.3,111.4z"/>
	<path id="shadow_10_" class="st0" d="M9.4,80.9L69.6,89l-8.2,60.2l-60.2-8.2L9.4,80.9z"/>
	<path class="st5" d="M8.2,79.7l60.2,8.2l-8.2,60.2L0,140L8.2,79.7z"/>
	<path class="st9" d="M36.9,90.4l23.9,3.3l-5,37l-23.4-3.1L36.9,90.4z"/>
	<path class="st10" d="M32.4,127.6l-24.2-3.3l5-37.1l23.7,3.2L32.4,127.6z"/>
	<path class="st3" d="M35.2,85.5c-1.1-1.4-0.8-3.4,0.6-4.5s3.4-0.8,4.5,0.6L35.2,85.5z"/>
	<path class="st4" d="M40.2,81.6c1.1,1.4,0.8,3.4-0.6,4.5s-3.4,0.8-4.5-0.6L40.2,81.6z"/>
	<path id="shadow_5_" class="st0" d="M65.9,14.5l59.3-13.4l13.4,59.3L79.4,73.8L65.9,14.5z"/>
	<path class="st5" d="M64.8,13.4L124.1,0l13.4,59.3L78.2,72.7L64.8,13.4z"/>
	<path class="st11" d="M95.4,13.4l23.5-5.3l8.3,36.4l-23,5.2L95.4,13.4z"/>
	<path class="st12" d="M104.2,49.7l-23.9,5.4L72,18.7l23.4-5.3L104.2,49.7z"/>
	<path class="st3" d="M92,9.3c-1.5-0.9-1.9-2.9-1-4.4C92,3.5,93.9,3,95.4,4L92,9.3z"/>
	<path class="st4" d="M95.4,4c1.5,0.9,1.9,2.9,1,4.4s-2.9,1.9-4.4,1L95.4,4z"/>
</g>
</svg>
