<?xml version="1.0" encoding="utf-8"?>
<!-- Generator: Adobe Illustrator 24.2.0, SVG Export Plug-In . SVG Version: 6.00 Build 0)  -->
<svg version="1.1" id="Layer_1" xmlns="http://www.w3.org/2000/svg" xmlns:xlink="http://www.w3.org/1999/xlink" x="0px" y="0px"
	 viewBox="0 0 426.6 426.6" style="enable-background:new 0 0 426.6 426.6;" xml:space="preserve">
<style type="text/css">
	.st0{opacity:0.5;fill:#7B5D41;enable-background:new    ;}
	.st1{fill:#F9E8CF;}
	.st2{clip-path:url(#SVGID_2_);fill:#E5D7B5;}
	.st3{fill:#10232D;}
</style>
<g id="Layer_1_1_">
	<g id="stickynote_2_">
		<g id="stickynote_3_">
			<path id="shadow_5_" class="st0" d="M0,425.2L1.4,0l425.2,1.4l-1.4,425.2L0,425.2z"/>
			<g id="note_1_">
				<path class="st1" d="M0,425.2L1.4,0l425.2,1.4l-1.1,330.1c0,0-3.4,41.7-21.5,52.5C370.9,404,278.8,431.4,0,425.2z"/>
				<g>
					<g>
						<g>
							<g>
								<defs>
									<path id="SVGID_1_" d="M0,425.2L1.4,0l425.2,1.4l-1.1,330.1c0,0-3.4,41.7-21.5,52.5C370.9,404,278.8,431.4,0,425.2z"/>
								</defs>
								<clipPath id="SVGID_2_">
									<use xlink:href="#SVGID_1_"  style="overflow:visible;"/>
								</clipPath>
								<path class="st2" d="M256,418.4c0,0,75.5-2.7,83.8-60.4c0,0,22.9,23.8,82.9,0.3l-0.2,60.7L256,418.4L256,418.4z"/>
							</g>
						</g>
					</g>
				</g>
			</g>
		</g>
		<path id="underline_1_" class="st3" d="M41.4,83.6c2.2,0.2,4.2,0.5,6.2,0.5c8.5,0.3,16.9,1.8,25.5,1.4c10-0.5,20-0.6,30-0.9
			c9.6-0.3,19.1-0.4,28.7-0.7c14.9-0.5,29.9-0.7,44.8-0.6c2.1,0,4.2,0.4,6.4,0.7c-9.2,0.6-18.5,0.8-27.2,4.6c1.4,0,2.9,0.1,4.4,0
			c8.7-0.8,17.4-1.2,26.1-2.4c3.1-0.4,6.2-0.7,9.3-1.5c0.5-0.1,1.1-0.2,1.6-0.5c0.4-0.3,1.2-0.3,1.1-0.9c-0.1-0.7-0.8-0.8-1.4-0.9
			c-2.1-0.2-4.2-0.5-6.4-0.6c-21.2-0.5-42.4-0.2-63.6-0.1c-6.4,0-12.8,0.3-19.2,0.3c-11,0-22,0.2-32.9,0.5
			c-6.7,0.2-13.4,0.1-20.1,0.3l-12.2,0.3C42.1,83.2,41.8,83.1,41.4,83.6L41.4,83.6z"/>
	</g>
</g>
</svg>
