<?xml version="1.0" encoding="utf-8"?>
<!-- Generator: Adobe Illustrator 24.1.2, SVG Export Plug-In . SVG Version: 6.00 Build 0)  -->
<svg version="1.1" id="Layer_1" xmlns="http://www.w3.org/2000/svg" xmlns:xlink="http://www.w3.org/1999/xlink" x="0px" y="0px"
	 viewBox="0 0 1366 768" style="enable-background:new 0 0 1366 768;" xml:space="preserve">
<style type="text/css">
	.st0{opacity:0.5;clip-path:url(#SVGID_2_);}
	.st1{fill:#BE976A;}
</style>
<g>
	<defs>
		<rect id="SVGID_1_" width="1366" height="768"/>
	</defs>
	<clipPath id="SVGID_2_">
		<use xlink:href="#SVGID_1_"  style="overflow:visible;"/>
	</clipPath>
	<g id="NY1AhZ_3_" class="st0">
		<path class="st1" d="M1366,327.7c-109.1-3.1-218.2-5.8-327.2-9.7c-37.4-1.3-73.3,4.6-110.1,6.4c-41.6,2.1-82.9,1.1-124.2-1.2
			c-46.1-2.6-92.1-3.2-137.4,3.3c-54.6,7.9-109.5,7.2-164.5,4.5c-92.3-4.5-184.4-9-277-1.8c-61,4.7-122.2,0.7-183.2-1.3
			c-14.1-0.5-28.3-0.2-42.5-0.2v-4c64.7,0.4,129.2,5.7,194,3.5c51.5-1.8,102.6-6.4,154.4-5.6c56.6,0.9,113,4.2,169.5,6.6
			c53.8,2.3,107,1.3,159.8-6.2c42.5-6,85.5-4.7,128.4-2c62.3,3.8,124.1,2.3,185.9-4c36.7-3.8,73.6,0.2,110.4,1
			c87.9,1.8,175.6,6.8,263.6,6.9C1366,325.1,1366,326.4,1366,327.7L1366,327.7z M0,658.8c42.6-3.3,85.3-6.4,127.9-10
			c65.2-5.6,130-12.2,193.8-22.9c21.1-3.5,39.2-12.3,61.6-13.5c56.1-3,112.2-1.9,168.3-0.6c62.1,1.5,124.2,3.3,186.2,6.9
			c44.3,2.6,88,5.5,130.9,14.9c80.5,17.7,164.6,19.6,247.7,13.9c64.4-4.4,126.8-1.5,189.6,5.9c19.9,2.3,40,3.6,60.1,5.4v2
			c-39.1-0.6-77.6-4.6-115.5-10.1c-48.8-7-96.6-0.8-144.8,1.1c-90.6,3.5-179.8-0.3-266.1-20.7c-24.5-5.8-50.6-6.3-76.2-7.7
			c-117.9-6.6-236-10.2-354.3-8.7c-20.9,0.3-40.5,2.3-60.1,8c-37.7,11-78.7,14.3-118.9,19.1c-71.1,8.5-142.8,14.4-214.8,18.8
			c-5,0.3-10.1,0.1-15.1,0.2C0,660.2,0,659.5,0,658.8L0,658.8z M0,48.5c60.5,2.7,121.1,5,181.6,8.1c102.9,5.2,206,6.6,309.2,6.2
			c82.4-0.3,164.8-1.4,247.1-4.3c27.5-1,53.7-6,80.7-8.2c43.3-3.6,86.9-1.8,130.4-1.9c60.7-0.1,121.2,0.4,181.4-7.2
			c50.9-6.5,101.8,0,152.4,4.1c27.7,2.3,55.4,3.4,83.2,3.2v4c-40.9-0.9-81.6-3.3-122.2-7.1c-47.9-4.5-95.4-3.7-143.2,2
			c-58.5,7-117.8,4.1-176.8,4.3c-46.8,0.1-93.5-0.9-140.1,6.1c-45.3,6.9-92.4,5.4-138.8,6.5c-94,2.4-188,3.5-281.9,1.7
			c-107.5-2.1-214.9-6.7-322.1-12.8C27.3,52.4,13.6,52.7,0,52.5L0,48.5L0,48.5z M0,84.4c61.2-2.8,117.6,6.6,172.3,25.1
			c35.1,11.9,75.7,14,114.7,17.7c84.7,7.9,169.9,14.2,255.4,10.8c81.7-3.2,164.7-3.2,244.4-14.9c73.4-10.8,146.4-10,219.9-11
			c48.8-0.7,96.3-6.7,143.9-12.9c71.1-9.3,142.9-14,215.4-14.8v4c-79.8-0.7-158.6,5.8-236.2,16.8c-50.3,7.2-101,9.3-152,10.7
			c-43.4,1.1-87-0.9-130.4,2.3c-26.7,2-51.5,9.1-78.4,11c-53.3,3.8-106.8,5.9-160.1,9c-45.3,2.6-90.6,5.5-136.2,3.8
			c-88.9-3.5-177.5-8.1-264.6-21.3c-22.4-3.4-43.1-9.1-63.4-16C99.2,89.2,50.2,86.1,0,88.4V84.4z"/>
		<path class="st1" d="M0,636.9c88.7-0.3,177.8-2.4,263-18.5c121.3-22.9,245-19.6,368.5-21.3c79.4-1.1,158.7,0.6,237.5,7.9
			c18.1,1.7,35.7,4.3,52.5,9.3c15.1,4.5,31.6,4.3,47.7,4.4c79.9,0.7,159.7,1.7,239.5,3.8c44.7,1.2,88.1,7.2,131.7,12.9
			c8.5,1.1,17,1.5,25.6,1.5v4c-34.4-1.7-67.4-8.9-101.5-11.7c-64.8-5.3-130.1-5.6-195.2-6c-40.4-0.3-80.9-0.4-121.3-2
			c-6.5-0.3-13.5-0.3-19.4-1.9C863.7,602,794.9,602.9,727,601.4c-97-2.2-194.2-1.5-291.1,2.3c-38.3,1.5-76.9,2.4-114.5,7.8
			c-31.5,4.5-61.6,12.5-93.7,16c-75.4,8-151.3,12.1-227.7,13.4L0,636.9L0,636.9z M0,505.3c37.2-1.1,73.4,4.2,110,7.1
			c64.8,5.2,129.6,10.6,194.9,4.6c29.1-2.7,56.3-10.6,85.3-13.9c43.2-5,86.7-4,130.1-3.9c23.8,0.1,47.2-0.5,70.8-3.5
			c44.7-5.7,89.8-2,134.6,0.5c59,3.4,117.1,10.3,175,18.4c51.1,7.2,102.8,2.7,153.9-2.2c39.2-3.8,78-5.3,117.7-2.1
			c45.9,3.8,91.9,0.4,137.6-3.9c18.5-1.7,37.3-2,56-1.1v2c-55.6,0.3-110.3,9.5-166.1,7.7c-11.1-0.3-22.3-0.4-33.2-1.6
			c-56.1-6.6-110.6,3.9-165.8,6.6c-42.2,2.1-83.7,1.4-124.9-5.1c-73-11.6-147.3-16.4-222.2-18.1c-26.8-0.6-53.3,0.1-79.7,4.2
			c-28.9,4.5-58.4,0.6-87.7,0.7c-51.3,0.2-101.8,3.3-151,13.8c-42.1,8.9-85.5,8.5-129.1,6.8C137.1,519.6,69,510.6,0,507.2V505.3
			L0,505.3z M0,379.6c52.1,0.1,104.2,0.2,156.3,0.2c74.3,0.1,148.7,1.1,222.9-2.5c27.2-1.3,54.2-3.5,80.8-8
			c27.2-4.6,55.7-3.4,83-0.8c90.6,8.5,180.4,4.6,270.3-4.1c42.4-4.1,85.3-6.3,128.5-3.4c27.7,1.9,55.5,0.4,83.3-1.3
			c55-3.4,108.8,4.3,162.8,9.2c59.2,5.3,118.7,7.9,178.1,10.8v2c-49.2,0.6-97.9-3.3-146.6-7.1c-47.7-3.7-95.2-8.3-142.9-12.1
			c-25.3-2-50.5,0.6-75.7,1.7c-36.4,1.6-72.7-1.2-109.1-0.8c-46.7,0.5-92.6,5.6-138.8,9.3c-55.9,4.5-111.6,6.3-167.8,1.8
			c-51-4-101.6-6.3-153.5,1.7c-52,8.1-106.4,7-160,7.3C181,383.9,90.5,383.8,0,381.6L0,379.6L0,379.6z M1366,585
			c-106.7-1.4-213.4-2.7-320.1-4.2c-76.8-1.1-153.7-2.1-230.5-4c-30.2-0.7-60.3-4.2-90.7-4c-70.8,0.4-141.6-0.1-212.4,0.7
			c-96.1,1-192.2,2.1-288.2,4.3C149.4,579.5,74.8,583.9,0,585v-4c52.1,0.6,104.1-2,156-4.2c72.2-3.1,144.5-3.1,216.8-4.2
			c119.8-1.8,239.7-6.4,359.4-2.8c100,3,200,5.6,300,7c111.2,1.6,222.5,2.8,333.7,4.2C1366,582.4,1366,583.7,1366,585L1366,585z
			 M1366,353.7c-72.4,1.9-144.5-3-216.7-4.6c-74.3-1.7-148.7-1.6-222.9-0.4c-90.5,1.4-181,0.6-271.5,0.7
			c-96.1,0.1-192.5-2.4-288.2,2c-91.5,4.2-182.7,5-274.2,4c-30.8-0.3-61.6-1-92.5-1.6v-2c50.1-1,100,0.2,150.1,1.4
			c69.3,1.6,138.3-0.8,207.5-5c77.6-4.7,155.7-2.3,233.5-2.4c132-0.2,264.1,0.6,396.1-0.8c60.7-0.6,121.4-0.3,182,1.3
			c65.6,1.8,131.3,3.3,196.9,5.5C1366,352.3,1366,353,1366,353.7z M0,431.5c43.9-0.3,87.9-5.4,131.7-0.6
			c63.4,7.1,126.7,5.9,190.1,0.1c43.2-3.9,86.7-4.4,130.2-3.9c68.8,0.9,137.4-4.9,206.2-3.1c60.7,1.5,121.3,2.1,182,1.1
			c15.1-0.2,30.3-1.1,45-3.8c4.3-0.8,9.6-1.4,12.5-3.3c25.1-16.7,57.9-20.5,90.7-21.6c80.8-2.6,161.3,0.8,236.6,22.1
			c45.9,13,92.6,14.8,140.9,12.8v4c-57.3,3.5-109.9-6.5-163.8-18.8c-82-18.7-167.8-23.4-254.2-12.6c-16.1,2-30.9,6.4-42.7,14.2
			c-10.9,7.3-25.6,7.8-39.4,8.8c-44.8,3.2-89.9,2.7-134.9,1.5c-60.7-1.5-121.3-1.4-182,0.5c-58.1,1.8-116.3-0.2-174.4,2.4
			c-27.2,1.2-54.6,1.9-81.6,4.5c-47,4.6-93.8,4.9-140.5-0.4c-51-5.8-101.7-2.9-152.6-0.2C0,434.1,0,432.8,0,431.5L0,431.5z
			 M1366,770.5c-51.2-0.5-101.7,4.8-152.6,6.8c-42.5,1.7-84.8,2.6-127.1-0.8c-39-3.2-77.5-2.4-116.1,2.2
			c-50.3,5.9-101.6,5.4-152.3,9.4c-67.7,5.3-135.3,11.2-203.5,13.6c-67.9,2.4-135.3,0.7-201.5-11.2c-41.1-7.4-83.7-8.8-125.9-11.5
			c-18.4-1.2-35.2-5.7-52.9-8.2c-47-6.7-94.5-4.9-141.9-3.3c-30.7,1.1-61.4,3.4-92.3,3v-2c20.4-3.5,41.3-1.5,61.9-2.8
			c70.7-4.5,140.7-5.7,210.4,7.9c30.5,5.9,63.9,5.4,96,7.7c33.8,2.5,65.8,10.3,99.4,13.5c56.9,5.5,113.9,5,170.9,2.3
			c100.8-4.7,200.6-15.6,301.6-19c20.1-0.7,40.1-3.4,60-5.7c38.6-4.4,76.7,0.4,114.8,2.5c50.3,2.8,99.9-1.5,149.7-3.4
			c33.8-1.3,67.5-3.3,101.2-4.9C1366,767.9,1366,769.2,1366,770.5z"/>
		<path class="st1" d="M0,734.6c35.4,0,70.8,0,106.1-0.1c15.3,0,30.2,1.5,44.8,4.4c4.8,0.9,10,1.8,14.8,1.5
			c64.1-4,125.1,6.1,186.7,15.7c72.2,11.3,145.2,20.7,219.1,26.5c41.3,3.2,81.6-2.1,121.2-9.3c44.6-8.1,89.6-13.7,136-12.6
			c7.8,0.2,15-0.7,21.3-4c14.5-7.8,31.5-12.8,50-13c54.3-0.5,107.9-7.8,163-2.2c69.4,7,139.3,2.6,208.2-5.9
			c23.6-2.9,46.8-4.5,70.6-1.4c7.8,1,16.1,0.4,24.1,0.5v4c-55.5-8.4-109.2,3.4-163.7,6.6c-52.6,3.1-105.1,2.5-157.5-1.4
			c-27.7-2-55.1-2.7-83,0.8c-17.1,2.2-35.2,1.2-52.8,1.7c-20.2,0.6-38.9,3.9-55,12.4c-6.6,3.4-14.3,5.7-22.4,5.4
			c-56.5-2.1-110.3,7.3-164.3,16.3c-42.7,7.2-85.7,7.7-129.3,2.6c-78.1-9.2-156.7-17.2-233.3-30.9c-39.8-7.1-79-10.9-119.5-7.8
			c-25.5,2-48.3-5.8-73.1-6.5c-37.5-1-74.8,1.6-112.2,0.7C0,737.3,0,736,0,734.6L0,734.6z"/>
		<path class="st1" d="M1366,722.7c-49.9,2.6-99.6,3.9-149.8,0.8c-42.5-2.6-84.4,4.7-126.5,7.8c-23.9,1.8-47.5,1.1-71.1-1
			c-30.5-2.7-60.8-6.4-91.1-9.7c-40.2-4.4-79.5-0.8-118.6,5.5c-33.9,5.5-67.3,12-99.4,21.1c-4.2,1.2-8.9,2.2-12,4.2
			c-20.2,13.1-46.4,13.8-72,14.7c-64.4,2.1-128.3-1.8-191.8-8.6c-14-1.5-26.7-5.3-39.5-9.7c-57.6-19.7-117.7-35.4-184-30.6
			c-70.1,5.1-140.1,5.7-210.3,5.4v-2c37.3-2.1,74.8-1.5,112.2-2c28.3-0.4,56.7-0.7,84.6-4c45-5.4,87.6,1.5,129.6,10.2
			c26.9,5.6,53.1,12.9,77.4,22.7c12.8,5.1,27.5,6.4,42,7.8c69.7,6.9,139.6,10.1,210,5.4c12.3-0.8,22.6-3.8,32.6-9.1
			c19.2-10.2,43.5-13.8,66.5-18.7c49.2-10.5,99.2-18.6,151.6-17.1c7.5,0.2,15,1.1,22.5,1.8c45.4,4.4,90.2,11.1,136.5,11.2
			c32.1,0.1,63.2-4.6,94.8-6.8c31.8-2.2,63.5-2.4,95.3,0c28.4,2.1,56.5-0.9,84.8-1.4c8.6-0.1,17.2,0.1,25.7,0.1L1366,722.7
			L1366,722.7z M1366,461.4c-18.7,0.8-37.3,1.9-56,2.4c-25,0.7-47.2-5-69.2-12.6c-69-23.8-142.3-37.6-220.7-37.9
			c-13.3-0.1-25.7,2.4-38.1,5.8c-23.7,6.6-49.7,10.3-71.8,18.7c-35.9,13.5-74,14.1-113,14.1c-52.6,0-105.2-0.5-157.8,0
			c-25.7,0.2-51.5,1.4-75.6,8.8c-8,2.4-16.9,1.4-25.5,1.4c-67.2-0.1-134.9-4.9-201.2,4.5c-48.4,6.8-96.6,5.7-144.9,4
			c-56-2.1-111.8-6.5-167.9-7.3c-8.1-0.1-16.2,0.2-24.2,0.3v-4c59.7-0.5,119,4.3,178.5,6.9c55,2.4,109.6,4.3,164.4-3.9
			c47.6-7.1,96.6-5.8,145-4.7c34.8,0.8,68.3,0.6,102.9-5.4c43.9-7.7,90.3-5.7,135.8-4.2c43.5,1.4,86.9,1.3,130.2-1.3
			c12.1-0.7,23.5-3.1,34.4-7.1c32.8-12.1,69.3-18.2,104-27.3c25.6-6.7,54.1-3.5,81-0.3c60.9,7.2,120.1,18,174.2,38.7
			c22.1,8.4,46.3,11.1,71.6,9.6c14.6-0.9,29.2-1.6,43.9-1.1L1366,461.4L1366,461.4z M0,271.9c58,1.8,116.1,3.7,174.2,5.2
			c42.1,1.1,83.2-2.6,124.6-8.6c60.2-8.8,122.3-9.4,183.7-12.9c73-4.1,146.2-6.4,218.8-13c34.4-3.1,68.7,1.1,102.7,3.8
			c112.4,8.8,224.9,16,338.4,15.9c65.2-0.1,130.2,4.3,195,8.7c9.5,0.6,19.2,0.6,28.7,0.9v4c-115.6-8.7-231.9-9.7-348-12.6
			c-83.8-2.1-167-9.8-250.2-16.4c-43.9-3.5-86.6,1.4-129.7,3.7c-71.5,3.7-143,7.4-214.5,11.5c-52.3,3-104.4,6.4-155.9,14.2
			c-51.1,7.7-103.7,3.8-155.6,2.6c-37.5-0.9-74.8-3.6-112.2-3L0,271.9L0,271.9z M0,2.6C47,2.2,93.8,0,140.9,0.9
			c126.8,2.2,253.7,3.6,380.5,5.7c37.1,0.6,73.1-5.5,110.1-5.7c107.2-0.6,214.2,2.4,321.3,4.9c38.8,0.9,78.1,5,116.5,1.4
			c34.2-3.2,68.3-4.1,102.6-5.2c52.6-1.7,105.1,1.2,157.6,0.7c12.1-0.1,24.3-0.1,36.4-0.1v4c-72.8-1.5-145.6-3.1-218.3-1.3
			c-52.4,1.3-104.3,7.2-157.1,5.2c-104.4-3.9-209-6.3-313.6-6.1C634,4.5,591.1,4.2,548.6,10c-17.4,2.4-35.3-0.7-52.9-0.9
			C362.2,7.5,228.8,6,95.4,4.3C63.5,3.9,31.8,5.7,0,6.6V2.6z M0,559.1c102.2-6.3,205.2-1.8,307.2-11.4c34.8-3.3,70.7-1.6,106-2.5
			c81.3-2.3,162.4-7.4,243.9-6.3c31,0.4,61.1,3.1,90.7,9.8c49.1,11.1,100.2,11.9,151.5,9.4c42.3-2.1,84.7-4.4,127-6.7
			c36.3-2,71.2,3.5,106.6,7.5c62.7,7,126.1,3.1,189.2,1.3c14.6-0.4,29.3-0.7,43.9-1v4c-44-1.4-87.8,2.5-131.9,2.4
			c-47.1-0.1-93.6-1.3-140.1-8.2c-43.8-6.4-88.6-1.7-133,0.9c-61.5,3.6-122.9,7.5-184.2-1c-4-0.5-8.1-0.8-11.8-1.8
			c-62-16.4-126.7-14.2-191.5-12.6c-82.3,2-164.5,6.8-247,7.1c-46.4,0.2-92.4,6.4-138.9,8.1c-34.3,1.2-68.7-1.5-103,0.9
			c-28.1,2-56.4,2.7-84.7,4.1C0,561.8,0,560.4,0,559.1z"/>
		<path class="st1" d="M1366,409.5c-69.8-2.4-138.5-10.3-207.1-18.3c-71.5-8.3-142.4-8-214-0.9c-41.8,4.2-83.7,6.9-126.6,4.1
			c-56.9-3.7-114,1.3-171,4.2c-69,3.5-137.9,7.9-206.9,11c-58.9,2.6-118.2,6.6-177,1.6c-87.8-7.5-175.6-1.9-263.4-1.7v-4
			c69.7-0.6,139.6-3.2,209.1-1.2c51.3,1.5,102.5,6.5,154.1,4.9c76.2-2.4,152.3-6.3,228.2-10.8c67.9-4,136.3-11,204-7.6
			c72.7,3.7,142.8-4.4,214-8.8c57-3.5,112.8,2.3,168.8,8c62.4,6.3,124.4,14.5,187.8,15.4L1366,409.5L1366,409.5z M1366,543.1
			c-24.5-3.2-49.4-1.3-74-2.7c-61.3-3.5-121.9-12.4-184-9.1c-33.7,1.8-67.6,2.7-101.1,5.4c-47,3.8-92.5-3.7-138.7-5.8
			c-44.3-2-88.7-4.2-133.1-5.2c-87.9-1.9-175.8-3.2-263.7-2.2c-20.1,0.2-41-0.7-60.1,3.5c-17.8,4-35.6,7.2-54.1,8.9
			c-33.1,3-66.3,4.4-99.6,5.2c-81.3,1.9-162.7,1.6-244,1.6c-4.5,0-9.1,0.3-13.6,0.4v-4c73.9-0.1,147.7,0.3,221.6-0.6
			c46.4-0.6,93-1.7,139.1-5.9c7-0.6,14.5-0.8,20.8-2.7c42.3-12.6,87.5-9.7,131.5-9.8c105.2-0.4,210.4,1.4,315.4,5.3
			c36.8,1.4,73.6,3.2,109.9,8.2c26.7,3.7,53.6,0.7,80.1-1.3c84.4-6.4,168.3-5.3,252.4,3.1c31.3,3.1,63.5,2.6,95.3,3.7
			C1366,540.5,1366,541.8,1366,543.1L1366,543.1z M0,30.6c89.4-12.9,179.2-3.2,268.8-1.1c55.1,1.3,110.2,0.9,165.2,0
			c41.4-0.6,82.8,0.1,124.2-2.6c21.6-1.4,42.9-4.3,64.7-5c71.8-2.1,143.3,2.5,214.9,4.6c19,0.5,37.1-1.9,55.5-3.9
			c44.5-4.8,88.6,0.1,132.8,2.9c16.6,1,33.2,1.9,49.7,3.1c15.3,1.1,27.9-5.2,42.5-6.4c39-3.2,77.7-0.8,116.5,1
			c43.8,2,87.5,4.9,131.3,7.3v2c-36.6,1.3-72.6-3-108.8-4.8c-39.8-2-79.6-4-119.6-3.2c-14.8,0.3-29.2,1.5-42.8,5.6
			c-7.2,2.1-14.5,2.2-22.2,1.8c-48.9-2.4-97.3-8.3-146.6-7.5c-16.2,0.3-32.1,1.3-48.1,3.4c-32.6,4.4-65.5,1-98.2,0
			c-71.7-2.2-143.2-6.4-214.8,1.9c-23.2,2.7-47.3,2.4-71.1,2.7c-130.5,2-260.9,0.1-391.2-4.9c-26.8-1-53.6,0.2-79.9,4
			C15,32.6,7.6,33.3,0,32.6C0,32.6,0,30.6,0,30.6z M0,253.9c88,4.7,175.6-0.2,263.3-4.5c5.7-0.3,11-1.4,15.7-3.4
			c34.3-14.3,73-19.2,112.4-21.6c64.5-4.1,129.2-2.4,193.9-1.4c31.8,0.5,63.6,0.2,94.8-5.1c50-8.4,100.4-5.4,150.6-1.3
			c54.6,4.5,109.3,8.8,164.4,8.9c68.1,0.1,134.7,8.3,201.2,16.7c56.2,7.1,112.7,11.5,169.7,13.6v2c-53.4,1.1-105.9-4.3-158-11
			c-87.5-11.1-175.3-18.6-264.8-19.5c-51.3-0.5-102.5-6.6-153.8-10.1c-36-2.5-71.9-2-107,3.7c-25.9,4.2-51.8,5.3-78.2,5.2
			c-57.7-0.1-115.3-0.9-172.9,0c-53.3,0.8-105.3,5.5-153.6,23.1c-22.1,8.1-49.5,5.2-74.6,6.4c-67.6,3.3-135.3,2.9-203.1,2.2L0,253.9
			L0,253.9z"/>
		<path class="st1" d="M1366,242c-7.5,0.6-15.1,1.2-22.6,1.7c-33.6,2.5-63.3-1.6-92.8-14.7c-48.1-21.4-104.4-27.8-161.9-28.4
			c-36.8-0.4-73.1-1-109.9-5.8c-53.6-7-108.6-5.6-163.3-3.7c-42.4,1.4-85.2,1.3-126.7,7.4c-68.7,10.2-137.8,6.6-206.8,4.1
			c-75-2.7-149.4-0.6-223.1,9.5c-5.4,0.7-11,1.5-16,3.1c-77.2,24-160,25.7-243,26.8v-2c62.1-1.9,124.2-4.5,185-13.9
			c17.7-2.7,34.5-6.9,51.1-12.1c27.3-8.6,57.8-8.7,87.1-11.9c60.9-6.6,122.1-4.2,183.1-1.6c69.5,2.9,137.7-0.4,206.7-7
			c89.6-8.6,180.4-11.1,270.4-1.3c33.1,3.6,65.9,6.3,99.3,5.7c69.9-1.2,134.1,10.4,191.6,36.8c13.3,6.1,27.8,7.2,43.3,6.6
			c16.1-0.7,32.3-0.8,48.5-1.2V242L1366,242z M1366,688.7c-57.6-1.3-115.1-2.2-172.7-3.9c-66.6-1.9-133-5.9-199.2-11.2
			c-47.3-3.8-94.9-1.6-142.3-3.2c-42.3-1.4-84.9-2.5-125.3-12.7c-8-2-17-3.6-23.1-7.2c-19.1-11.2-42.6-13-66-14.8
			c-69.2-5.6-138.7-9.5-208.5-8.7c-16.2,0.2-32.2,1.6-48.2,3c-15.8,1.4-29.9,4.9-43,11.3c-24.8,12-54.3,15.5-84.2,17.6
			c-32.1,2.2-63.9,4.3-93.7,14.4c-15.9,5.4-35.7,3.5-53.8,4.2c-36,1.2-70,10.2-106,11.3v-4c28.4,1.4,54.4-6.7,82-8.6
			c7.5-0.5,15-1.2,22.6-1.6c26-1.5,51.3-2.6,76.2-10.3c31.8-9.9,68.5-7.1,102.6-11.6c20.6-2.7,39.7-7.6,56.4-16.1
			c18.3-9.3,40.4-10.2,61.8-11.4c67.3-3.8,134.2,0.7,201.1,4.7c12.6,0.8,25,2.1,37.6,3.1c23.1,1.8,44.4,4.7,64.6,14.5
			c26.5,12.9,60.1,14.9,92.3,17.2c46.8,3.3,93.8,3.4,140.8,3.7c54.7,0.4,108.5,7.3,163,9.3c36.8,1.4,73.5,3.9,110.3,4.9
			c51.5,1.3,103,1.6,154.6,2.4C1366,686.1,1366,687.4,1366,688.7L1366,688.7z M0,66.5c50.4,0.4,101.3-3.3,150.8,5.9
			c21.8,4.1,43.6,8.6,64.6,14.3c26,7.1,52.2,11.8,80.5,12.8c97.5,3.5,195.9,9.4,291.9-2.3c62.7-7.7,124.4-5.1,186.6-7
			c40.4-1.2,80.5-2.8,120.1-9.6c50.1-8.7,101.9-10.3,153.4-11.5c79.3-1.9,158.5-6.1,237.9-4.6c26.8,0.5,53.5,1.3,80.3,2v2
			c-12.6,0.1-25.3,0.6-37.9,0.3c-129-3.1-257.6,1.6-386,9.3c-32.9,2-63.9,9.9-96.7,12.2c-54.4,4-109,3.2-163.6,2.5
			c-25.3-0.3-49.9,0.7-74.6,6.1c-31.4,6.8-65,6.5-97.7,7c-80.9,1.3-161.7,0.4-242.3-5.1c-20.6-1.4-38.9-7.1-57.4-12.2
			C158.2,74.2,104.4,68.2,48.5,69C32.3,69.2,16.2,68.6,0,68.5V66.5z M1366,487.3c-80.3,1.6-160.4,5.9-240.2,12.2
			c-11.5,0.9-23.3,1.5-34.4,3.6c-44.8,8.2-88.3,0.4-131.9-4.4c-103.3-11.3-207-18.7-312-18c-54.5,0.4-109-1.7-163.6,0.4
			c-38.9,1.5-77.4,4.9-116.1,7c-22.8,1.3-45.4,0.9-68.2,1c-27.3,0.1-54.5-0.1-81.7,2.1c-53.1,4.2-105.9-2-158.8-2.6
			c-19.7-0.2-39.4-0.9-59.1-1.4v-2c42.5-1.7,85,0.2,127.1,2.6c43.2,2.4,85.7,0.2,128.5-1.7c2-0.1,4-0.5,6-0.4
			c107.3,3.3,213.4-11.6,320.8-9.1c70.7,1.7,141.5,0.3,212,4.2c77,4.3,153.3,12.8,229.4,21.4c28.1,3.2,54.1-2.2,81-4.3
			c86.8-6.8,173.5-13.7,261.1-12.7C1366,486,1366,486.6,1366,487.3L1366,487.3z M1366,611c-54.5-1.6-108.9-3.3-163.4-4.9
			c-29.8-0.9-59.5-1.9-89.3-2.4c-67.1-1-134-4.3-200.8-8.5c-76.5-4.8-153.4-4.5-230.2-3.7c-107.1,1-214.2,2.8-321.3,4
			c-84.5,0.9-168.2,7.4-251.9,14.2c-36.2,3-72.6,1.9-109,1.3v-2c83.2,1.5,165-8.4,247.4-13.1c71.9-4.1,144.3-4.2,216.5-5.5
			c130.4-2.4,260.8-2.4,391.1-0.9c38.7,0.5,77.7,1,116,6.7c15.6,2.3,32.1,1.8,48.3,2.1c74.2,1.7,148.5,3,222.7,5
			c41.4,1.1,82.8,1.5,123.9,5.6V611L1366,611z M0,295.8c43.9-1.2,88-1.2,131.8,0.6c70.9,2.9,141.3-0.8,211.9-3.2
			c84.7-3,169.4-6.5,254.1-9.5c75.1-2.7,150.3-4.6,225.6-6.2c38.1-0.8,75.2,3.3,112.8,5.8c91,6.3,182.5,6.8,273.9,9.1
			c52,1.3,104.1,0.2,155.9,3.4v2c-95.6-0.3-191.1-2.6-286.6-5.2c-52.5-1.4-105.6-0.8-157.2-7.2c-64.7-8-129-3.3-193.4-2.1
			c-56.1,1-112.2,2.8-168.2,4.8c-79.7,2.8-159.4,6.2-239.1,9.3c-75.8,3-151.6,3.9-227.4,1.3c-31.3-1.1-62.7-0.7-94.1-1L0,295.8
			L0,295.8z M1366,114.3c-22.2-1.1-44.5-0.5-66.7,0.5c-18.7,0.9-36,4.2-52.8,10.9c-42.1,16.8-89.9,21.2-137.8,24.6
			c-73.4,5.2-147.4,3.7-220.9,7.8c-38.8,2.2-76.6,8.7-115.6,10.6c-67.1,3.3-134.2,5.7-201.3,7.1c-80.8,1.7-161.7,2.3-242.7,2.3
			c-65.4,0-121.1-15.4-172.3-40.3c-3.2-1.5-5.6-3.8-8.3-5.7c7.2,0.1,12,3.4,17.2,5.9c49.6,23.8,103.7,36.8,166.4,36.4
			c89.5-0.5,179-0.2,268.4-2.7c72.2-2,144.9-1.8,216.1-10.1c72.7-8.6,145.8-8.9,218.9-11.4c60.1-2.1,120.2-4.1,177.8-17.4
			c5.2-1.2,10.9-2.2,15.3-4.2c42-19.7,90.2-19,138.4-18.3C1366,111.7,1366,113,1366,114.3L1366,114.3z"/>
		<path class="st1" d="M397.5,652.9c18.4-11.9,42.8-11.1,65.4-11.6c65.7-1.5,129.8,6.3,193.3,16.5c12.7,2,25.3,4.6,37.8,7.3
			c15.8,3.4,30.3,7.9,43.1,15.8c26.7,16.4,60.9,18.3,95.2,16.9c30.7-1.3,61.3-4.2,92-6.3c24.3-1.6,48.2-1.3,71.7,4.8
			c34.4,8.9,70.5,8.3,106.2,5.2c34.9-3,69-3.6,103.8,1.8c52.9,8.3,106.6,3.7,160,1.5v4c-33.4-0.4-66.5,3.2-100,2.3
			c-18.2-0.5-36.8-0.4-54.2-3.6c-40.1-7.3-80-5.3-120.3-1.8c-26.2,2.2-53.4,3.5-78.1-2.9c-42-10.7-84.1-8.9-127-5.1
			c-34.1,3.1-68.3,5.6-102.6,1.4c-20.8-2.6-39.6-8-54.2-18.5c-8.6-6.1-20.2-8.9-31.6-11.3c-77.6-16-156.8-25.6-238.6-24.6
			C437.9,645,417.7,648.7,397.5,652.9L397.5,652.9z M0,220c31.2,1.5,62.4,3.5,93.7,0.3c9.6-1,19.2-2.4,27.5-5.4
			c15.3-5.6,31.1-6.4,48.2-5.8c20.8,0.8,36.3-8.9,53.8-14.3c6.4-2,0.1-5.1-4.1-6c-7.7-1.7-15.6-2.7-23.4-4.2
			c-15.7-3.1-27.3-9-39-17.2C130.8,149.2,98.1,137.2,59,135c-19.6-1.1-39.3-1.8-59-0.8v-4c20.8-0.3,41.4,0.2,62.1,1.8
			c43.2,3.5,77.9,16.8,105.2,38.8c6.4,5.2,15.2,7.5,24.4,9.5c11.1,2.3,22.5,4.1,33.2,6.9c8.8,2.3,10.7,7.3,1.7,10.2
			c-21,6.7-40.1,17.2-66.1,14.9c-12.8-1.1-24.4,1.5-36.3,5.2c-22.8,7-47.6,8.5-72.7,7.8c-17.2-0.5-34.3-0.9-51.5-1.3L0,220L0,220z"
			/>
		<path class="st1" d="M0,704.7c8.5-0.5,17.9,0.3,25.5-1.7c25.6-6.8,50.9-5.7,77.2-1.9c27.2,3.9,52.4,0.6,76.7-9.4
			c22.5-9.3,49.7-10.6,75.6-13.5c48.8-5.6,97.4-11.6,142.9-25.3c-3.6,5.6-12.4,6.4-19.5,8.4c-37.5,10.4-77.5,14.7-117.3,19.4
			c-32.8,3.9-65.3,7.5-94.9,19.2c-24.3,9.6-52.1,7-78.4,3.1c-17.5-2.6-33.8-2.3-50.5,1.6c-11.9,2.8-24.6,3.8-37.2,4.3
			C0,707.4,0,706,0,704.7L0,704.7z M0,208.1c20.7-0.5,40.6,4.4,61.4,4.1c16.9-0.3,33-1.8,48.2-6.9c12.3-4.1,25.1-6.7,39.2-6.1
			c3.7,0.1,8.6,0.8,10.7-2.3c2-2.9-0.6-5.2-3.8-7c-8.7-4.7-14.4-10.9-21.6-16.4c-12.3-9.4-26.9-16.2-46.7-18.6
			c-29-3.5-56.9-11.7-87.4-8.7v-4c36.8-2.6,70.3,7.4,105,12.5c13.3,2,23.9,8.7,32.3,15.8c7.4,6.3,14.2,12.8,23.5,18
			c3.8,2.1,7.1,5,4.7,8.7c-2.5,3.9-7.7,5-13.7,4.8c-16.2-0.5-30.5,3.1-44.9,7.6c-30.6,9.6-62.2,5.5-93.6,1.9
			c-4.5-0.5-8.9-1.1-13.4-1.6C0,209.4,0,208.7,0,208.1L0,208.1z M1366,134.3c-44.1,3.2-88.1,6.6-128.7,19.4
			c-14.7,4.7-30.5,6.6-46.2,9.2c-7.5,1.3-17.1,2.3-18.5,8.6c-1.2,5.9,7.5,8.3,13.5,10.9c18,7.5,37.7,12.8,58.1,16.5
			c15.7,2.8,28.7,7.3,37.9,16.4c4.1,4.1,10.4,7.2,15.6,10.7c-13.6-0.5-18.8-8.3-26.3-13.7c-5.4-3.9-10.9-6.4-18.4-8
			c-23.1-4.9-46-10-67-18.1c-5.7-2.2-11.2-4.5-15.3-8c-6.7-5.5-5.9-10.3,3.6-14c1.3-0.5,2.6-1.1,4-1.4
			c61.5-13.5,121.8-29.8,187.6-32.6C1366,131.6,1366,132.9,1366,134.3L1366,134.3z"/>
		<path class="st1" d="M0,196.1c20.5,1.2,41,2.4,61.5,3.5c10.3,0.5,20-1.2,29.2-3.9c10.5-3.1,14.1-9.6,14.4-16.3
			c0.3-6.2-6.5-10.3-15.2-12.2c-29.2-6.4-59.2-10-90-11.1v-2c32.2-1.6,62.7,3.8,92.7,10.5c11.1,2.5,18.5,7.9,17.2,16.7
			c-1.2,8.7-7.4,15-20,18.2c-18.5,4.6-37.8,2.6-56.8,2.1c-11-0.3-22.1-1-33.1-1.6C0,198.8,0,197.4,0,196.1z M1366,146.2
			c-28.2-1.9-53.7,3-77.1,13.2c-7.7,3.4-16.4,4.8-25.2,6.4c-9.7,1.8-21.2,3.4-21.5,11.6c-0.3,8.8,12,11,22,12.4
			c19.9,2.6,35.6,8.6,45.7,20.3c-5.4,0.2-8.2-2.4-11-4.6c-8-6.6-18.5-10-30.8-11.5c-3.5-0.4-6.9-1.1-10.2-1.9
			c-10.9-2.6-21-6.3-21.3-14.9c-0.4-8.8,11.3-11.9,21-13.4c17.1-2.7,31.6-8.4,46.7-13.7c19.3-6.8,40.1-8.4,61.6-7.9
			C1366,143.6,1366,144.9,1366,146.2L1366,146.2z"/>
		<path class="st1" d="M0,186.1c19.7,0.5,39.4,1.6,59,1.3c8.8-0.1,23.2,0.9,23.6-6.9c0.3-7.1-13.7-6.2-22.1-7.1
			c-20-2.1-40.3-1.3-60.6-1.2v-4c21.7-0.1,43.4,0,64.9,2.2c10,1,24.2,1.2,24.2,10c-0.1,8.8-14,9.6-24.3,9.8
			c-21.6,0.4-43.4,1.2-64.7-2.1V186.1z M343.2,708.8c-7.9-0.2-15.8-1-18.1-6.9c-1.9-4.8,4.2-7.8,9.5-9.1
			c50.1-12.8,96.9-33.6,152.7-33.2c52.4,0.3,105.4,1.6,156.7,9.2c29.7,4.4,57.6,14,86.1,21.5c4.6,1.2,9.8,3.3,8.9,7.2
			c-0.9,3.8-6.4,4.7-11.5,5.3c-3.5,0.4-6.9,0.9-10.4,1.5c-15.8,2.6-17,4.3-7,12.9c6.5,5.6,4.4,9.3-2.8,13.5
			c-20.4,11.8-45.3,16.3-71.3,17c-45.9,1.3-91.9,1.4-137.9,1.5c-22.8,0.1-43.6-5.5-63.4-12.4c-15.7-5.5-32.1-9.5-49.4-12.4
			c-16.1-2.7-32-6.3-42.4-15.9c12.5,1.8,21.2,8.7,33.9,10.5c26.8,3.9,51.5,11.6,76,19.6c15.6,5.1,32.5,8.3,49.8,7.3
			c43.4-2.5,86.9-0.5,130.3-1.6c23.9-0.6,47.1-3.9,66.8-13.9c8.4-4.2,11.6-8,3.5-14.5c-8.8-7-6.2-10.9,6.7-14
			c4.3-1,8.9-1.3,13.2-2.2c3.2-0.7,8.1-0.3,8.8-3c1-3.6-4.6-4.1-8-4.9C686.1,682.9,650.7,669,609,668c-16.1-0.4-32.2-2.3-48.3-2.6
			c-31.7-0.5-63.1-4.7-95.2-1.6c-42.3,4.2-78.3,19.3-117.9,28C326,696.8,326.2,699.8,343.2,708.8L343.2,708.8z M944,445.5
			c29.6-20,67.8-21.1,106.6-20.9c49.6,0.2,92.7,13.9,135.3,28.4c15.2,5.2,32.2,8,46.6,14.4c3.1,1.4,8.6,1.9,7.1,5.4
			c-1.1,2.5-5.5,2.8-9,2.9c-22.6,1.2-45.3,2.3-67.9,3.6c-8.5,0.5-17.4,1-25.3,2.9c-38.3,9.2-78.7,8.9-118.2,9.7
			c-34.2,0.8-68.3-4.9-100.8-12.4c-16-3.7-31.8-6.1-48.7-6.4c-5-0.1-11.6,0.2-13.2-3.4c-1.9-4.2,5.3-5.4,9.4-6.4
			c26-6.2,50.9-14.6,78.3-18.1c-11.7,7-27.2,8.1-41,12c-12.4,3.5-25.1,6.6-37.7,9.8c15.2,3.8,30.1,3.2,43.9,6.7
			c68,17.5,137.8,18.3,208.1,8.3c21.7-3.1,43.2-6.5,65.4-7.5c15.8-0.7,31.6-1.5,49.7-2.4c-7.8-4.8-15.1-7-22.4-9
			c-30.6-8.5-59.5-19.3-91.1-26.4c-55.7-12.4-109.9-15.8-162.6,5.6C952.9,444.1,949,445.9,944,445.5L944,445.5z"/>
		<path class="st1" d="M493,671.3c45.9,1.3,91.8,4,137.9,3.5c18.3-0.2,31.6,8,44.8,15.3c2.2,1.2,5.2,3.5,3.2,5.1
			c-8.7,7.1-2.9,12.8,2.7,19c4.6,5.1,0.5,9.2-6.6,11.4c-7.7,2.4-15.8,4.5-24.1,5.8c-35.5,5.4-71,10.6-107.7,3.9
			c-11.9-2.2-24,1.5-36.1,2.1c-8.3,0.4-17.1,1-23.6-2.1c-17.5-8.3-38-8.4-57.8-10.3c-40.5-3.9-36-18.6-27-35.8
			c1.3-2.4,4.7-3.6,8.2-4c20.1-2.3,38.8-7.4,57.7-12.1C473.6,671,483.4,670.9,493,671.3L493,671.3z M503.6,675.1
			c-10.1,0-20.4-0.8-30.3,0.2c-9.8,1.1-19.1,4.2-28.7,6.2c-10.1,2.1-20.3,4.1-30.6,5.7c-6.5,1-10.5,3-12.8,7.3
			c-8.7,16.2-1.7,26,24.5,27c39.2,1.6,74.8,19.5,116,10.5c0.9-0.2,2,0,3,0.2c25.6,4.6,51.2,2.6,76.7-0.1c16.9-1.8,34.1-3.2,49.5-8.8
			c7.1-2.6,9.7-5.2,4.4-10.2c-5.6-5.2-10.6-10.8-3.5-17.3c2.3-2.1-0.2-3.8-2.5-5.1c-12.2-6.7-25.2-13.6-41.5-13
			C586.2,679.3,545,675.4,503.6,675.1L503.6,675.1z M1047.9,432.1c25.7,1.6,67.9,7.9,107.9,19.8c6.9,2,15,4.6,12.5,10.8
			c-2.3,5.7-11,5-17.9,5.1c-12.8,0.2-24.6,1.1-35.2,7c-8.1,4.6-19.1,6.2-29.8,6.3c-41.4,0.6-82.8-0.3-123.9-3.6
			c-11.1-0.9-21.6-3.4-30.7-7.9c-7.1-3.6-8.9-8.2-1.1-11.4C960.5,445.2,990.2,429.9,1047.9,432.1L1047.9,432.1z M1039.3,477.3
			c20.4,0,34.5,0.1,48.7,0c8.3,0,16.8-1,22.8-4.6c11.9-7,25.5-8.6,40.6-8c4.5,0.2,10.3,0,11.8-3.1c1.9-4.2-4.8-5.5-8.9-6.8
			c-16.3-5.3-33.5-9.3-51.2-12c-31.3-4.7-62.4-10.7-95.3-7.2c-20.1,2.1-37,8.6-53.1,16.1c-8.2,3.8-25,4.6-22.6,12.3
			c2.6,8.2,19.1,8.1,30.5,10.4c2.4,0.5,5,0.5,7.5,0.6C995.2,475.9,1020.3,478.4,1039.3,477.3L1039.3,477.3z"/>
		<path class="st1" d="M535.5,685c34.1,0.6,63.5-1.1,91,8.2c8.5,2.9,8.8,6.1,10.3,11.9c3.8,14.5-10.8,13.8-23.7,15.5
			c-55.4,7.4-109.3,2.7-162.3-8.8c-6.5-1.4-10.9-3.7-9.8-8.5c0.9-4.2,1-9.2,9.3-10.2C480.2,689.6,508.7,679,535.5,685L535.5,685z
			 M519.8,687.7c-29.6-2-47,8-67.9,8.8c-4.6,0.2-5.1,3.6-5.3,6.4c-0.2,3.2,2,4.8,6.5,5.8c55.6,12.5,112.1,16.3,169.8,7.2
			c2.8-0.4,6.3-0.5,7.6-2.6c4.4-6.9-1.3-15.6-12.5-18.7c-6-1.6-12.3-3-18.6-3.9C570.4,686.9,540.7,691.1,519.8,687.7L519.8,687.7z
			 M1027.9,439.1c23.7-0.4,43.9,4.1,63.9,8.8c13.6,3.1,14.1,11,2.2,16.6c-8.5,4-18.6,5.8-28.5,6.3c-31.8,1.6-63.7,1.6-95.1-2.9
			c-6.5-0.9-15.6-1.3-16.3-7.1c-0.7-6,8.5-7,14.6-8.5C988.8,447.1,1006.4,437.1,1027.9,439.1L1027.9,439.1z M1029.1,467.9
			c19-0.5,38.6,1.6,56.7-4.1c5.3-1.7,12-3.6,11.5-8.3c-0.5-4.4-7.6-4.7-12.6-6c-40-10.7-78.6-9.5-115.6,5.8
			c-3.3,1.3-8.6,1.8-8.1,5.1s5.8,3.5,9.4,4C989.8,467.2,1009.4,468.2,1029.1,467.9z"/>
		<path class="st1" d="M531.8,694.5c17.7,0.8,36.4,1.5,54.9,2.5c7.5,0.4,16.8,1.1,17,7.5c0.2,6.6-9.7,7-16.8,7.7
			c-19.3,1.7-38.2-0.7-57-3.1c-8.9-1.2-18-1.6-26.9-2.4c-4.4-0.4-10,0-10.2-4.2c-0.1-3.2,3.4-5.5,8-6.5
			C510.6,693.7,520.9,695,531.8,694.5L531.8,694.5z M501.7,702.4c18.7,2.1,37.4,4.6,56.2,6.1c10.4,0.8,21.1,0.2,31.6-0.1
			c3.8-0.1,9.1-0.3,9-3.8c-0.1-3.4-5.3-3.6-9.2-3.8c-19.6-0.9-39.1-1.8-58.7-2.4C520.9,698.1,510.9,697.4,501.7,702.4L501.7,702.4z"
			/>
	</g>
</g>
</svg>
